STARTFONT 2.1
COMMENT 
COMMENT Converted from OpenType font "LiberationSans-Bold.ttf" by "otf2bdf 3.0".
COMMENT 
FONT -FreeType-Liberation Sans-Bold-R-Normal--46-330-100-100-P-244-ISO10646-1
SIZE 33 100 100
FONTBOUNDINGBOX 20 32 0 0
STARTPROPERTIES 20
FOUNDRY "FreeType"
FAMILY_NAME "Liberation Sans"
WEIGHT_NAME "Bold"
SLANT "R"
SETWIDTH_NAME "Normal"
ADD_STYLE_NAME ""
PIXEL_SIZE 46
POINT_SIZE 330
RESOLUTION_X 100
RESOLUTION_Y 100
SPACING "P"
AVERAGE_WIDTH 244
CHARSET_REGISTRY "ISO10646"
CHARSET_ENCODING "1"
FONT_ASCENT 41
FONT_DESCENT 9
COPYRIGHT "Copyright © 2007 Red Hat, Inc. All rights reserved. LIBERATION is a trademark of Red Hat, Inc."
_OTF_FONTFILE "LiberationSans-Bold.ttf"
_OTF_PSNAME "LiberationSans-Bold"
_GBDFED_INFO "Edited with gbdfed 1.6."
ENDPROPERTIES
CHARS 661
STARTCHAR 0020
ENCODING 32
SWIDTH 283 0
DWIDTH 13 0
BBX 0 0 0 0
BITMAP
ENDCHAR
STARTCHAR 0021
ENCODING 33
SWIDTH 327 0
DWIDTH 15 0
BBX 7 32 4 0
BITMAP
FE
FE
FE
FE
FE
7E
7E
7E
7E
7E
7E
7E
7E
7E
7C
7C
7C
7C
7C
7C
7C
7C
00
00
00
00
FE
FE
FE
FE
FE
FE
ENDCHAR
STARTCHAR 0022
ENCODING 34
SWIDTH 480 0
DWIDTH 22 0
BBX 16 11 3 21
BITMAP
FC3F
FC3F
FC3F
FC3F
FC3F
FC3E
FC3E
FC3E
FC3E
7C3E
7C3E
ENDCHAR
STARTCHAR 0023
ENCODING 35
SWIDTH 567 0
DWIDTH 26 0
BBX 24 32 1 0
BITMAP
00E03C
00E03C
00E03C
01E038
01E038
01C078
01C078
01C070
03C070
7FFFFF
7FFFFF
7FFFFF
0780E0
0780E0
0781E0
0701E0
0701E0
0F01C0
0F01C0
0F03C0
FFFFFE
FFFFFE
FFFFFE
1E0380
1C0780
1C0780
1C0700
3C0700
3C0700
380F00
380F00
380E00
ENDCHAR
STARTCHAR 0024
ENCODING 36
SWIDTH 567 0
DWIDTH 26 0
BBX 24 37 1 -3
BITMAP
001800
001800
001800
01FF80
0FFFE0
1FFFF0
3FFFF8
7F9BFC
7E18FC
7E18FE
7E187E
7E1870
7E1800
7F1800
7FF800
3FFE00
1FFFC0
0FFFF0
03FFFC
007FFC
001BFE
0018FF
00183F
18183F
FC183F
FC183F
FE187F
7F18FE
7FFFFE
3FFFFC
1FFFF8
0FFFF0
01FF80
001800
001800
001800
001800
ENDCHAR
STARTCHAR 0025
ENCODING 37
SWIDTH 894 0
DWIDTH 41 0
BBX 39 32 1 0
BITMAP
07E0001F00
1FF8003E00
3FFC003E00
7FFE007C00
7C3E007800
7C1F00F800
F81F01F000
F81F01E000
F81F03E000
F81F07C000
F81F078000
F81F0F8000
F81F1F0FC0
F81F1E3FF0
7C1F3E7FF8
7C3E7CFFF8
3FFE78F8FC
3FFCF9F07C
1FF9F1F03C
07E1F1F03E
0003E1F03E
0003C1F03E
0007C1F03E
000F81F03E
000F01F03E
001F01F03C
003E01F07C
003C00F8FC
007C00FFF8
00F8007FF8
00F0003FF0
01F0000FC0
ENDCHAR
STARTCHAR 0026
ENCODING 38
SWIDTH 720 0
DWIDTH 33 0
BBX 30 32 2 0
BITMAP
001FC000
007FF000
00FFF800
01FFFC00
03F0FC00
03E07C00
03E03E00
03E07E00
03E07C00
03E0FC00
03E1F800
01FFF000
01FFE000
00FF8000
03FF0000
0FFC0100
1FFC03E0
3FFE03E0
7F3F03E0
7E1F07C0
FC1F87C0
FC0FCFC0
FC07EF80
FC07FF80
FC03FF00
FC01FE00
7E01FF00
7F83FFFC
3FFFFFFC
1FFFEFFC
0FFF87FC
01FE00F8
ENDCHAR
STARTCHAR 0027
ENCODING 39
SWIDTH 240 0
DWIDTH 11 0
BBX 7 11 2 21
BITMAP
FE
7C
7C
7C
7C
7C
7C
7C
7C
7C
7C
ENDCHAR
STARTCHAR 0028
ENCODING 40
SWIDTH 327 0
DWIDTH 15 0
BBX 13 43 2 -10
BITMAP
01F8
03F0
07F0
07E0
0FE0
0FC0
1FC0
1F80
3F80
3F00
3F00
7F00
7E00
7E00
7E00
7E00
7E00
FE00
FE00
FE00
FE00
FE00
FE00
FE00
FE00
FE00
7E00
7E00
7E00
7E00
7E00
7F00
3F00
3F00
3F80
1F80
1FC0
0FC0
0FE0
07E0
07F0
03F0
01F8
ENDCHAR
STARTCHAR 0029
ENCODING 41
SWIDTH 327 0
DWIDTH 15 0
BBX 13 43 0 -10
BITMAP
FE00
7E00
3F00
3F80
1F80
1FC0
0FC0
0FC0
07E0
07E0
07F0
03F0
03F0
03F0
03F0
03F8
01F8
01F8
01F8
01F8
01F8
01F8
01F8
01F8
01F8
01F8
03F8
03F8
03F0
03F0
03F0
03F0
07F0
07E0
07E0
0FE0
0FC0
1FC0
1F80
3F80
3F00
7E00
FE00
ENDCHAR
STARTCHAR 002A
ENCODING 42
SWIDTH 392 0
DWIDTH 18 0
BBX 18 17 0 15
BITMAP
01E000
01E000
01E000
01E000
61E180
7DEF80
7FFF80
FFFFC0
7FFF80
03F000
07F800
0FFC00
1F3E00
3F3F00
3E1F00
1E1E00
040800
ENDCHAR
STARTCHAR 002B
ENCODING 43
SWIDTH 589 0
DWIDTH 27 0
BBX 23 23 2 4
BITMAP
007C00
007C00
007C00
007C00
007C00
007C00
007C00
007C00
007C00
FFFFFE
FFFFFE
FFFFFE
FFFFFE
FFFFFE
007C00
007C00
007C00
007C00
007C00
007C00
007C00
007C00
007C00
ENDCHAR
STARTCHAR 002C
ENCODING 44
SWIDTH 283 0
DWIDTH 13 0
BBX 7 14 3 -7
BITMAP
FE
FE
FE
FE
FE
FE
FE
1E
1C
1C
3C
3C
78
78
ENDCHAR
STARTCHAR 002D
ENCODING 45
SWIDTH 327 0
DWIDTH 15 0
BBX 11 5 2 10
BITMAP
FFE0
FFE0
FFE0
FFE0
FFE0
ENDCHAR
STARTCHAR 002E
ENCODING 46
SWIDTH 283 0
DWIDTH 13 0
BBX 7 7 3 0
BITMAP
FE
FE
FE
FE
FE
FE
FE
ENDCHAR
STARTCHAR 002F
ENCODING 47
SWIDTH 283 0
DWIDTH 13 0
BBX 11 34 1 -1
BITMAP
03E0
03E0
07E0
07E0
07C0
07C0
07C0
07C0
0FC0
0FC0
0F80
0F80
0F80
1F80
1F80
1F00
1F00
1F00
3F00
3F00
3E00
3E00
3E00
7E00
7E00
7E00
7C00
7C00
FC00
FC00
FC00
F800
F800
F800
ENDCHAR
STARTCHAR 0030
ENCODING 48
SWIDTH 567 0
DWIDTH 26 0
BBX 22 32 2 0
BITMAP
01FC00
07FF80
0FFFC0
1FFFE0
3FFFE0
3F87F0
7F03F0
7E03F8
7E01F8
FE01F8
FC01F8
FC01F8
FC01FC
FC01FC
FC01FC
FC01FC
FC01FC
FC01FC
FC01FC
FC01FC
FC01F8
FC01F8
FE01F8
7E01F8
7E03F8
7F03F0
3F87F0
3FFFE0
1FFFE0
0FFFC0
07FF00
01FC00
ENDCHAR
STARTCHAR 0031
ENCODING 49
SWIDTH 370 0
DWIDTH 17 0
BBX 13 32 4 0
BITMAP
0078
0078
00F8
00F8
03F8
0FF8
FFF8
FFF8
FFF8
FFF8
01F8
01F8
01F8
01F8
01F8
01F8
01F8
01F8
01F8
01F8
01F8
01F8
01F8
01F8
01F8
01F8
01F8
01F8
01F8
01F8
01F8
01F8
ENDCHAR
STARTCHAR 0032
ENCODING 50
SWIDTH 567 0
DWIDTH 26 0
BBX 22 32 2 0
BITMAP
01FE00
0FFF80
1FFFE0
3FFFF0
7FFFF0
7F07F8
FE03F8
FE01F8
FC01F8
0001F8
0001F8
0003F8
0003F8
0007F0
000FF0
001FE0
007FC0
00FF80
01FF00
03FE00
07F800
0FF000
1FE000
3FC000
7F8000
7F0000
FE0000
FFFFFC
FFFFFC
FFFFFC
FFFFFC
FFFFFC
ENDCHAR
STARTCHAR 0033
ENCODING 51
SWIDTH 567 0
DWIDTH 26 0
BBX 23 32 1 0
BITMAP
00FF00
07FFC0
0FFFF0
1FFFF8
3FFFF8
7F83FC
7F01FC
7E01FC
7E00FC
0000FC
0001FC
0001F8
0007F8
00FFF0
00FFC0
00FF00
00FFE0
00FFF8
0003FC
0001FC
0000FE
0000FE
7E00FE
FE00FE
FE00FE
7F00FE
7F83FC
3FFFFC
3FFFF8
1FFFF0
07FFE0
01FF00
ENDCHAR
STARTCHAR 0034
ENCODING 52
SWIDTH 567 0
DWIDTH 26 0
BBX 24 32 1 0
BITMAP
0007F0
000FF0
001FF0
001FF0
003FF0
003FF0
007FF0
00FBF0
00FBF0
01F3F0
03F3F0
03E3F0
07C3F0
0FC3F0
0F83F0
1F03F0
1F03F0
3E03F0
7C03F0
7C03F0
F803F0
FFFFFF
FFFFFF
FFFFFF
FFFFFF
FFFFFF
0003F0
0003F0
0003F0
0003F0
0003F0
0003F0
ENDCHAR
STARTCHAR 0035
ENCODING 53
SWIDTH 567 0
DWIDTH 26 0
BBX 22 32 2 0
BITMAP
FFFFF0
FFFFF0
FFFFF0
FFFFF0
FFFFF0
FC0000
FC0000
FC0000
FC0000
FC0000
FCFF00
FFFFC0
FFFFE0
FFFFF0
FFFFF8
FE07F8
FC01FC
0001FC
0000FC
0000FC
0000FC
0000FC
0000FC
FC00FC
FC01FC
FE03FC
FF07F8
7FFFF8
3FFFF0
1FFFE0
0FFF80
01FE00
ENDCHAR
STARTCHAR 0036
ENCODING 54
SWIDTH 567 0
DWIDTH 26 0
BBX 22 32 2 0
BITMAP
00FE00
03FF80
0FFFE0
1FFFE0
3FFFF0
3F87F0
7F03F8
7E01E0
7E0000
FC0000
FC0000
FC3F00
FCFFC0
FDFFE0
FFFFF0
FFFFF8
FF87F8
FE03F8
FE01FC
FC01FC
FC00FC
FC00FC
FC00FC
FE01FC
7E01FC
7F03F8
3F87F8
3FFFF0
1FFFF0
0FFFE0
07FF80
00FE00
ENDCHAR
STARTCHAR 0037
ENCODING 55
SWIDTH 567 0
DWIDTH 26 0
BBX 22 32 2 0
BITMAP
FFFFFC
FFFFFC
FFFFFC
FFFFFC
FFFFFC
0001F8
0001F8
0003F0
0007E0
0007E0
000FC0
001FC0
001F80
003F00
003F00
007E00
007E00
00FC00
00FC00
01FC00
01F800
03F800
03F800
03F000
03F000
07F000
07F000
07E000
07E000
07E000
07E000
07E000
ENDCHAR
STARTCHAR 0038
ENCODING 56
SWIDTH 567 0
DWIDTH 26 0
BBX 23 32 1 0
BITMAP
00FF00
07FFE0
0FFFF0
1FFFF8
3F83FC
3F01FC
7F00FC
7F00FC
7F00FC
7F00FC
3F00FC
3F01FC
1FC3F8
0FFFF0
07FFC0
07FFC0
1FFFF0
3F83F8
3F00FC
7E00FE
7E00FE
FE007E
FE007E
FE007E
7E00FE
7E00FE
7F00FC
3F83FC
3FFFF8
1FFFF0
07FFE0
01FF00
ENDCHAR
STARTCHAR 0039
ENCODING 57
SWIDTH 567 0
DWIDTH 26 0
BBX 22 32 2 0
BITMAP
01FC00
0FFF80
1FFFC0
3FFFE0
7FFFE0
7F07F0
FE03F0
FE03F8
FC01F8
FC01F8
FC01FC
FC01FC
FC01FC
FE01FC
FE03FC
FF07FC
7FFFFC
3FFFFC
3FFEFC
0FFCFC
03F1FC
0001F8
0001F8
0001F8
3C03F8
FE03F0
7F0FF0
7FFFE0
3FFFC0
1FFF80
0FFF00
03FC00
ENDCHAR
STARTCHAR 003A
ENCODING 58
SWIDTH 414 0
DWIDTH 19 0
BBX 7 23 4 4
BITMAP
FE
FE
FE
FE
FE
FE
00
00
00
00
00
00
00
00
00
00
00
FE
FE
FE
FE
FE
FE
ENDCHAR
STARTCHAR 003B
ENCODING 59
SWIDTH 327 0
DWIDTH 15 0
BBX 7 30 4 -7
BITMAP
FE
FE
FE
FE
FE
FE
00
00
00
00
00
00
00
00
00
00
00
FE
FE
FE
FE
FE
FE
1E
1E
1E
1C
3C
78
78
ENDCHAR
STARTCHAR 003C
ENCODING 60
SWIDTH 589 0
DWIDTH 27 0
BBX 23 25 2 3
BITMAP
000002
00001E
0000FE
0003FE
001FFE
00FFFC
03FFF0
1FFF80
FFFE00
FFF000
FF8000
FE0000
F00000
FE0000
FF8000
FFF000
FFFE00
1FFF80
03FFF0
00FFFC
001FFE
0003FE
0000FE
00001E
000002
ENDCHAR
STARTCHAR 003D
ENCODING 61
SWIDTH 589 0
DWIDTH 27 0
BBX 23 17 2 7
BITMAP
FFFFFE
FFFFFE
FFFFFE
FFFFFE
FFFFFE
000000
000000
000000
000000
000000
000000
000000
FFFFFE
FFFFFE
FFFFFE
FFFFFE
FFFFFE
ENDCHAR
STARTCHAR 003E
ENCODING 62
SWIDTH 589 0
DWIDTH 27 0
BBX 23 25 2 3
BITMAP
800000
F00000
FE0000
FF8000
FFF000
7FFE00
1FFF80
03FFF0
00FFFE
001FFE
0007FE
0000FE
00001E
0000FE
0007FE
001FFE
00FFFE
03FFF0
1FFF80
FFFE00
FFF000
FF8000
FE0000
F00000
800000
ENDCHAR
STARTCHAR 003F
ENCODING 63
SWIDTH 610 0
DWIDTH 28 0
BBX 23 32 2 0
BITMAP
00FF00
03FFE0
0FFFF8
1FFFFC
3FFFFC
7FC1FE
7F00FE
7E007E
FE007E
FE007E
00007E
0000FE
0000FE
0003FC
0007F8
000FF0
001FC0
003F80
007F00
00FE00
00FC00
00FC00
000000
000000
000000
000000
00FC00
00FC00
00FC00
00FC00
00FC00
00FC00
ENDCHAR
STARTCHAR 0040
ENCODING 64
SWIDTH 981 0
DWIDTH 45 0
BBX 39 39 3 -7
BITMAP
00007FE000
0007FFFC00
001FFFFF00
007F803F80
00FC0007E0
03F00001F0
07C00000F0
0780000078
0F007E003C
1E01FF1C3C
3E07FF9C1C
3C0FC3FC1E
780F01FC1E
781E00F80E
783C00F80E
F03C00780E
F03800780E
F07800F00E
E07800F00E
E07800F01E
E07800F01E
E07801F01C
E07801E03C
E07803E03C
E07803E078
F07C07E0F0
F03E1EE1F0
F01FFCFFE0
780FF87F80
7807E03E00
3C00000000
3C00000000
1E00000200
0F80000F00
07C0003F00
03F803FE00
01FFFFF800
007FFFE000
0007FE0000
ENDCHAR
STARTCHAR 0041
ENCODING 65
SWIDTH 720 0
DWIDTH 33 0
BBX 31 32 1 0
BITMAP
001FF000
001FF000
001FF000
003FF800
003FF800
003EF800
007EFC00
007EFC00
007E7E00
00FC7E00
00FC7E00
00FC3F00
01F83F00
01F83F00
03F81F80
03F01F80
03F01F80
07F00FC0
07E00FC0
07FFFFE0
0FFFFFE0
0FFFFFE0
0FFFFFF0
1FFFFFF0
1F8003F0
3F8003F8
3F8001F8
3F0001F8
7F0001FC
7F0000FC
7E0000FC
FE0000FE
ENDCHAR
STARTCHAR 0042
ENCODING 66
SWIDTH 720 0
DWIDTH 33 0
BBX 28 32 3 0
BITMAP
FFFFF000
FFFFFC00
FFFFFF00
FFFFFF80
FFFFFFC0
FE007FC0
FE001FC0
FE001FC0
FE000FC0
FE000FC0
FE001FC0
FE001FC0
FE007F80
FFFFFF00
FFFFFE00
FFFFF800
FFFFFF00
FFFFFFC0
FE001FE0
FE000FE0
FE0007F0
FE0007F0
FE0007F0
FE0007F0
FE0007F0
FE000FF0
FE001FE0
FFFFFFE0
FFFFFFC0
FFFFFF80
FFFFFE00
FFFFF800
ENDCHAR
STARTCHAR 0043
ENCODING 67
SWIDTH 720 0
DWIDTH 33 0
BBX 30 32 2 0
BITMAP
001FF000
00FFFE00
03FFFF80
07FFFFC0
0FFFFFE0
1FF01FF0
3FC007F8
3F8003F8
7F0001F8
7F0000C0
FE000000
FE000000
FE000000
FE000000
FE000000
FE000000
FE000000
FE000000
FE000000
FE000000
FE000000
7E0000C0
7F0001F0
7F0001FC
3F8003F8
3FC007F8
1FF01FF0
0FFFFFE0
07FFFFC0
03FFFF80
00FFFE00
001FF000
ENDCHAR
STARTCHAR 0044
ENCODING 68
SWIDTH 720 0
DWIDTH 33 0
BBX 28 32 3 0
BITMAP
FFFF8000
FFFFF000
FFFFFC00
FFFFFE00
FFFFFF00
FE01FF80
FE007FC0
FE001FC0
FE000FE0
FE000FE0
FE0007F0
FE0007F0
FE0007F0
FE0007F0
FE0003F0
FE0003F0
FE0003F0
FE0003F0
FE0007F0
FE0007F0
FE0007F0
FE0007F0
FE000FE0
FE001FE0
FE001FC0
FE007FC0
FE01FF80
FFFFFF00
FFFFFE00
FFFFFC00
FFFFF000
FFFF8000
ENDCHAR
STARTCHAR 0045
ENCODING 69
SWIDTH 676 0
DWIDTH 31 0
BBX 26 32 3 0
BITMAP
FFFFFF80
FFFFFF80
FFFFFF80
FFFFFF80
FFFFFF80
FE000000
FE000000
FE000000
FE000000
FE000000
FE000000
FE000000
FE000000
FFFFFF00
FFFFFF00
FFFFFF00
FFFFFF00
FFFFFF00
FE000000
FE000000
FE000000
FE000000
FE000000
FE000000
FE000000
FE000000
FE000000
FFFFFFC0
FFFFFFC0
FFFFFFC0
FFFFFFC0
FFFFFFC0
ENDCHAR
STARTCHAR 0046
ENCODING 70
SWIDTH 610 0
DWIDTH 28 0
BBX 23 32 3 0
BITMAP
FFFFFE
FFFFFE
FFFFFE
FFFFFE
FFFFFE
FE0000
FE0000
FE0000
FE0000
FE0000
FE0000
FE0000
FE0000
FE0000
FFFFFE
FFFFFE
FFFFFE
FFFFFE
FFFFFE
FE0000
FE0000
FE0000
FE0000
FE0000
FE0000
FE0000
FE0000
FE0000
FE0000
FE0000
FE0000
FE0000
ENDCHAR
STARTCHAR 0047
ENCODING 71
SWIDTH 785 0
DWIDTH 36 0
BBX 31 32 2 0
BITMAP
001FF800
00FFFF00
03FFFFC0
07FFFFE0
0FFFFFF0
1FF81FF8
3FC007F8
3F8001FC
7F0001F8
7F0000C0
7E000000
FE000000
FE000000
FE000000
FE000000
FE007FFE
FE007FFE
FE007FFE
FE007FFE
FE007FFE
FE00007E
7E00007E
7F00007E
7F80007E
3F80007E
3FE001FE
1FF80FFE
0FFFFFFC
07FFFFF8
03FFFFE0
00FFFF80
001FF800
ENDCHAR
STARTCHAR 0048
ENCODING 72
SWIDTH 720 0
DWIDTH 33 0
BBX 27 32 3 0
BITMAP
FE000FE0
FE000FE0
FE000FE0
FE000FE0
FE000FE0
FE000FE0
FE000FE0
FE000FE0
FE000FE0
FE000FE0
FE000FE0
FE000FE0
FE000FE0
FFFFFFE0
FFFFFFE0
FFFFFFE0
FFFFFFE0
FFFFFFE0
FE000FE0
FE000FE0
FE000FE0
FE000FE0
FE000FE0
FE000FE0
FE000FE0
FE000FE0
FE000FE0
FE000FE0
FE000FE0
FE000FE0
FE000FE0
FE000FE0
ENDCHAR
STARTCHAR 0049
ENCODING 73
SWIDTH 283 0
DWIDTH 13 0
BBX 7 32 3 0
BITMAP
FE
FE
FE
FE
FE
FE
FE
FE
FE
FE
FE
FE
FE
FE
FE
FE
FE
FE
FE
FE
FE
FE
FE
FE
FE
FE
FE
FE
FE
FE
FE
FE
ENDCHAR
STARTCHAR 004A
ENCODING 74
SWIDTH 567 0
DWIDTH 26 0
BBX 21 32 1 0
BITMAP
007FF8
007FF8
007FF8
007FF8
007FF8
0001F8
0001F8
0001F8
0001F8
0001F8
0001F8
0001F8
0001F8
0001F8
0001F8
0001F8
0001F8
0001F8
0001F8
0001F8
0001F8
0001F8
1C01F8
FE01F8
FE03F8
FF03F8
7F87F8
7FFFF0
3FFFE0
1FFFC0
0FFF80
01FE00
ENDCHAR
STARTCHAR 004B
ENCODING 75
SWIDTH 720 0
DWIDTH 33 0
BBX 29 32 3 0
BITMAP
FE000FF0
FE001FE0
FE003FC0
FE003F80
FE007F00
FE00FE00
FE01FC00
FE03F800
FE07F000
FE0FE000
FE1FC000
FE3F8000
FE7F0000
FEFE0000
FFFF0000
FFFF8000
FFFF8000
FFDFC000
FF8FE000
FF0FF000
FE07F800
FE03F800
FE01FC00
FE01FE00
FE00FF00
FE007F80
FE003F80
FE003FC0
FE001FE0
FE000FF0
FE0007F8
FE0003F8
ENDCHAR
STARTCHAR 004C
ENCODING 76
SWIDTH 610 0
DWIDTH 28 0
BBX 24 32 3 0
BITMAP
FE0000
FE0000
FE0000
FE0000
FE0000
FE0000
FE0000
FE0000
FE0000
FE0000
FE0000
FE0000
FE0000
FE0000
FE0000
FE0000
FE0000
FE0000
FE0000
FE0000
FE0000
FE0000
FE0000
FE0000
FE0000
FE0000
FE0000
FFFFFF
FFFFFF
FFFFFF
FFFFFF
FFFFFF
ENDCHAR
STARTCHAR 004D
ENCODING 77
SWIDTH 829 0
DWIDTH 38 0
BBX 32 32 3 0
BITMAP
FF8001FF
FF8001FF
FFC001FF
FFC003FF
FFC003FF
FFE003FF
FFE007DF
FFE007FF
FFF007FF
FDF00FFF
FDF00FBF
FDF80FBF
FCF80FBF
FCF81FBF
FCFC1F3F
FCFC1F3F
FC7C3F3F
FC7C3E3F
FC7E3E3F
FC3E7E3F
FC3E7C3F
FC3F7C3F
FC1F7C3F
FC1FF83F
FC1FF83F
FC0FF83F
FC0FF03F
FC0FF03F
FC07F03F
FC07E03F
FC07E03F
FC03E03F
ENDCHAR
STARTCHAR 004E
ENCODING 78
SWIDTH 720 0
DWIDTH 33 0
BBX 27 32 3 0
BITMAP
FF0007E0
FF0007E0
FF8007E0
FFC007E0
FFC007E0
FFE007E0
FFE007E0
FFF007E0
FFF007E0
FDF807E0
FDFC07E0
FCFC07E0
FC7E07E0
FC7E07E0
FC3F07E0
FC3F07E0
FC1F87E0
FC1F87E0
FC0FC7E0
FC0FE7E0
FC07E7E0
FC03F7E0
FC03F7E0
FC01FFE0
FC01FBE0
FC00FFE0
FC00FFE0
FC007FE0
FC007FE0
FC003FE0
FC001FE0
FC001FE0
ENDCHAR
STARTCHAR 004F
ENCODING 79
SWIDTH 785 0
DWIDTH 36 0
BBX 32 32 2 0
BITMAP
001FF000
00FFFF00
03FFFF80
07FFFFE0
0FFFFFF0
1FF81FF8
3FE007F8
3F8003FC
7F8001FC
7F0000FE
7E0000FE
FE00007E
FE00007F
FE00007F
FE00007F
FE00007F
FE00007F
FE00007F
FE00007F
FE00007F
FE0000FE
7F0000FE
7F0000FE
7F8001FC
3F8003FC
3FE007F8
1FF81FF8
0FFFFFF0
07FFFFE0
03FFFF80
00FFFE00
001FF000
ENDCHAR
STARTCHAR 0050
ENCODING 80
SWIDTH 676 0
DWIDTH 31 0
BBX 26 32 3 0
BITMAP
FFFFE000
FFFFF800
FFFFFE00
FFFFFF00
FFFFFF80
FE00FF80
FE003FC0
FE001FC0
FE001FC0
FE001FC0
FE001FC0
FE001FC0
FE001FC0
FE001FC0
FE003F80
FE00FF80
FFFFFF00
FFFFFF00
FFFFFE00
FFFFF800
FFFFE000
FE000000
FE000000
FE000000
FE000000
FE000000
FE000000
FE000000
FE000000
FE000000
FE000000
FE000000
ENDCHAR
STARTCHAR 0051
ENCODING 81
SWIDTH 785 0
DWIDTH 36 0
BBX 32 41 2 -9
BITMAP
001FF000
00FFFF00
03FFFF80
07FFFFE0
0FFFFFF0
1FF81FF8
3FC007F8
3F8003FC
7F8001FC
7F0000FE
7E0000FE
FE00007E
FE00007F
FE00007F
FE00007F
FE00007F
FE00007F
FE00007F
FE00007F
FE00007F
FE0000FE
7F0000FE
7F0000FE
7F8001FC
3F8003FC
3FE007FC
1FF81FF8
0FFFFFF0
07FFFFE0
03FFFFC0
00FFFF00
003FFC00
0007F000
0003F800
0003FC00
0001FE00
0001FFF8
0000FFF8
00007FF8
00003FF8
00000FF0
ENDCHAR
STARTCHAR 0052
ENCODING 82
SWIDTH 720 0
DWIDTH 33 0
BBX 29 32 3 0
BITMAP
FFFFF000
FFFFFE00
FFFFFF80
FFFFFFC0
FFFFFFC0
FE003FE0
FE000FE0
FE0007F0
FE0007F0
FE0007F0
FE0007F0
FE0007F0
FE000FE0
FE000FE0
FE003FC0
FFFFFFC0
FFFFFF80
FFFFFF00
FFFFFC00
FFFFF800
FE01FC00
FE01FC00
FE00FE00
FE007F00
FE007F00
FE003F80
FE003FC0
FE001FC0
FE000FE0
FE000FF0
FE0007F0
FE0007F8
ENDCHAR
STARTCHAR 0053
ENCODING 83
SWIDTH 676 0
DWIDTH 31 0
BBX 28 32 1 0
BITMAP
007FF000
03FFFE00
07FFFF00
0FFFFF80
1FFFFFC0
3FE07FC0
3F801FE0
3F000FE0
3F000F00
3F000000
3F800000
3FE00000
1FFC0000
1FFFC000
0FFFFC00
07FFFF00
01FFFF80
001FFFC0
0001FFE0
00001FE0
00000FF0
000007F0
0E0007F0
FE0007F0
7F0007F0
7F800FE0
3FE01FE0
3FFFFFE0
1FFFFFC0
0FFFFF80
03FFFE00
007FF000
ENDCHAR
STARTCHAR 0054
ENCODING 84
SWIDTH 610 0
DWIDTH 28 0
BBX 27 32 1 0
BITMAP
FFFFFFE0
FFFFFFE0
FFFFFFE0
FFFFFFE0
FFFFFFE0
003F0000
003F0000
003F0000
003F0000
003F0000
003F0000
003F0000
003F0000
003F0000
003F0000
003F0000
003F0000
003F0000
003F0000
003F0000
003F0000
003F0000
003F0000
003F0000
003F0000
003F0000
003F0000
003F0000
003F0000
003F0000
003F0000
003F0000
ENDCHAR
STARTCHAR 0055
ENCODING 85
SWIDTH 720 0
DWIDTH 33 0
BBX 27 32 3 0
BITMAP
FC0007E0
FC0007E0
FC0007E0
FC0007E0
FC0007E0
FC0007E0
FC0007E0
FC0007E0
FC0007E0
FC0007E0
FC0007E0
FC0007E0
FC0007E0
FC0007E0
FC0007E0
FC0007E0
FC0007E0
FC0007E0
FC0007E0
FC0007E0
FC0007E0
FE0007E0
FE000FE0
FE000FE0
FF001FE0
7F803FC0
7FC0FFC0
3FFFFF80
1FFFFF00
0FFFFE00
03FFF800
007FC000
ENDCHAR
STARTCHAR 0056
ENCODING 86
SWIDTH 676 0
DWIDTH 31 0
BBX 30 32 0 0
BITMAP
FE0001FC
7F0001FC
7F0001F8
3F0003F8
3F8003F8
3F8003F0
1F8007F0
1FC007F0
1FC007E0
0FC007E0
0FE00FE0
07E00FC0
07E00FC0
07E01F80
03F01F80
03F01F80
03F03F00
01F83F00
01F83F00
01F87E00
00FC7E00
00FC7E00
007C7C00
007CFC00
007EF800
003EF800
003FF800
003FF000
001FF000
001FF000
001FE000
000FE000
ENDCHAR
STARTCHAR 0057
ENCODING 87
SWIDTH 938 0
DWIDTH 43 0
BBX 43 32 0 0
BITMAP
FE003FC007E0
FE003FC00FE0
7E007FC00FE0
7F007FC00FC0
7F007FE00FC0
7F007FE01FC0
3F007FE01FC0
3F00FFE01F80
3F80FBE01F80
3F80FBF01F80
1F80FBF03F80
1F81F9F03F00
1FC1F9F03F00
1FC1F1F83F00
0FC1F1F83F00
0FC1F1F87E00
0FC3F0F87E00
07E3E0FC7E00
07E3E0FC7E00
07E3E0FCFC00
07E7E07CFC00
03E7E07CFC00
03F7C07EFC00
03F7C07EF800
03F7C03FF800
01FFC03FF800
01FF803FF800
01FF803FF000
01FF803FF000
00FF801FF000
00FF001FF000
00FF001FE000
ENDCHAR
STARTCHAR 0058
ENCODING 88
SWIDTH 676 0
DWIDTH 31 0
BBX 29 32 1 0
BITMAP
7F0007F0
7F000FE0
3F800FE0
1F801FC0
1FC01FC0
0FE03F80
07E07F00
07F07F00
03F0FE00
03F8FC00
01FDFC00
00FFF800
00FFF800
007FF000
003FE000
003FE000
003FE000
007FF000
00FFF800
00FFF800
01FDFC00
03F8FE00
03F0FE00
07F07F00
0FE03F00
0FE03F80
1FC01FC0
3F801FC0
3F800FE0
7F0007F0
FE0007F0
FE0003F8
ENDCHAR
STARTCHAR 0059
ENCODING 89
SWIDTH 676 0
DWIDTH 31 0
BBX 29 32 1 0
BITMAP
FE0003F8
7F0007F0
7F0007E0
3F800FE0
3F800FC0
1FC01FC0
0FC03F80
0FE03F80
07E07F00
07F07E00
03F0FE00
01F8FC00
01F9FC00
00FDF800
00FFF000
007FF000
003FE000
003FE000
001FC000
001FC000
001FC000
001FC000
001FC000
001FC000
001FC000
001FC000
001FC000
001FC000
001FC000
001FC000
001FC000
001FC000
ENDCHAR
STARTCHAR 005A
ENCODING 90
SWIDTH 610 0
DWIDTH 28 0
BBX 26 32 1 0
BITMAP
3FFFFF80
3FFFFF80
3FFFFF80
3FFFFF80
3FFFFF80
00007F00
0000FE00
0000FE00
0001FC00
0003F800
0007F000
0007E000
000FE000
001FC000
003F8000
007F0000
007F0000
00FE0000
01FC0000
03F80000
03F80000
07F00000
0FE00000
1FC00000
1FC00000
3F800000
7F000000
FFFFFFC0
FFFFFFC0
FFFFFFC0
FFFFFFC0
FFFFFFC0
ENDCHAR
STARTCHAR 005B
ENCODING 91
SWIDTH 327 0
DWIDTH 15 0
BBX 12 43 3 -10
BITMAP
FFF0
FFF0
FFF0
FFF0
FC00
FC00
FC00
FC00
FC00
FC00
FC00
FC00
FC00
FC00
FC00
FC00
FC00
FC00
FC00
FC00
FC00
FC00
FC00
FC00
FC00
FC00
FC00
FC00
FC00
FC00
FC00
FC00
FC00
FC00
FC00
FC00
FC00
FC00
FC00
FFF0
FFF0
FFF0
FFF0
ENDCHAR
STARTCHAR 005C
ENCODING 92
SWIDTH 283 0
DWIDTH 13 0
BBX 11 34 1 -1
BITMAP
F800
F800
F800
F800
FC00
7C00
7C00
7C00
7C00
7E00
7E00
3E00
3E00
3E00
3F00
3F00
1F00
1F00
1F00
1F80
1F80
0F80
0F80
0F80
0FC0
0FC0
0FC0
07C0
07C0
07C0
07E0
07E0
03E0
03E0
ENDCHAR
STARTCHAR 005D
ENCODING 93
SWIDTH 327 0
DWIDTH 15 0
BBX 12 43 1 -10
BITMAP
FFF0
FFF0
FFF0
FFF0
03F0
03F0
03F0
03F0
03F0
03F0
03F0
03F0
03F0
03F0
03F0
03F0
03F0
03F0
03F0
03F0
03F0
03F0
03F0
03F0
03F0
03F0
03F0
03F0
03F0
03F0
03F0
03F0
03F0
03F0
03F0
03F0
03F0
03F0
03F0
FFF0
FFF0
FFF0
FFF0
ENDCHAR
STARTCHAR 005E
ENCODING 94
SWIDTH 589 0
DWIDTH 27 0
BBX 25 20 1 12
BITMAP
007F0000
00FF8000
00FF8000
01F7C000
01F7C000
03E7C000
03E3E000
07E3E000
07C1F000
07C1F000
0F80F800
0F80F800
1F00FC00
1F007C00
3F007C00
3E003E00
3E003E00
7C001F00
7C001F00
F8001F80
ENDCHAR
STARTCHAR 005F
ENCODING 95
SWIDTH 567 0
DWIDTH 26 0
BBX 26 3 0 -7
BITMAP
FFFFFFC0
FFFFFFC0
FFFFFFC0
ENDCHAR
STARTCHAR 0060
ENCODING 96
SWIDTH 327 0
DWIDTH 15 0
BBX 12 7 1 27
BITMAP
FE00
7F00
3F80
0F80
07C0
03E0
01F0
ENDCHAR
STARTCHAR 0061
ENCODING 97
SWIDTH 567 0
DWIDTH 26 0
BBX 25 25 1 0
BITMAP
00FF0000
07FFC000
0FFFE000
1FFFF000
3FC3F800
3F81F800
3F01F800
7F01F800
0001F800
0001F800
03FFF800
0FFFF800
3FFFF800
7FFFF800
7F81F800
7F01F800
FE01F800
FE01F800
FE03F800
FE07FC00
7F0FFC00
7FFEFF80
3FFC7F80
1FF87F80
07E01F00
ENDCHAR
STARTCHAR 0062
ENCODING 98
SWIDTH 610 0
DWIDTH 28 0
BBX 23 33 3 0
BITMAP
FE0000
FE0000
FE0000
FE0000
FE0000
FE0000
FE0000
FE0000
FE1F80
FE7FE0
FEFFF0
FDFFF8
FDC3FC
FF01FC
FF00FC
FE00FE
FE00FE
FE00FE
FE007E
FC007E
FC007E
FC007E
FE007E
FE00FE
FE00FE
FE00FE
FF00FC
FF01FC
FF83FC
FDFFF8
FCFFF0
FC7FE0
FC1F80
ENDCHAR
STARTCHAR 0063
ENCODING 99
SWIDTH 567 0
DWIDTH 26 0
BBX 22 25 2 0
BITMAP
00FE00
07FFC0
0FFFE0
1FFFF0
3F87F8
7F01F8
7E01FC
7E00FC
FE0000
FE0000
FC0000
FC0000
FC0000
FC0000
FC0000
FE0000
FE00FC
FE00FC
7E01FC
7F01F8
3F87F8
1FFFF0
0FFFE0
07FF80
01FE00
ENDCHAR
STARTCHAR 0064
ENCODING 100
SWIDTH 610 0
DWIDTH 28 0
BBX 23 33 2 0
BITMAP
00007E
00007E
00007E
00007E
00007E
00007E
00007E
00007E
03F07E
0FFC7E
1FFE7E
3FFF7E
3F83FE
7F01FE
7E01FE
FE00FE
FE00FE
FE00FE
FE007E
FC007E
FC007E
FC007E
FE007E
FE00FE
FE00FE
FE00FE
7E01FE
7F01FE
7F87FE
3FFF7E
1FFE7E
0FFC7E
03F07E
ENDCHAR
STARTCHAR 0065
ENCODING 101
SWIDTH 567 0
DWIDTH 26 0
BBX 22 25 2 0
BITMAP
00FE00
07FF80
0FFFC0
1FFFE0
3F87F0
7F03F0
7E01F8
FE01F8
FE00F8
FC00FC
FFFFFC
FFFFFC
FFFFFC
FFFFFC
FC0000
FC0000
FE0000
FE0000
7E00FC
7F01F8
3F83F8
3FFFF0
1FFFE0
07FFC0
01FE00
ENDCHAR
STARTCHAR 0066
ENCODING 102
SWIDTH 327 0
DWIDTH 15 0
BBX 14 33 1 0
BITMAP
01FC
07FC
0FFC
0FFC
1FC0
1FC0
1FC0
1FC0
FFFC
FFFC
FFFC
FFFC
1FC0
1FC0
1FC0
1FC0
1FC0
1FC0
1FC0
1FC0
1FC0
1FC0
1FC0
1FC0
1FC0
1FC0
1FC0
1FC0
1FC0
1FC0
1FC0
1FC0
1FC0
ENDCHAR
STARTCHAR 0067
ENCODING 103
SWIDTH 610 0
DWIDTH 28 0
BBX 23 35 2 -10
BITMAP
03F07E
0FFC7E
1FFE7E
3FFF7E
3F83FE
7F01FE
7F01FE
FE00FE
FE00FE
FE00FE
FE007E
FC007E
FC007E
FC007E
FE007E
FE00FE
FE00FE
FE00FE
7F01FE
7F01FE
7F83FE
3FFF7E
1FFE7E
0FFC7E
03F07E
00007E
0000FE
0000FE
1E00FC
7F01FC
7F83F8
3FFFF8
1FFFF0
0FFFC0
01FF00
ENDCHAR
STARTCHAR 0068
ENCODING 104
SWIDTH 610 0
DWIDTH 28 0
BBX 22 33 3 0
BITMAP
FE0000
FE0000
FE0000
FE0000
FE0000
FE0000
FE0000
FE0000
FE1F80
FE7FE0
FCFFF0
FDFFF8
FDFFF8
FFC3FC
FF01FC
FF01FC
FE00FC
FE00FC
FE00FC
FE00FC
FE00FC
FE00FC
FE00FC
FE00FC
FE00FC
FE00FC
FE00FC
FE00FC
FE00FC
FE00FC
FE00FC
FE00FC
FE00FC
ENDCHAR
STARTCHAR 0069
ENCODING 105
SWIDTH 283 0
DWIDTH 13 0
BBX 7 33 3 0
BITMAP
FE
FE
FE
FE
FE
00
00
00
FE
FE
FE
FE
FE
FE
FE
FE
FE
FE
FE
FE
FE
FE
FE
FE
FE
FE
FE
FE
FE
FE
FE
FE
FE
ENDCHAR
STARTCHAR 006A
ENCODING 106
SWIDTH 283 0
DWIDTH 13 0
BBX 11 43 -1 -10
BITMAP
0FE0
0FE0
0FE0
0FE0
0FE0
0000
0000
0000
0FE0
0FE0
0FE0
0FE0
0FE0
0FE0
0FE0
0FE0
0FE0
0FE0
0FE0
0FE0
0FE0
0FE0
0FE0
0FE0
0FE0
0FE0
0FE0
0FE0
0FE0
0FE0
0FE0
0FE0
0FE0
0FE0
0FE0
0FE0
0FE0
1FC0
FFC0
FFC0
FF80
FF80
FE00
ENDCHAR
STARTCHAR 006B
ENCODING 107
SWIDTH 567 0
DWIDTH 26 0
BBX 22 33 3 0
BITMAP
FE0000
FE0000
FE0000
FE0000
FE0000
FE0000
FE0000
FE0000
FE01FC
FE03F8
FE07F0
FE0FE0
FE1FC0
FE3F80
FE3F00
FE7E00
FEFC00
FFFC00
FFFC00
FFFE00
FFFE00
FFFF00
FF3F00
FE3F80
FE1FC0
FE0FC0
FE0FE0
FE07E0
FE07F0
FE03F8
FE03F8
FE01FC
FE01FC
ENDCHAR
STARTCHAR 006C
ENCODING 108
SWIDTH 283 0
DWIDTH 13 0
BBX 7 33 3 0
BITMAP
FE
FE
FE
FE
FE
FE
FE
FE
FE
FE
FE
FE
FE
FE
FE
FE
FE
FE
FE
FE
FE
FE
FE
FE
FE
FE
FE
FE
FE
FE
FE
FE
FE
ENDCHAR
STARTCHAR 006D
ENCODING 109
SWIDTH 894 0
DWIDTH 41 0
BBX 35 25 3 0
BITMAP
FC1F007E00
FC7FC1FF00
FCFFE3FF80
FDFFF7FFC0
FDFFF7FFC0
FF87FE1FE0
FF03FC0FE0
FE03FC0FE0
FE03F807E0
FE03F807E0
FE03F807E0
FE01F807E0
FE01F807E0
FE01F807E0
FE01F807E0
FE01F807E0
FE01F807E0
FE01F807E0
FE01F807E0
FE01F807E0
FE01F807E0
FE01F807E0
FE01F807E0
FE01F807E0
FE01F807E0
ENDCHAR
STARTCHAR 006E
ENCODING 110
SWIDTH 610 0
DWIDTH 28 0
BBX 22 25 3 0
BITMAP
FC1F80
FC7FE0
FCFFF0
FDFFF8
FDFFF8
FFC3FC
FF01FC
FF01FC
FE00FC
FE00FC
FE00FC
FE00FC
FE00FC
FE00FC
FE00FC
FE00FC
FE00FC
FE00FC
FE00FC
FE00FC
FE00FC
FE00FC
FE00FC
FE00FC
FE00FC
ENDCHAR
STARTCHAR 006F
ENCODING 111
SWIDTH 610 0
DWIDTH 28 0
BBX 24 25 2 0
BITMAP
00FF00
07FFE0
0FFFF0
1FFFF8
3FC1FC
7F00FE
7F007E
7E007F
FE007F
FE007F
FE003F
FC003F
FC003F
FC003F
FE003F
FE007F
FE007F
7E007F
7F00FE
7F00FE
3FC3FC
1FFFF8
0FFFF0
07FFE0
00FF00
ENDCHAR
STARTCHAR 0070
ENCODING 112
SWIDTH 610 0
DWIDTH 28 0
BBX 23 35 3 -10
BITMAP
FC1F80
FC7FE0
FCFFF0
FDFFF8
FFC3FC
FF01FC
FF00FC
FE00FE
FE00FE
FE00FE
FE007E
FC007E
FC007E
FC007E
FE007E
FE00FE
FE00FE
FE00FE
FF00FC
FF01FC
FFC3FC
FDFFF8
FCFFF0
FC7FE0
FE1F80
FE0000
FE0000
FE0000
FE0000
FE0000
FE0000
FE0000
FE0000
FE0000
FE0000
ENDCHAR
STARTCHAR 0071
ENCODING 113
SWIDTH 610 0
DWIDTH 28 0
BBX 23 35 2 -10
BITMAP
03F07E
0FFC7E
1FFE7E
3FFF7E
3F83FE
7F01FE
7F00FE
FE00FE
FE00FE
FE00FE
FE007E
FC007E
FC007E
FC007E
FE007E
FE00FE
FE00FE
FE00FE
7F01FE
7F01FE
7F83FE
3FFF7E
1FFE7E
0FFC7E
03F07E
00007E
00007E
00007E
00007E
00007E
00007E
00007E
00007E
00007E
00007E
ENDCHAR
STARTCHAR 0072
ENCODING 114
SWIDTH 392 0
DWIDTH 18 0
BBX 14 25 3 0
BITMAP
FC3C
FCFC
FCFC
FDFC
FDFC
FF80
FF00
FF00
FE00
FE00
FE00
FE00
FE00
FE00
FE00
FE00
FE00
FE00
FE00
FE00
FE00
FE00
FE00
FE00
FE00
ENDCHAR
STARTCHAR 0073
ENCODING 115
SWIDTH 567 0
DWIDTH 26 0
BBX 22 25 2 0
BITMAP
03FE00
0FFFC0
1FFFE0
3FFFF0
7F03F0
7E01F8
7C01F0
7E0000
7F0000
7FE000
7FFE00
3FFFC0
1FFFE0
07FFF0
007FF8
0007F8
0001FC
0000FC
3800FC
FC00F8
FE03F8
7FFFF0
3FFFE0
1FFFC0
03FE00
ENDCHAR
STARTCHAR 0074
ENCODING 116
SWIDTH 327 0
DWIDTH 15 0
BBX 14 31 1 0
BITMAP
0780
0F80
0F80
0F80
1F80
1F80
FFF8
FFF8
FFF8
FFF8
1F80
1F80
1F80
1F80
1F80
1F80
1F80
1F80
1F80
1F80
1F80
1F80
1F80
1F80
1F80
1F80
1FC0
1FFC
1FFC
0FFC
03F8
ENDCHAR
STARTCHAR 0075
ENCODING 117
SWIDTH 610 0
DWIDTH 28 0
BBX 22 25 3 0
BITMAP
FC00FC
FC00FC
FC00FC
FC00FC
FC00FC
FC00FC
FC00FC
FC00FC
FC00FC
FC00FC
FC00FC
FC00FC
FC00FC
FC00FC
FC01FC
FC01FC
FC01FC
FE03FC
FE03FC
FF07FC
7FFEFC
7FFEFC
3FFCFC
1FF8FC
07E0FC
ENDCHAR
STARTCHAR 0076
ENCODING 118
SWIDTH 567 0
DWIDTH 26 0
BBX 25 25 0 0
BITMAP
FE001F80
7E003F80
7F003F80
7F003F00
3F007F00
3F007E00
3F807E00
1F80FE00
1F80FC00
1FC0FC00
0FC0FC00
0FC1F800
07E1F800
07E1F800
07E3F000
03E3F000
03F3E000
03F7E000
01F7E000
01FFC000
01FFC000
00FFC000
00FF8000
00FF8000
007F8000
ENDCHAR
STARTCHAR 0077
ENCODING 119
SWIDTH 785 0
DWIDTH 36 0
BBX 36 25 0 0
BITMAP
FC03F803F0
FC03FC03F0
FC03FC07E0
7E03FC07E0
7E07FC07E0
7E07FE07C0
7E07FE07C0
3E07BE0FC0
3F0F9E0FC0
3F0F9F0F80
1F0F9F0F80
1F0F1F0F80
1F1F0F1F80
1F9F0F9F00
0F9F0F9F00
0F9E0F9F00
0FBE07BF00
0FBE07BE00
07FE07FE00
07FC07FE00
07FC03FE00
07FC03FC00
03F803FC00
03F803FC00
03F801FC00
ENDCHAR
STARTCHAR 0078
ENCODING 120
SWIDTH 567 0
DWIDTH 26 0
BBX 24 25 1 0
BITMAP
FE007E
7E00FE
7F01FC
3F81F8
1F83F8
1FC3F0
0FC7E0
07EFE0
03FFC0
03FF80
01FF80
00FF00
00FE00
01FF00
01FF80
03FF80
07FFC0
07E7E0
0FC7F0
1FC3F0
3F83F8
3F01FC
7F00FC
FE00FE
FC007F
ENDCHAR
STARTCHAR 0079
ENCODING 121
SWIDTH 567 0
DWIDTH 26 0
BBX 24 35 1 -10
BITMAP
FC003F
FE007F
FE007E
7E007E
7E00FE
3F00FC
3F00FC
3F00FC
1F81F8
1F81F8
1F81F8
0FC3F0
0FC3F0
07C3E0
07E3E0
07E7E0
03E7C0
03F7C0
01FFC0
01FF80
01FF80
00FF80
00FF00
007F00
007E00
007E00
00FE00
00FC00
01FC00
03F800
7FF800
7FF000
7FE000
7FC000
7F0000
ENDCHAR
STARTCHAR 007A
ENCODING 122
SWIDTH 501 0
DWIDTH 23 0
BBX 20 25 2 0
BITMAP
FFFFE0
FFFFE0
FFFFE0
FFFFE0
FFFFE0
001FC0
003F80
003F80
007F00
00FE00
01FC00
03F800
03F800
07F000
0FE000
1FC000
3F8000
3F8000
7F0000
FE0000
FFFFF0
FFFFF0
FFFFF0
FFFFF0
FFFFF0
ENDCHAR
STARTCHAR 007B
ENCODING 123
SWIDTH 392 0
DWIDTH 18 0
BBX 16 43 1 -10
BITMAP
007F
01FF
03FF
07FF
07F0
07E0
07E0
07E0
07E0
07E0
07E0
07E0
07E0
07E0
07E0
07E0
0FE0
0FC0
3FC0
FF80
FE00
FE00
FF80
3FC0
0FC0
0FE0
07E0
07E0
07E0
07E0
07E0
07E0
07E0
07E0
07E0
07E0
07E0
07E0
07F0
03FF
03FF
01FF
007F
ENDCHAR
STARTCHAR 007C
ENCODING 124
SWIDTH 283 0
DWIDTH 13 0
BBX 5 43 4 -10
BITMAP
F8
F8
F8
F8
F8
F8
F8
F8
F8
F8
F8
F8
F8
F8
F8
F8
F8
F8
F8
F8
F8
F8
F8
F8
F8
F8
F8
F8
F8
F8
F8
F8
F8
F8
F8
F8
F8
F8
F8
F8
F8
F8
F8
ENDCHAR
STARTCHAR 007D
ENCODING 125
SWIDTH 392 0
DWIDTH 18 0
BBX 16 43 1 -10
BITMAP
FE00
FF80
FFC0
FFC0
1FE0
0FE0
07E0
07E0
07E0
07E0
07E0
07E0
07E0
07E0
07E0
07E0
07E0
03F0
03FC
01FF
00FF
00FF
01FF
03FC
03F0
07F0
07E0
07E0
07E0
07E0
07E0
07E0
07E0
07E0
07E0
07E0
07E0
0FE0
1FE0
FFC0
FFC0
FF80
FE00
ENDCHAR
STARTCHAR 007E
ENCODING 126
SWIDTH 589 0
DWIDTH 27 0
BBX 23 7 2 12
BITMAP
3FC000
FFFC06
FFFFFE
FFFFFE
FFFFFE
C07FFE
0007F8
ENDCHAR
STARTCHAR 00A0
ENCODING 160
SWIDTH 283 0
DWIDTH 13 0
BBX 0 0 0 0
BITMAP
ENDCHAR
STARTCHAR 00A1
ENCODING 161
SWIDTH 327 0
DWIDTH 15 0
BBX 7 32 4 -7
BITMAP
FE
FE
FE
FE
FE
FE
00
00
00
00
7C
7C
7C
7C
7C
7C
7C
7C
7E
7E
7E
7E
7E
7E
7E
7E
7E
FE
FE
FE
FE
FE
ENDCHAR
STARTCHAR 00A2
ENCODING 162
SWIDTH 567 0
DWIDTH 26 0
BBX 23 32 1 0
BITMAP
003C00
003C00
003C00
003C00
00FF00
03FFE0
0FFFF0
1FFFF8
3FFFFC
3FBCFC
7F3CFE
7E3C7E
7E3C00
FE3C00
FE3C00
FE3C00
FE3C00
FE3C00
FE3C00
FE3C7C
7E3C7E
7E3CFE
7F3CFE
3FBFFC
1FFFF8
0FFFF0
07FFE0
01FF80
003C00
003C00
003C00
003C00
ENDCHAR
STARTCHAR 00A3
ENCODING 163
SWIDTH 567 0
DWIDTH 26 0
BBX 25 32 0 0
BITMAP
003FC000
00FFF000
01FFF800
03FFFC00
07F0FC00
07E07E00
07E07E00
07C03000
0FC00000
0FC00000
0FC00000
0FC00000
0FC00000
0FC00000
FFFF8000
FFFF8000
FFFF8000
FFFF8000
07C00000
07C00000
07C00000
07C00000
0FC00000
0FC00E00
0F801F80
1F001F80
3E007F00
7FFFFF00
7FFFFE00
7FFFFC00
7FFFF800
7FFFE000
ENDCHAR
STARTCHAR 00A4
ENCODING 164
SWIDTH 567 0
DWIDTH 26 0
BBX 23 24 1 3
BITMAP
100010
380038
7C7E7C
7FFFFE
7FFFFC
3FFFFC
1FFFF8
1FC3F8
1F01F8
3F00F8
3E00F8
3E00FC
3E00FC
3E00F8
3F00F8
1F01F8
1FC3F8
1FFFF8
3FFFFC
7FFFFE
FFFFFE
7C7E3C
380038
100010
ENDCHAR
STARTCHAR 00A5
ENCODING 165
SWIDTH 567 0
DWIDTH 26 0
BBX 25 32 0 0
BITMAP
FE001F80
7E003F80
7F003F00
3F007F00
3F807E00
1F80FE00
0FC0FC00
0FC1FC00
07E1F800
07E3F800
03E3F000
03F3F000
01F7E000
01FFE000
00FFC000
00FF8000
3FFFFE00
3FFFFE00
3FFFFE00
003F0000
003F0000
003F0000
003F0000
3FFFFE00
3FFFFE00
3FFFFE00
003F0000
003F0000
003F0000
003F0000
003F0000
003F0000
ENDCHAR
STARTCHAR 00A6
ENCODING 166
SWIDTH 283 0
DWIDTH 13 0
BBX 5 43 4 -10
BITMAP
F8
F8
F8
F8
F8
F8
F8
F8
F8
F8
F8
F8
F8
F8
F8
F8
F8
F8
00
00
00
00
00
00
00
F8
F8
F8
F8
F8
F8
F8
F8
F8
F8
F8
F8
F8
F8
F8
F8
F8
F8
ENDCHAR
STARTCHAR 00A7
ENCODING 167
SWIDTH 567 0
DWIDTH 26 0
BBX 23 37 1 -5
BITMAP
01FF00
07FFE0
1FFFF0
1FFFF8
3F81FC
3E00FC
3E0078
3E0000
3F0000
3FC000
1FF800
0FFF80
07FFE0
0FFFF8
1FFFFC
3F01FC
7E007E
7E007E
7E007E
7E007C
7F807C
3FF3F8
1FFFF0
0FFFE0
03FFF0
003FF8
0003FC
0000FC
00007C
00007C
3C007C
FC007C
7F01FC
7FFFF8
3FFFF0
0FFFE0
01FF00
ENDCHAR
STARTCHAR 00A8
ENCODING 168
SWIDTH 327 0
DWIDTH 15 0
BBX 15 5 0 28
BITMAP
F83E
F83E
F83E
F83E
F83E
ENDCHAR
STARTCHAR 00A9
ENCODING 169
SWIDTH 741 0
DWIDTH 34 0
BBX 32 32 1 0
BITMAP
000FF000
007FFE00
01FFFF80
03F00FC0
07C003E0
0F0000F0
1E000078
3C07E03C
383FF81C
707FFC0E
70FC3E0E
E0F00F07
E0F00C07
E1F00007
C1E00003
C1E00003
C1E00003
C1E00003
E1F00007
E0F00F07
E0F80F07
707C3E0E
707FFC0E
381FF81C
3C07E03C
1E000078
0F0000F0
07C003E0
03F00FC0
01FFFF80
007FFE00
000FF000
ENDCHAR
STARTCHAR 00AA
ENCODING 170
SWIDTH 370 0
DWIDTH 17 0
BBX 16 16 1 16
BITMAP
0FC0
3FF0
7FF8
7C78
783C
003C
1FFC
7FFC
783C
F03C
F07C
F07C
F8FC
FFBF
7FBF
3E1F
ENDCHAR
STARTCHAR 00AB
ENCODING 171
SWIDTH 567 0
DWIDTH 26 0
BBX 22 17 2 4
BITMAP
07E0F8
07E1F8
0FC3F0
1F87E0
3F07E0
3F0FC0
7E1F80
FC1F80
F83F00
FC1F80
7E1F80
3F0FC0
3F07E0
1F83E0
0FC3F0
07E1F8
07E0FC
ENDCHAR
STARTCHAR 00AC
ENCODING 172
SWIDTH 589 0
DWIDTH 27 0
BBX 23 14 2 4
BITMAP
FFFFFE
FFFFFE
FFFFFE
FFFFFE
FFFFFE
00003E
00003E
00003E
00003E
00003E
00003E
00003E
00003E
00003E
ENDCHAR
STARTCHAR 00AD
ENCODING 173
SWIDTH 327 0
DWIDTH 15 0
BBX 11 5 2 10
BITMAP
FFE0
FFE0
FFE0
FFE0
FFE0
ENDCHAR
STARTCHAR 00AE
ENCODING 174
SWIDTH 741 0
DWIDTH 34 0
BBX 32 32 1 0
BITMAP
000FF000
007FFE00
01FFFF80
03F00FC0
07C003E0
0F0000F0
1E000078
3C7FF03C
387FFC1C
707FFE0E
70783E0E
E0781E07
E0781E07
E0781E07
C0783E03
C07FFC03
C07FF803
C07FE003
E078F007
E0787807
E0787807
70783C0E
70783E0E
38781E1C
3C781F3C
1E000078
0F0000F0
07C003E0
03F00FC0
01FFFF80
007FFE00
000FF000
ENDCHAR
STARTCHAR 00AF
ENCODING 175
SWIDTH 545 0
DWIDTH 25 0
BBX 26 2 0 33
BITMAP
FFFFFFC0
FFFFFFC0
ENDCHAR
STARTCHAR 00B0
ENCODING 176
SWIDTH 392 0
DWIDTH 18 0
BBX 14 14 2 18
BITMAP
0FC0
1FF0
3FF8
7878
F03C
F01C
F01C
F01C
F01C
F03C
7878
3FF8
1FF0
07C0
ENDCHAR
STARTCHAR 00B1
ENCODING 177
SWIDTH 545 0
DWIDTH 25 0
BBX 23 29 1 0
BITMAP
007C00
007C00
007C00
007C00
007C00
007C00
007C00
007C00
FFFFFE
FFFFFE
FFFFFE
FFFFFE
FFFFFE
007C00
007C00
007C00
007C00
007C00
007C00
007C00
007C00
000000
000000
000000
FFFFFE
FFFFFE
FFFFFE
FFFFFE
FFFFFE
ENDCHAR
STARTCHAR 00B2
ENCODING 178
SWIDTH 327 0
DWIDTH 15 0
BBX 13 16 1 16
BITMAP
0FC0
3FF0
7FF8
78F8
F878
00F8
00F8
01F0
07E0
0FC0
3F00
7E00
7C00
FFF8
FFF8
FFF8
ENDCHAR
STARTCHAR 00B3
ENCODING 179
SWIDTH 327 0
DWIDTH 15 0
BBX 13 16 1 16
BITMAP
0FC0
3FF0
7FF8
78F8
F878
00F8
07F0
07C0
07F0
00F8
0078
F078
F8F8
7FF8
3FF0
1FC0
ENDCHAR
STARTCHAR 00B4
ENCODING 180
SWIDTH 327 0
DWIDTH 15 0
BBX 11 7 2 27
BITMAP
07E0
0FE0
1F80
3F00
3E00
7C00
F000
ENDCHAR
STARTCHAR 00B5
ENCODING 181
SWIDTH 589 0
DWIDTH 27 0
BBX 21 35 3 -10
BITMAP
FC03F8
FC03F8
FC03F8
FC03F8
FC03F8
FC03F8
FC03F8
FC03F8
FC03F8
FC03F8
FC03F8
FC03F8
FC03F8
FC03F8
FC03F8
FC03F8
FE03F8
FE03F8
FE07F8
FF0FF8
FFFFF8
FFFFF8
FFFFF8
FDF9F8
FCF1F8
FC0000
FC0000
FC0000
FC0000
FC0000
FC0000
FC0000
FC0000
FC0000
FC0000
ENDCHAR
STARTCHAR 00B6
ENCODING 182
SWIDTH 567 0
DWIDTH 26 0
BBX 22 38 2 -6
BITMAP
07FFFC
1FFFFC
7FFFFC
7FE0E0
FFE0E0
FFE0E0
FFE0E0
FFE0E0
FFE0E0
FFE0E0
FFE0E0
FFE0E0
7FE0E0
7FE0E0
3FE0E0
0FE0E0
00E0E0
00E0E0
00E0E0
00E0E0
00E0E0
00E0E0
00E0E0
00E0E0
00E0E0
00E0E0
00E0E0
00E0E0
00E0E0
00E0E0
00E0E0
00E0E0
00E0E0
00E0E0
00E0E0
00E0E0
00E0E0
00E0E0
ENDCHAR
STARTCHAR 00B7
ENCODING 183
SWIDTH 283 0
DWIDTH 13 0
BBX 7 7 3 12
BITMAP
FE
FE
FE
FE
FE
FE
FE
ENDCHAR
STARTCHAR 00B8
ENCODING 184
SWIDTH 327 0
DWIDTH 15 0
BBX 9 10 2 -10
BITMAP
3C00
3800
3E00
7F80
0780
0780
0780
FF80
FF00
FC00
ENDCHAR
STARTCHAR 00B9
ENCODING 185
SWIDTH 327 0
DWIDTH 15 0
BBX 12 16 2 16
BITMAP
1F00
7F00
FF00
EF00
8F00
0F00
0F00
0F00
0F00
0F00
0F00
0F00
0F00
FFF0
FFF0
FFF0
ENDCHAR
STARTCHAR 00BA
ENCODING 186
SWIDTH 370 0
DWIDTH 17 0
BBX 15 16 1 16
BITMAP
07E0
1FF0
3FF8
7C7C
783C
F83E
F83E
F03E
F03E
F83E
F83E
783C
7C7C
3FF8
1FF0
07C0
ENDCHAR
STARTCHAR 00BB
ENCODING 187
SWIDTH 567 0
DWIDTH 26 0
BBX 22 17 2 4
BITMAP
FC3F00
7E1F80
7E0FC0
3F0FC0
1F87E0
0FC3F0
0FC1F8
07E1F8
03E0FC
07E1F8
0FC1F8
0FC3F0
1F87E0
3F0FC0
7E0FC0
7E1F80
FC3F00
ENDCHAR
STARTCHAR 00BC
ENCODING 188
SWIDTH 829 0
DWIDTH 38 0
BBX 34 32 2 0
BITMAP
1F00007C00
7F00007800
FF0000F800
EF0001F000
8F0001E000
0F0003E000
0F0003C000
0F00078000
0F000F8000
0F000F0000
0F001F0000
0F003E0000
0F003C0000
FFF07C0000
FFF0780000
FFF0F00000
0001F01F00
0001E03F00
0003E07F00
0007C0EF00
000780EF00
000F81CF00
001F038F00
001E078F00
003E070F00
003C0E0F00
007C0FFFC0
00F80FFFC0
00F00FFFC0
01F0000F00
03E0000F00
03C0000F00
ENDCHAR
STARTCHAR 00BD
ENCODING 189
SWIDTH 829 0
DWIDTH 38 0
BBX 34 32 2 0
BITMAP
1F00007C00
7F00007800
FF0000F800
EF0001F000
8F0001E000
0F0003E000
0F0003C000
0F00078000
0F000F8000
0F000F0000
0F001F0000
0F003E0000
0F003C0000
FFF07C0000
FFF0780000
FFF0F00000
0001F07E00
0001E1FF80
0003E3FFC0
0007C3C7C0
000787C3C0
000F8007C0
001F0007C0
001E000F80
003E003F00
003C007E00
007C01F800
00F803F000
00F003E000
01F007FFC0
03E007FFC0
03C007FFC0
ENDCHAR
STARTCHAR 00BE
ENCODING 190
SWIDTH 829 0
DWIDTH 38 0
BBX 34 32 2 0
BITMAP
0FC0007C00
3FF0007800
7FF800F800
78F801F000
F87801E000
00F803E000
07F003C000
07C0078000
07F00F8000
00F80F0000
00781F0000
F0783E0000
F8F83C0000
7FF87C0000
3FF0780000
1FC0F00000
0001F01F00
0001E03F00
0003E07F00
0007C0EF00
000780EF00
000F81CF00
001F038F00
001E078F00
003E070F00
003C0E0F00
007C0FFFC0
00F80FFFC0
00F00FFFC0
01F0000F00
03E0000F00
03C0000F00
ENDCHAR
STARTCHAR 00BF
ENCODING 191
SWIDTH 610 0
DWIDTH 28 0
BBX 23 32 3 -7
BITMAP
007E00
007E00
007E00
007E00
007E00
007E00
000000
000000
000000
007E00
007E00
00FE00
01FC00
03F800
07F800
0FF000
3FC000
7F8000
7F0000
FE0000
FC0000
FC0000
FC00FE
FC00FE
FC00FC
FE01FC
FF07FC
7FFFF8
3FFFF0
1FFFE0
0FFFC0
01FE00
ENDCHAR
STARTCHAR 00C0
ENCODING 192
SWIDTH 720 0
DWIDTH 33 0
BBX 31 42 1 0
BITMAP
007E0000
003F0000
001F8000
000FC000
0007E000
0001F000
0000F000
00000000
00000000
00000000
001FF000
001FF000
001FF000
003FF800
003FF800
003EF800
007EFC00
007EFC00
007E7E00
00FC7E00
00FC7E00
00FC3F00
01F83F00
01F83F00
03F81F80
03F01F80
03F01F80
07F00FC0
07E00FC0
07FFFFE0
0FFFFFE0
0FFFFFE0
0FFFFFF0
1FFFFFF0
1F8003F0
3F8003F8
3F8001F8
3F0001F8
7F0001FC
7F0000FC
7E0000FC
FE0000FE
ENDCHAR
STARTCHAR 00C1
ENCODING 193
SWIDTH 720 0
DWIDTH 33 0
BBX 31 42 1 0
BITMAP
00007E00
0000FE00
0001FC00
0003F000
0003E000
0007C000
000F0000
00000000
00000000
00000000
001FF000
001FF000
001FF000
003FF800
003FF800
003EF800
007EFC00
007EFC00
007E7E00
00FC7E00
00FC7E00
00FC3F00
01F83F00
01F83F00
03F81F80
03F01F80
03F01F80
07F00FC0
07E00FC0
07FFFFE0
0FFFFFE0
0FFFFFE0
0FFFFFF0
1FFFFFF0
1F8003F0
3F8003F8
3F8001F8
3F0001F8
7F0001FC
7F0000FC
7E0000FC
FE0000FE
ENDCHAR
STARTCHAR 00C2
ENCODING 194
SWIDTH 720 0
DWIDTH 33 0
BBX 31 42 1 0
BITMAP
0007E000
000FF000
001FF800
003FF800
007C7C00
00F83E00
01F00F00
00000000
00000000
00000000
001FF000
001FF000
001FF000
003FF800
003FF800
003EF800
007EFC00
007EFC00
007E7E00
00FC7E00
00FC7E00
00FC3F00
01F83F00
01F83F00
03F81F80
03F01F80
03F01F80
07F00FC0
07E00FC0
07FFFFE0
0FFFFFE0
0FFFFFE0
0FFFFFF0
1FFFFFF0
1F8003F0
3F8003F8
3F8001F8
3F0001F8
7F0001FC
7F0000FC
7E0000FC
FE0000FE
ENDCHAR
STARTCHAR 00C3
ENCODING 195
SWIDTH 720 0
DWIDTH 33 0
BBX 31 42 1 0
BITMAP
003C0700
00FF0700
00FFCF00
01FFFF00
01E3FF00
01C1FE00
01C07C00
00000000
00000000
00000000
001FF000
001FF000
001FF000
003FF800
003FF800
003EF800
007EFC00
007EFC00
007E7E00
00FC7E00
00FC7E00
00FC3F00
01F83F00
01F83F00
03F81F80
03F01F80
03F01F80
07F00FC0
07E00FC0
07FFFFE0
0FFFFFE0
0FFFFFE0
0FFFFFF0
1FFFFFF0
1F8003F0
3F8003F8
3F8001F8
3F0001F8
7F0001FC
7F0000FC
7E0000FC
FE0000FE
ENDCHAR
STARTCHAR 00C4
ENCODING 196
SWIDTH 720 0
DWIDTH 33 0
BBX 31 40 1 0
BITMAP
00F81E00
00F81E00
00F81E00
00F81E00
00F81E00
00000000
00000000
00000000
001FF000
001FF000
001FF000
003FF800
003FF800
003EF800
007EFC00
007EFC00
007E7E00
00FC7E00
00FC7E00
00FC3F00
01F83F00
01F83F00
03F81F80
03F01F80
03F01F80
07F00FC0
07E00FC0
07FFFFE0
0FFFFFE0
0FFFFFE0
0FFFFFF0
1FFFFFF0
1F8003F0
3F8003F8
3F8001F8
3F0001F8
7F0001FC
7F0000FC
7E0000FC
FE0000FE
ENDCHAR
STARTCHAR 00C5
ENCODING 197
SWIDTH 720 0
DWIDTH 33 0
BBX 31 40 1 0
BITMAP
0007C000
000FE000
001FF000
003C7800
00383800
00383800
00383800
003C7800
001FF000
001FF000
001FF000
003FF800
003FF800
003EF800
007EFC00
007EFC00
007E7E00
00FC7E00
00FC7E00
00FC3F00
01F83F00
01F83F00
03F81F80
03F01F80
03F01F80
07F00FC0
07E00FC0
07FFFFE0
0FFFFFE0
0FFFFFE0
0FFFFFF0
1FFFFFF0
1F8003F0
3F8003F8
3F8001F8
3F0001F8
7F0001FC
7F0000FC
7E0000FC
FE0000FE
ENDCHAR
STARTCHAR 00C6
ENCODING 198
SWIDTH 1003 0
DWIDTH 46 0
BBX 44 32 0 0
BITMAP
0000FFFFFFE0
0001FFFFFFE0
0001FFFFFFE0
0003FFFFFFE0
0003FFFFFFE0
0007E7F00000
0007E7F00000
000FC7F00000
000FC7F00000
001FC7F00000
001F87F00000
003F87F00000
003F07F00000
007F07FFFFC0
007E07FFFFC0
00FE07FFFFC0
00FC07FFFFC0
01FC07FFFFC0
01F807F00000
03FFFFF00000
03FFFFF00000
07FFFFF00000
07FFFFF00000
0FFFFFF00000
0FE007F00000
1FC007F00000
1FC007F00000
3F8007FFFFF0
3F8007FFFFF0
7F0007FFFFF0
7F0007FFFFF0
FE0007FFFFF0
ENDCHAR
STARTCHAR 00C7
ENCODING 199
SWIDTH 720 0
DWIDTH 33 0
BBX 30 42 2 -10
BITMAP
001FF000
00FFFE00
03FFFF80
07FFFFC0
0FFFFFE0
1FF01FF0
3FC007F8
3F8003F8
7F0001F8
7F0000C0
FE000000
FE000000
FE000000
FE000000
FE000000
FE000000
FE000000
FE000000
FE000000
FE000000
FE000000
7E0000C0
7F0001F0
7F0001FC
3F8003F8
3FC007F8
1FF01FF0
0FFFFFE0
07FFFFC0
03FFFF80
00FFFE00
001FF000
00078000
00070000
0007C000
000FF000
0000F000
0000F000
0000F000
001FF000
001FE000
001F8000
ENDCHAR
STARTCHAR 00C8
ENCODING 200
SWIDTH 676 0
DWIDTH 31 0
BBX 26 42 3 0
BITMAP
03F00000
01F80000
00FC0000
007E0000
003F0000
000F8000
00078000
00000000
00000000
00000000
FFFFFF80
FFFFFF80
FFFFFF80
FFFFFF80
FFFFFF80
FE000000
FE000000
FE000000
FE000000
FE000000
FE000000
FE000000
FE000000
FFFFFF00
FFFFFF00
FFFFFF00
FFFFFF00
FFFFFF00
FE000000
FE000000
FE000000
FE000000
FE000000
FE000000
FE000000
FE000000
FE000000
FFFFFFC0
FFFFFFC0
FFFFFFC0
FFFFFFC0
FFFFFFC0
ENDCHAR
STARTCHAR 00C9
ENCODING 201
SWIDTH 676 0
DWIDTH 31 0
BBX 26 42 3 0
BITMAP
0003F000
0007F000
000FE000
001F8000
001F0000
003E0000
00780000
00000000
00000000
00000000
FFFFFF80
FFFFFF80
FFFFFF80
FFFFFF80
FFFFFF80
FE000000
FE000000
FE000000
FE000000
FE000000
FE000000
FE000000
FE000000
FFFFFF00
FFFFFF00
FFFFFF00
FFFFFF00
FFFFFF00
FE000000
FE000000
FE000000
FE000000
FE000000
FE000000
FE000000
FE000000
FE000000
FFFFFFC0
FFFFFFC0
FFFFFFC0
FFFFFFC0
FFFFFFC0
ENDCHAR
STARTCHAR 00CA
ENCODING 202
SWIDTH 676 0
DWIDTH 31 0
BBX 26 42 3 0
BITMAP
003F0000
007F8000
00FFC000
01FFC000
03E3E000
07C1F000
0F807800
00000000
00000000
00000000
FFFFFF80
FFFFFF80
FFFFFF80
FFFFFF80
FFFFFF80
FE000000
FE000000
FE000000
FE000000
FE000000
FE000000
FE000000
FE000000
FFFFFF00
FFFFFF00
FFFFFF00
FFFFFF00
FFFFFF00
FE000000
FE000000
FE000000
FE000000
FE000000
FE000000
FE000000
FE000000
FE000000
FFFFFFC0
FFFFFFC0
FFFFFFC0
FFFFFFC0
FFFFFFC0
ENDCHAR
STARTCHAR 00CB
ENCODING 203
SWIDTH 676 0
DWIDTH 31 0
BBX 26 40 3 0
BITMAP
07C0F000
07C0F000
07C0F000
07C0F000
07C0F000
00000000
00000000
00000000
FFFFFF80
FFFFFF80
FFFFFF80
FFFFFF80
FFFFFF80
FE000000
FE000000
FE000000
FE000000
FE000000
FE000000
FE000000
FE000000
FFFFFF00
FFFFFF00
FFFFFF00
FFFFFF00
FFFFFF00
FE000000
FE000000
FE000000
FE000000
FE000000
FE000000
FE000000
FE000000
FE000000
FFFFFFC0
FFFFFFC0
FFFFFFC0
FFFFFFC0
FFFFFFC0
ENDCHAR
STARTCHAR 00CC
ENCODING 204
SWIDTH 283 0
DWIDTH 13 0
BBX 11 42 -1 0
BITMAP
FC00
7E00
3F00
1F80
0FC0
03E0
01E0
0000
0000
0000
0FE0
0FE0
0FE0
0FE0
0FE0
0FE0
0FE0
0FE0
0FE0
0FE0
0FE0
0FE0
0FE0
0FE0
0FE0
0FE0
0FE0
0FE0
0FE0
0FE0
0FE0
0FE0
0FE0
0FE0
0FE0
0FE0
0FE0
0FE0
0FE0
0FE0
0FE0
0FE0
ENDCHAR
STARTCHAR 00CD
ENCODING 205
SWIDTH 283 0
DWIDTH 13 0
BBX 11 42 2 0
BITMAP
07E0
0FE0
1FC0
3F00
3E00
7C00
F000
0000
0000
0000
7F00
7F00
7F00
7F00
7F00
7F00
7F00
7F00
7F00
7F00
7F00
7F00
7F00
7F00
7F00
7F00
7F00
7F00
7F00
7F00
7F00
7F00
7F00
7F00
7F00
7F00
7F00
7F00
7F00
7F00
7F00
7F00
ENDCHAR
STARTCHAR 00CE
ENCODING 206
SWIDTH 283 0
DWIDTH 13 0
BBX 17 42 -2 0
BITMAP
03F000
07F800
0FFC00
1FFC00
3E3E00
7C1F00
F80780
000000
000000
000000
07F000
07F000
07F000
07F000
07F000
07F000
07F000
07F000
07F000
07F000
07F000
07F000
07F000
07F000
07F000
07F000
07F000
07F000
07F000
07F000
07F000
07F000
07F000
07F000
07F000
07F000
07F000
07F000
07F000
07F000
07F000
07F000
ENDCHAR
STARTCHAR 00CF
ENCODING 207
SWIDTH 283 0
DWIDTH 13 0
BBX 15 40 -1 0
BITMAP
F81E
F81E
F81E
F81E
F81E
0000
0000
0000
0FE0
0FE0
0FE0
0FE0
0FE0
0FE0
0FE0
0FE0
0FE0
0FE0
0FE0
0FE0
0FE0
0FE0
0FE0
0FE0
0FE0
0FE0
0FE0
0FE0
0FE0
0FE0
0FE0
0FE0
0FE0
0FE0
0FE0
0FE0
0FE0
0FE0
0FE0
0FE0
ENDCHAR
STARTCHAR 00D0
ENCODING 208
SWIDTH 720 0
DWIDTH 33 0
BBX 31 32 0 0
BITMAP
1FFFF000
1FFFFE00
1FFFFF80
1FFFFFC0
1FFFFFE0
1FC03FF0
1FC00FF8
1FC003F8
1FC001FC
1FC001FC
1FC000FE
1FC000FE
1FC000FE
FFFFC0FE
FFFFC07E
FFFFC07E
FFFFC07E
FFFFC07E
1FC000FE
1FC000FE
1FC000FE
1FC000FE
1FC001FC
1FC003FC
1FC003F8
1FC00FF8
1FC03FF0
1FFFFFE0
1FFFFFC0
1FFFFF80
1FFFFE00
1FFFF000
ENDCHAR
STARTCHAR 00D1
ENCODING 209
SWIDTH 720 0
DWIDTH 33 0
BBX 27 42 3 0
BITMAP
00F01C00
03FC1C00
03FF3C00
07FFFC00
078FFC00
0707F800
0701F000
00000000
00000000
00000000
FF0007E0
FF0007E0
FF8007E0
FFC007E0
FFC007E0
FFE007E0
FFE007E0
FFF007E0
FFF007E0
FDF807E0
FDFC07E0
FCFC07E0
FC7E07E0
FC7E07E0
FC3F07E0
FC3F07E0
FC1F87E0
FC1F87E0
FC0FC7E0
FC0FE7E0
FC07E7E0
FC03F7E0
FC03F7E0
FC01FFE0
FC01FBE0
FC00FFE0
FC00FFE0
FC007FE0
FC007FE0
FC003FE0
FC001FE0
FC001FE0
ENDCHAR
STARTCHAR 00D2
ENCODING 210
SWIDTH 785 0
DWIDTH 36 0
BBX 32 42 2 0
BITMAP
003F0000
001F8000
000FC000
0007E000
0003F000
0000F800
00007800
00000000
00000000
00000000
001FF000
00FFFF00
03FFFF80
07FFFFE0
0FFFFFF0
1FF81FF8
3FE007F8
3F8003FC
7F8001FC
7F0000FE
7E0000FE
FE00007E
FE00007F
FE00007F
FE00007F
FE00007F
FE00007F
FE00007F
FE00007F
FE00007F
FE0000FE
7F0000FE
7F0000FE
7F8001FC
3F8003FC
3FE007F8
1FF81FF8
0FFFFFF0
07FFFFE0
03FFFF80
00FFFE00
001FF000
ENDCHAR
STARTCHAR 00D3
ENCODING 211
SWIDTH 785 0
DWIDTH 36 0
BBX 32 42 2 0
BITMAP
00007E00
0000FE00
0001FC00
0003F000
0003E000
0007C000
000F0000
00000000
00000000
00000000
001FF000
00FFFF00
03FFFF80
07FFFFE0
0FFFFFF0
1FF81FF8
3FE007F8
3F8003FC
7F8001FC
7F0000FE
7E0000FE
FE00007E
FE00007F
FE00007F
FE00007F
FE00007F
FE00007F
FE00007F
FE00007F
FE00007F
FE0000FE
7F0000FE
7F0000FE
7F8001FC
3F8003FC
3FE007F8
1FF81FF8
0FFFFFF0
07FFFFE0
03FFFF80
00FFFE00
001FF000
ENDCHAR
STARTCHAR 00D4
ENCODING 212
SWIDTH 785 0
DWIDTH 36 0
BBX 32 42 2 0
BITMAP
0007E000
000FF000
001FF800
003FF800
007C7C00
00F83E00
01F00F00
00000000
00000000
00000000
001FF000
00FFFF00
03FFFF80
07FFFFE0
0FFFFFF0
1FF81FF8
3FE007F8
3F8003FC
7F8001FC
7F0000FE
7E0000FE
FE00007E
FE00007F
FE00007F
FE00007F
FE00007F
FE00007F
FE00007F
FE00007F
FE00007F
FE0000FE
7F0000FE
7F0000FE
7F8001FC
3F8003FC
3FE007F8
1FF81FF8
0FFFFFF0
07FFFFE0
03FFFF80
00FFFE00
001FF000
ENDCHAR
STARTCHAR 00D5
ENCODING 213
SWIDTH 785 0
DWIDTH 36 0
BBX 32 42 2 0
BITMAP
003C0700
00FF0700
00FFCF00
01FFFF00
01E3FF00
01C1FE00
01C07C00
00000000
00000000
00000000
001FF000
00FFFF00
03FFFF80
07FFFFE0
0FFFFFF0
1FF81FF8
3FE007F8
3F8003FC
7F8001FC
7F0000FE
7E0000FE
FE00007E
FE00007F
FE00007F
FE00007F
FE00007F
FE00007F
FE00007F
FE00007F
FE00007F
FE0000FE
7F0000FE
7F0000FE
7F8001FC
3F8003FC
3FE007F8
1FF81FF8
0FFFFFF0
07FFFFE0
03FFFF80
00FFFE00
001FF000
ENDCHAR
STARTCHAR 00D6
ENCODING 214
SWIDTH 785 0
DWIDTH 36 0
BBX 32 40 2 0
BITMAP
00F81E00
00F81E00
00F81E00
00F81E00
00F81E00
00000000
00000000
00000000
001FF000
00FFFF00
03FFFF80
07FFFFE0
0FFFFFF0
1FF81FF8
3FE007F8
3F8003FC
7F8001FC
7F0000FE
7E0000FE
FE00007E
FE00007F
FE00007F
FE00007F
FE00007F
FE00007F
FE00007F
FE00007F
FE00007F
FE0000FE
7F0000FE
7F0000FE
7F8001FC
3F8003FC
3FE007F8
1FF81FF8
0FFFFFF0
07FFFFE0
03FFFF80
00FFFE00
001FF000
ENDCHAR
STARTCHAR 00D7
ENCODING 215
SWIDTH 589 0
DWIDTH 27 0
BBX 23 23 2 4
BITMAP
100010
380038
7C007C
FE00FE
7F01FC
3F83F8
1FC7F0
0FEFE0
07FFC0
03FF80
01FF00
00FE00
01FF00
03FF80
07FFC0
0FEFE0
1FC7F0
3F83F8
7F01FC
FE00FE
7C007C
380038
100010
ENDCHAR
STARTCHAR 00D8
ENCODING 216
SWIDTH 785 0
DWIDTH 36 0
BBX 32 34 2 -1
BITMAP
0000007C
001FF078
00FFFEF0
03FFFFF0
07FFFFE0
0FFFFFF0
1FF81FF8
3FC00FF8
3F800FFC
7F801FFC
7F003EFE
7E007CFE
FE00787E
FE00F07F
FE01F07F
FE01E07F
FE03C07F
FE07C07F
FE0F807F
FE0F007F
FE1E007F
FE3E00FE
7F3C00FE
7F7800FE
7FF801FC
3FF003FC
3FE007F8
1FF81FF8
0FFFFFF0
07FFFFE0
0FFFFF80
1FFFFE00
3E1FF000
3C000000
ENDCHAR
STARTCHAR 00D9
ENCODING 217
SWIDTH 720 0
DWIDTH 33 0
BBX 27 42 3 0
BITMAP
03F00000
01F80000
00FC0000
007E0000
003F0000
000F8000
00078000
00000000
00000000
00000000
FC0007E0
FC0007E0
FC0007E0
FC0007E0
FC0007E0
FC0007E0
FC0007E0
FC0007E0
FC0007E0
FC0007E0
FC0007E0
FC0007E0
FC0007E0
FC0007E0
FC0007E0
FC0007E0
FC0007E0
FC0007E0
FC0007E0
FC0007E0
FC0007E0
FE0007E0
FE000FE0
FE000FE0
FF001FE0
7F803FC0
7FC0FFC0
3FFFFF80
1FFFFF00
0FFFFE00
03FFF800
007FC000
ENDCHAR
STARTCHAR 00DA
ENCODING 218
SWIDTH 720 0
DWIDTH 33 0
BBX 27 42 3 0
BITMAP
0001F800
0003F800
0007F000
000FC000
000F8000
001F0000
003C0000
00000000
00000000
00000000
FC0007E0
FC0007E0
FC0007E0
FC0007E0
FC0007E0
FC0007E0
FC0007E0
FC0007E0
FC0007E0
FC0007E0
FC0007E0
FC0007E0
FC0007E0
FC0007E0
FC0007E0
FC0007E0
FC0007E0
FC0007E0
FC0007E0
FC0007E0
FC0007E0
FE0007E0
FE000FE0
FE000FE0
FF001FE0
7F803FC0
7FC0FFC0
3FFFFF80
1FFFFF00
0FFFFE00
03FFF800
007FC000
ENDCHAR
STARTCHAR 00DB
ENCODING 219
SWIDTH 720 0
DWIDTH 33 0
BBX 27 42 3 0
BITMAP
001F8000
003FC000
007FE000
00FFE000
01F1F000
03E0F800
07C03C00
00000000
00000000
00000000
FC0007E0
FC0007E0
FC0007E0
FC0007E0
FC0007E0
FC0007E0
FC0007E0
FC0007E0
FC0007E0
FC0007E0
FC0007E0
FC0007E0
FC0007E0
FC0007E0
FC0007E0
FC0007E0
FC0007E0
FC0007E0
FC0007E0
FC0007E0
FC0007E0
FE0007E0
FE000FE0
FE000FE0
FF001FE0
7F803FC0
7FC0FFC0
3FFFFF80
1FFFFF00
0FFFFE00
03FFF800
007FC000
ENDCHAR
STARTCHAR 00DC
ENCODING 220
SWIDTH 720 0
DWIDTH 33 0
BBX 27 40 3 0
BITMAP
03E07800
03E07800
03E07800
03E07800
03E07800
00000000
00000000
00000000
FC0007E0
FC0007E0
FC0007E0
FC0007E0
FC0007E0
FC0007E0
FC0007E0
FC0007E0
FC0007E0
FC0007E0
FC0007E0
FC0007E0
FC0007E0
FC0007E0
FC0007E0
FC0007E0
FC0007E0
FC0007E0
FC0007E0
FC0007E0
FC0007E0
FE0007E0
FE000FE0
FE000FE0
FF001FE0
7F803FC0
7FC0FFC0
3FFFFF80
1FFFFF00
0FFFFE00
03FFF800
007FC000
ENDCHAR
STARTCHAR 00DD
ENCODING 221
SWIDTH 676 0
DWIDTH 31 0
BBX 29 42 1 0
BITMAP
0000FC00
0001FC00
0003F800
0007E000
0007C000
000F8000
001E0000
00000000
00000000
00000000
FE0003F8
7F0007F0
7F0007E0
3F800FE0
3F800FC0
1FC01FC0
0FC03F80
0FE03F80
07E07F00
07F07E00
03F0FE00
01F8FC00
01F9FC00
00FDF800
00FFF000
007FF000
003FE000
003FE000
001FC000
001FC000
001FC000
001FC000
001FC000
001FC000
001FC000
001FC000
001FC000
001FC000
001FC000
001FC000
001FC000
001FC000
ENDCHAR
STARTCHAR 00DE
ENCODING 222
SWIDTH 676 0
DWIDTH 31 0
BBX 26 32 3 0
BITMAP
FE000000
FE000000
FE000000
FE000000
FE000000
FFFFE000
FFFFF800
FFFFFE00
FFFFFF00
FFFFFF80
FE00FF80
FE003FC0
FE001FC0
FE001FC0
FE001FC0
FE001FC0
FE001FC0
FE001FC0
FE001FC0
FE003F80
FE00FF80
FFFFFF00
FFFFFF00
FFFFFE00
FFFFF800
FFFFE000
FE000000
FE000000
FE000000
FE000000
FE000000
FE000000
ENDCHAR
STARTCHAR 00DF
ENCODING 223
SWIDTH 610 0
DWIDTH 28 0
BBX 24 33 3 0
BITMAP
01FE00
07FFC0
1FFFE0
3FFFF0
3FFFF8
7F83F8
7F01F8
7E01F8
FE01F8
FE01F8
FE03F0
FE07F0
FE0FE0
FE1FC0
FE1F80
FE3F00
FE3F80
FE1FC0
FE1FE0
FE0FF8
FE07FC
FE03FC
FE01FE
FE007E
FE007F
FE003F
FE003F
FE003F
FE707E
FE7FFE
FE7FFC
FE7FF8
FE1FE0
ENDCHAR
STARTCHAR 00E0
ENCODING 224
SWIDTH 567 0
DWIDTH 26 0
BBX 25 35 1 0
BITMAP
0FE00000
07F00000
03F80000
00F80000
007C0000
003E0000
001F0000
00000000
00000000
00000000
00FF0000
07FFC000
0FFFE000
1FFFF000
3FC3F800
3F81F800
3F01F800
7F01F800
0001F800
0001F800
03FFF800
0FFFF800
3FFFF800
7FFFF800
7F81F800
7F01F800
FE01F800
FE01F800
FE03F800
FE07FC00
7F0FFC00
7FFEFF80
3FFC7F80
1FF87F80
07E01F00
ENDCHAR
STARTCHAR 00E1
ENCODING 225
SWIDTH 567 0
DWIDTH 26 0
BBX 25 35 1 0
BITMAP
000FC000
001FC000
003F0000
007E0000
007C0000
00F80000
01E00000
00000000
00000000
00000000
00FF0000
07FFC000
0FFFE000
1FFFF000
3FC3F800
3F81F800
3F01F800
7F01F800
0001F800
0001F800
03FFF800
0FFFF800
3FFFF800
7FFFF800
7F81F800
7F01F800
FE01F800
FE01F800
FE03F800
FE07FC00
7F0FFC00
7FFEFF80
3FFC7F80
1FF87F80
07E01F00
ENDCHAR
STARTCHAR 00E2
ENCODING 226
SWIDTH 567 0
DWIDTH 26 0
BBX 25 36 1 0
BITMAP
00FC0000
00FE0000
01FF0000
03FF8000
07CF8000
0F87C000
0F03E000
1E01F000
00000000
00000000
00000000
00FF0000
07FFC000
0FFFE000
1FFFF000
3FC3F800
3F81F800
3F01F800
7F01F800
0001F800
0001F800
03FFF800
0FFFF800
3FFFF800
7FFFF800
7F81F800
7F01F800
FE01F800
FE01F800
FE03F800
FE07FC00
7F0FFC00
7FFEFF80
3FFC7F80
1FF87F80
07E01F00
ENDCHAR
STARTCHAR 00E3
ENCODING 227
SWIDTH 567 0
DWIDTH 26 0
BBX 25 35 1 0
BITMAP
07C07000
0FF07000
0FF8F000
1FFFF000
1E3FE000
1C1FE000
1C078000
00000000
00000000
00000000
00FF0000
07FFC000
0FFFE000
1FFFF000
3FC3F800
3F81F800
3F01F800
7F01F800
0001F800
0001F800
03FFF800
0FFFF800
3FFFF800
7FFFF800
7F81F800
7F01F800
FE01F800
FE01F800
FE03F800
FE07FC00
7F0FFC00
7FFEFF80
3FFC7F80
1FF87F80
07E01F00
ENDCHAR
STARTCHAR 00E4
ENCODING 228
SWIDTH 567 0
DWIDTH 26 0
BBX 25 33 1 0
BITMAP
0F83E000
0F83E000
0F83E000
0F83E000
0F83E000
00000000
00000000
00000000
00FF0000
07FFC000
0FFFE000
1FFFF000
3FC3F800
3F81F800
3F01F800
7F01F800
0001F800
0001F800
03FFF800
0FFFF800
3FFFF800
7FFFF800
7F81F800
7F01F800
FE01F800
FE01F800
FE03F800
FE07FC00
7F0FFC00
7FFEFF80
3FFC7F80
1FF87F80
07E01F00
ENDCHAR
STARTCHAR 00E5
ENCODING 229
SWIDTH 567 0
DWIDTH 26 0
BBX 25 39 1 0
BITMAP
007C0000
00FE0000
01FF0000
03C78000
03838000
03838000
03838000
03C78000
01FF0000
00FF0000
007C0000
00000000
00000000
00000000
00FF0000
07FFC000
0FFFE000
1FFFF000
3FC3F800
3F81F800
3F01F800
7F01F800
0001F800
0001F800
03FFF800
0FFFF800
3FFFF800
7FFFF800
7F81F800
7F01F800
FE01F800
FE01F800
FE03F800
FE07FC00
7F0FFC00
7FFEFF80
3FFC7F80
1FF87F80
07E01F00
ENDCHAR
STARTCHAR 00E6
ENCODING 230
SWIDTH 894 0
DWIDTH 41 0
BBX 38 25 1 0
BITMAP
00FF01FE00
03FFC7FF80
0FFFFFFFC0
1FFFFFFFE0
1FC3FF87F0
3F81FF01F0
3F01FE01F8
3F00FE01F8
0000FE00F8
0000FC00FC
00FFFFFFFC
0FFFFFFFFC
1FFFFFFFFC
3FF0FFFFFC
7F00FC0000
7E00FC0000
7E01FE0000
FE01FE0000
7E01FE01FC
7E03FF01F8
7F0FBF83F8
7FFF3FFFF0
3FFE1FFFE0
1FFC07FF80
07F001FE00
ENDCHAR
STARTCHAR 00E7
ENCODING 231
SWIDTH 567 0
DWIDTH 26 0
BBX 22 35 2 -10
BITMAP
00FE00
07FFC0
0FFFE0
1FFFF0
3F87F8
7F01F8
7E01FC
7E00FC
FE0000
FE0000
FC0000
FC0000
FC0000
FC0000
FC0000
FE0000
FE00FC
FE00FC
7E01FC
7F01F8
3F87F8
1FFFF0
0FFFE0
07FF80
01FE00
007800
007000
007C00
00FF00
000F00
000F00
000F00
01FF00
01FE00
01F800
ENDCHAR
STARTCHAR 00E8
ENCODING 232
SWIDTH 567 0
DWIDTH 26 0
BBX 22 35 2 0
BITMAP
0FE000
07F000
03F800
00F800
007C00
003E00
001F00
000000
000000
000000
00FE00
07FF80
0FFFC0
1FFFE0
3F87F0
7F03F0
7E01F8
FE01F8
FE00F8
FC00FC
FFFFFC
FFFFFC
FFFFFC
FFFFFC
FC0000
FC0000
FE0000
FE0000
7E00FC
7F01F8
3F83F8
3FFFF0
1FFFE0
07FFC0
01FE00
ENDCHAR
STARTCHAR 00E9
ENCODING 233
SWIDTH 567 0
DWIDTH 26 0
BBX 22 35 2 0
BITMAP
000FC0
001FC0
003F00
007E00
007C00
00F800
01E000
000000
000000
000000
00FE00
07FF80
0FFFC0
1FFFE0
3F87F0
7F03F0
7E01F8
FE01F8
FE00F8
FC00FC
FFFFFC
FFFFFC
FFFFFC
FFFFFC
FC0000
FC0000
FE0000
FE0000
7E00FC
7F01F8
3F83F8
3FFFF0
1FFFE0
07FFC0
01FE00
ENDCHAR
STARTCHAR 00EA
ENCODING 234
SWIDTH 567 0
DWIDTH 26 0
BBX 22 36 2 0
BITMAP
00FC00
00FE00
01FF00
03FF80
07CF80
0F87C0
0F03E0
1E01F0
000000
000000
000000
00FE00
07FF80
0FFFC0
1FFFE0
3F87F0
7F03F0
7E01F8
FE01F8
FE00F8
FC00FC
FFFFFC
FFFFFC
FFFFFC
FFFFFC
FC0000
FC0000
FE0000
FE0000
7E00FC
7F01F8
3F83F8
3FFFF0
1FFFE0
07FFC0
01FE00
ENDCHAR
STARTCHAR 00EB
ENCODING 235
SWIDTH 567 0
DWIDTH 26 0
BBX 22 33 2 0
BITMAP
1F07C0
1F07C0
1F07C0
1F07C0
1F07C0
000000
000000
000000
00FE00
07FF80
0FFFC0
1FFFE0
3F87F0
7F03F0
7E01F8
FE01F8
FE00F8
FC00FC
FFFFFC
FFFFFC
FFFFFC
FFFFFC
FC0000
FC0000
FE0000
FE0000
7E00FC
7F01F8
3F83F8
3FFFF0
1FFFE0
07FFC0
01FE00
ENDCHAR
STARTCHAR 00EC
ENCODING 236
SWIDTH 283 0
DWIDTH 13 0
BBX 12 35 -2 0
BITMAP
FE00
7F00
3F80
0F80
07C0
03E0
01F0
0000
0000
0000
07F0
07F0
07F0
07F0
07F0
07F0
07F0
07F0
07F0
07F0
07F0
07F0
07F0
07F0
07F0
07F0
07F0
07F0
07F0
07F0
07F0
07F0
07F0
07F0
07F0
ENDCHAR
STARTCHAR 00ED
ENCODING 237
SWIDTH 283 0
DWIDTH 13 0
BBX 11 35 3 0
BITMAP
07E0
0FE0
1F80
3F00
3E00
7C00
F000
0000
0000
0000
FE00
FE00
FE00
FE00
FE00
FE00
FE00
FE00
FE00
FE00
FE00
FE00
FE00
FE00
FE00
FE00
FE00
FE00
FE00
FE00
FE00
FE00
FE00
FE00
FE00
ENDCHAR
STARTCHAR 00EE
ENCODING 238
SWIDTH 283 0
DWIDTH 13 0
BBX 17 36 -2 0
BITMAP
07E000
07F000
0FF800
1FFC00
3E7C00
7C3E00
781F00
F00F80
000000
000000
000000
07F000
07F000
07F000
07F000
07F000
07F000
07F000
07F000
07F000
07F000
07F000
07F000
07F000
07F000
07F000
07F000
07F000
07F000
07F000
07F000
07F000
07F000
07F000
07F000
07F000
ENDCHAR
STARTCHAR 00EF
ENCODING 239
SWIDTH 283 0
DWIDTH 13 0
BBX 15 33 -1 0
BITMAP
F83E
F83E
F83E
F83E
F83E
0000
0000
0000
0FE0
0FE0
0FE0
0FE0
0FE0
0FE0
0FE0
0FE0
0FE0
0FE0
0FE0
0FE0
0FE0
0FE0
0FE0
0FE0
0FE0
0FE0
0FE0
0FE0
0FE0
0FE0
0FE0
0FE0
0FE0
ENDCHAR
STARTCHAR 00F0
ENCODING 240
SWIDTH 610 0
DWIDTH 28 0
BBX 24 33 2 0
BITMAP
07E010
03F8F0
00FFF0
007FF0
01FFE0
03FFC0
03FFE0
03C7F0
0203F0
0001F8
0001FC
00FEFC
07FFFE
0FFFFE
3FFFFE
3FC1FF
7F00FF
7E007F
FE007F
FE007F
FC003F
FC003F
FC003F
FC003F
FE007F
FE007F
7E007E
7F00FE
3F81FC
3FFFF8
0FFFF0
07FFE0
00FF00
ENDCHAR
STARTCHAR 00F1
ENCODING 241
SWIDTH 610 0
DWIDTH 28 0
BBX 22 35 3 0
BITMAP
07C070
0FF070
0FF8F0
1FFFF0
1E3FE0
1C1FE0
1C0780
000000
000000
000000
FC1F80
FC7FE0
FCFFF0
FDFFF8
FDFFF8
FFC3FC
FF01FC
FF01FC
FE00FC
FE00FC
FE00FC
FE00FC
FE00FC
FE00FC
FE00FC
FE00FC
FE00FC
FE00FC
FE00FC
FE00FC
FE00FC
FE00FC
FE00FC
FE00FC
FE00FC
ENDCHAR
STARTCHAR 00F2
ENCODING 242
SWIDTH 610 0
DWIDTH 28 0
BBX 24 35 2 0
BITMAP
07F000
03F800
01FC00
007C00
003E00
001F00
000F80
000000
000000
000000
00FF00
07FFE0
0FFFF0
1FFFF8
3FC1FC
7F00FE
7F007E
7E007F
FE007F
FE007F
FE003F
FC003F
FC003F
FC003F
FE003F
FE007F
FE007F
7E007F
7F00FE
7F00FE
3FC3FC
1FFFF8
0FFFF0
07FFE0
00FF00
ENDCHAR
STARTCHAR 00F3
ENCODING 243
SWIDTH 610 0
DWIDTH 28 0
BBX 24 35 2 0
BITMAP
0007E0
000FE0
001F80
003F00
003E00
007C00
00F000
000000
000000
000000
00FF00
07FFE0
0FFFF0
1FFFF8
3FC1FC
7F00FE
7F007E
7E007F
FE007F
FE007F
FE003F
FC003F
FC003F
FC003F
FE003F
FE007F
FE007F
7E007F
7F00FE
7F00FE
3FC3FC
1FFFF8
0FFFF0
07FFE0
00FF00
ENDCHAR
STARTCHAR 00F4
ENCODING 244
SWIDTH 610 0
DWIDTH 28 0
BBX 24 36 2 0
BITMAP
007E00
007F00
00FF80
01FFC0
03E7C0
07C3E0
0781F0
0F00F8
000000
000000
000000
00FF00
07FFE0
0FFFF0
1FFFF8
3FC1FC
7F00FE
7F007E
7E007F
FE007F
FE007F
FE003F
FC003F
FC003F
FC003F
FE003F
FE007F
FE007F
7E007F
7F00FE
7F00FE
3FC3FC
1FFFF8
0FFFF0
07FFE0
00FF00
ENDCHAR
STARTCHAR 00F5
ENCODING 245
SWIDTH 610 0
DWIDTH 28 0
BBX 24 35 2 0
BITMAP
03E038
07F838
07FC78
0FFFF8
0F1FF0
0E0FF0
0E03C0
000000
000000
000000
00FF00
07FFE0
0FFFF0
1FFFF8
3FC1FC
7F00FE
7F007E
7E007F
FE007F
FE007F
FE003F
FC003F
FC003F
FC003F
FE003F
FE007F
FE007F
7E007F
7F00FE
7F00FE
3FC3FC
1FFFF8
0FFFF0
07FFE0
00FF00
ENDCHAR
STARTCHAR 00F6
ENCODING 246
SWIDTH 610 0
DWIDTH 28 0
BBX 24 33 2 0
BITMAP
0F83E0
0F83E0
0F83E0
0F83E0
0F83E0
000000
000000
000000
00FF00
07FFE0
0FFFF0
1FFFF8
3FC1FC
7F00FE
7F007E
7E007F
FE007F
FE007F
FE003F
FC003F
FC003F
FC003F
FE003F
FE007F
FE007F
7E007F
7F00FE
7F00FE
3FC3FC
1FFFF8
0FFFF0
07FFE0
00FF00
ENDCHAR
STARTCHAR 00F7
ENCODING 247
SWIDTH 545 0
DWIDTH 25 0
BBX 23 23 1 4
BITMAP
007C00
007C00
007C00
007C00
007C00
000000
000000
000000
000000
FFFFFE
FFFFFE
FFFFFE
FFFFFE
FFFFFE
000000
000000
000000
000000
007C00
007C00
007C00
007C00
007C00
ENDCHAR
STARTCHAR 00F8
ENCODING 248
SWIDTH 610 0
DWIDTH 28 0
BBX 28 27 0 -1
BITMAP
000000F0
003FC1E0
01FFFBC0
03FFFF80
07FFFF00
0FF07F00
1FC03F80
1FC07F80
1F80FFC0
3F81FFC0
3F81FFC0
3F83CFC0
3F078FC0
3F0F0FC0
3F1E0FC0
3FBC0FC0
3FFC1FC0
3FF81FC0
1FF01FC0
1FE03F80
1FC03F80
0FF0FF00
0FFFFE00
1FFFFC00
3DFFF800
783FC000
F0000000
ENDCHAR
STARTCHAR 00F9
ENCODING 249
SWIDTH 610 0
DWIDTH 28 0
BBX 22 34 3 0
BITMAP
1FC000
0FE000
07F000
01F000
00F800
007C00
003E00
000000
000000
FC00FC
FC00FC
FC00FC
FC00FC
FC00FC
FC00FC
FC00FC
FC00FC
FC00FC
FC00FC
FC00FC
FC00FC
FC00FC
FC00FC
FC01FC
FC01FC
FC01FC
FE03FC
FE03FC
FF07FC
7FFEFC
7FFEFC
3FFCFC
1FF8FC
07E0FC
ENDCHAR
STARTCHAR 00FA
ENCODING 250
SWIDTH 610 0
DWIDTH 28 0
BBX 22 34 3 0
BITMAP
000FC0
001FC0
003F00
007E00
007C00
00F800
01E000
000000
000000
FC00FC
FC00FC
FC00FC
FC00FC
FC00FC
FC00FC
FC00FC
FC00FC
FC00FC
FC00FC
FC00FC
FC00FC
FC00FC
FC00FC
FC01FC
FC01FC
FC01FC
FE03FC
FE03FC
FF07FC
7FFEFC
7FFEFC
3FFCFC
1FF8FC
07E0FC
ENDCHAR
STARTCHAR 00FB
ENCODING 251
SWIDTH 610 0
DWIDTH 28 0
BBX 22 35 3 0
BITMAP
00FC00
00FE00
01FF00
03FF80
07CF80
0F87C0
0F03E0
1E01F0
000000
000000
FC00FC
FC00FC
FC00FC
FC00FC
FC00FC
FC00FC
FC00FC
FC00FC
FC00FC
FC00FC
FC00FC
FC00FC
FC00FC
FC00FC
FC01FC
FC01FC
FC01FC
FE03FC
FE03FC
FF07FC
7FFEFC
7FFEFC
3FFCFC
1FF8FC
07E0FC
ENDCHAR
STARTCHAR 00FC
ENCODING 252
SWIDTH 610 0
DWIDTH 28 0
BBX 22 33 3 0
BITMAP
1F07C0
1F07C0
1F07C0
1F07C0
1F07C0
000000
000000
000000
FC00FC
FC00FC
FC00FC
FC00FC
FC00FC
FC00FC
FC00FC
FC00FC
FC00FC
FC00FC
FC00FC
FC00FC
FC00FC
FC00FC
FC01FC
FC01FC
FC01FC
FE03FC
FE03FC
FF07FC
7FFEFC
7FFEFC
3FFCFC
1FF8FC
07E0FC
ENDCHAR
STARTCHAR 00FD
ENCODING 253
SWIDTH 567 0
DWIDTH 26 0
BBX 24 44 1 -10
BITMAP
0007E0
000FE0
001F80
003F00
003E00
007C00
00F000
000000
000000
FC003F
FE007F
FE007E
7E007E
7E00FE
3F00FC
3F00FC
3F00FC
1F81F8
1F81F8
1F81F8
0FC3F0
0FC3F0
07C3E0
07E3E0
07E7E0
03E7C0
03F7C0
01FFC0
01FF80
01FF80
00FF80
00FF00
007F00
007E00
007E00
00FE00
00FC00
01FC00
03F800
7FF800
7FF000
7FE000
7FC000
7F0000
ENDCHAR
STARTCHAR 00FE
ENCODING 254
SWIDTH 610 0
DWIDTH 28 0
BBX 23 43 3 -10
BITMAP
FE0000
FE0000
FE0000
FE0000
FE0000
FE0000
FE0000
FE0000
FE1F80
FE7FE0
FEFFF0
FDFFF8
FFC3FC
FF01FC
FF00FC
FE00FE
FE00FE
FE00FE
FE007E
FC007E
FC007E
FC007E
FE007E
FE00FE
FE00FE
FE00FE
FF00FC
FF01FC
FF83FC
FDFFF8
FCFFF0
FC7FE0
FE1F80
FE0000
FE0000
FE0000
FE0000
FE0000
FE0000
FE0000
FE0000
FE0000
FE0000
ENDCHAR
STARTCHAR 00FF
ENCODING 255
SWIDTH 567 0
DWIDTH 26 0
BBX 24 43 1 -10
BITMAP
0F83E0
0F83E0
0F83E0
0F83E0
0F83E0
000000
000000
000000
FC003F
FE007F
FE007E
7E007E
7E00FE
3F00FC
3F00FC
3F00FC
1F81F8
1F81F8
1F81F8
0FC3F0
0FC3F0
07C3E0
07E3E0
07E7E0
03E7C0
03F7C0
01FFC0
01FF80
01FF80
00FF80
00FF00
007F00
007E00
007E00
00FE00
00FC00
01FC00
03F800
7FF800
7FF000
7FE000
7FC000
7F0000
ENDCHAR
STARTCHAR 0100
ENCODING 256
SWIDTH 720 0
DWIDTH 33 0
BBX 31 39 1 0
BITMAP
007FFE00
007FFE00
007FFE00
007FFE00
00000000
00000000
00000000
001FF000
001FF000
001FF000
003FF800
003FF800
003EF800
007EFC00
007EFC00
007E7E00
00FC7E00
00FC7E00
00FC3F00
01F83F00
01F83F00
03F81F80
03F01F80
03F01F80
07F00FC0
07E00FC0
07FFFFE0
0FFFFFE0
0FFFFFE0
0FFFFFF0
1FFFFFF0
1F8003F0
3F8003F8
3F8001F8
3F0001F8
7F0001FC
7F0000FC
7E0000FC
FE0000FE
ENDCHAR
STARTCHAR 0101
ENCODING 257
SWIDTH 567 0
DWIDTH 26 0
BBX 25 32 1 0
BITMAP
07FFE000
07FFE000
07FFE000
07FFE000
00000000
00000000
00000000
00FF0000
07FFC000
0FFFE000
1FFFF000
3FC3F800
3F81F800
3F01F800
7F01F800
0001F800
0001F800
03FFF800
0FFFF800
3FFFF800
7FFFF800
7F81F800
7F01F800
FE01F800
FE01F800
FE03F800
FE07FC00
7F0FFC00
7FFEFF80
3FFC7F80
1FF87F80
07E01F00
ENDCHAR
STARTCHAR 0102
ENCODING 258
SWIDTH 720 0
DWIDTH 33 0
BBX 31 42 1 0
BITMAP
00F00F00
00F01E00
00FC3E00
007FFE00
003FFC00
001FF800
0007E000
00000000
00000000
00000000
001FF000
001FF000
001FF000
003FF800
003FF800
003EF800
007EFC00
007EFC00
007E7E00
00FC7E00
00FC7E00
00FC3F00
01F83F00
01F83F00
03F81F80
03F01F80
03F01F80
07F00FC0
07E00FC0
07FFFFE0
0FFFFFE0
0FFFFFE0
0FFFFFF0
1FFFFFF0
1F8003F0
3F8003F8
3F8001F8
3F0001F8
7F0001FC
7F0000FC
7E0000FC
FE0000FE
ENDCHAR
STARTCHAR 0103
ENCODING 259
SWIDTH 567 0
DWIDTH 26 0
BBX 25 35 1 0
BITMAP
0F00F000
0F01E000
0F83E000
07FFC000
03FFC000
01FF8000
007E0000
00000000
00000000
00000000
00FF0000
07FFC000
0FFFE000
1FFFF000
3FC3F800
3F81F800
3F01F800
7F01F800
0001F800
0001F800
03FFF800
0FFFF800
3FFFF800
7FFFF800
7F81F800
7F01F800
FE01F800
FE01F800
FE03F800
FE07FC00
7F0FFC00
7FFEFF80
3FFC7F80
1FF87F80
07E01F00
ENDCHAR
STARTCHAR 0104
ENCODING 260
SWIDTH 720 0
DWIDTH 33 0
BBX 31 42 1 -10
BITMAP
001FF000
001FF000
001FF000
003FF800
003FF800
003EF800
007EFC00
007EFC00
007E7E00
00FC7E00
00FC7E00
00FC3F00
01F83F00
01F83F00
03F81F80
03F01F80
03F01F80
07F00FC0
07E00FC0
07FFFFE0
0FFFFFE0
0FFFFFE0
0FFFFFF0
1FFFFFF0
1F8003F0
3F8003F8
3F8001F8
3F0001F8
7F0001FC
7F0000FC
7E0000FC
FE0000FE
000000F0
000001E0
000001C0
000003C0
000003C0
000003C0
000003C0
000003FC
000001FC
000000FC
ENDCHAR
STARTCHAR 0105
ENCODING 261
SWIDTH 567 0
DWIDTH 26 0
BBX 25 35 1 -10
BITMAP
00FF0000
07FFC000
0FFFE000
1FFFF000
3FC3F800
3F81F800
3F01F800
7F01F800
0001F800
0001F800
03FFF800
0FFFF800
3FFFF800
7FFFF800
7F81F800
7F01F800
FE01F800
FE01F800
FE03F800
FE07FC00
7F0FFC00
7FFEFF80
3FFC7F80
1FF87F80
07E01F00
00007800
0000F000
0000E000
0001E000
0001E000
0001E000
0001E000
0001FE00
0000FE00
00007E00
ENDCHAR
STARTCHAR 0106
ENCODING 262
SWIDTH 720 0
DWIDTH 33 0
BBX 30 42 2 0
BITMAP
00003F00
00007F00
0000FE00
0001F800
0001F000
0003E000
00078000
00000000
00000000
00000000
001FF000
00FFFE00
03FFFF80
07FFFFC0
0FFFFFE0
1FF01FF0
3FC007F8
3F8003F8
7F0001F8
7F0000C0
FE000000
FE000000
FE000000
FE000000
FE000000
FE000000
FE000000
FE000000
FE000000
FE000000
FE000000
7E0000C0
7F0001F0
7F0001FC
3F8003F8
3FC007F8
1FF01FF0
0FFFFFE0
07FFFFC0
03FFFF80
00FFFE00
001FF000
ENDCHAR
STARTCHAR 0107
ENCODING 263
SWIDTH 567 0
DWIDTH 26 0
BBX 22 35 2 0
BITMAP
0007E0
000FE0
001F80
003F00
003E00
007C00
00F000
000000
000000
000000
00FE00
07FFC0
0FFFE0
1FFFF0
3F87F8
7F01F8
7E01FC
7E00FC
FE0000
FE0000
FC0000
FC0000
FC0000
FC0000
FC0000
FE0000
FE00FC
FE00FC
7E01FC
7F01F8
3F87F8
1FFFF0
0FFFE0
07FF80
01FE00
ENDCHAR
STARTCHAR 0108
ENCODING 264
SWIDTH 720 0
DWIDTH 33 0
BBX 30 42 2 0
BITMAP
0007E000
000FF000
001FF800
003FF800
007C7C00
00F83E00
01F00F00
00000000
00000000
00000000
001FF000
00FFFE00
03FFFF80
07FFFFC0
0FFFFFE0
1FF01FF0
3FC007F8
3F8003F8
7F0001F8
7F0000C0
FE000000
FE000000
FE000000
FE000000
FE000000
FE000000
FE000000
FE000000
FE000000
FE000000
FE000000
7E0000C0
7F0001F0
7F0001FC
3F8003F8
3FC007F8
1FF01FF0
0FFFFFE0
07FFFFC0
03FFFF80
00FFFE00
001FF000
ENDCHAR
STARTCHAR 0109
ENCODING 265
SWIDTH 567 0
DWIDTH 26 0
BBX 22 36 2 0
BITMAP
00FC00
00FE00
01FF00
03FF80
07CF80
0F87C0
0F03E0
1E01F0
000000
000000
000000
00FE00
07FFC0
0FFFE0
1FFFF0
3F87F8
7F01F8
7E01FC
7E00FC
FE0000
FE0000
FC0000
FC0000
FC0000
FC0000
FC0000
FE0000
FE00FC
FE00FC
7E01FC
7F01F8
3F87F8
1FFFF0
0FFFE0
07FF80
01FE00
ENDCHAR
STARTCHAR 010A
ENCODING 266
SWIDTH 720 0
DWIDTH 33 0
BBX 30 40 2 0
BITMAP
000FE000
000FE000
000FE000
000FE000
000FE000
00000000
00000000
00000000
001FF000
00FFFE00
03FFFF80
07FFFFC0
0FFFFFE0
1FF01FF0
3FC007F8
3F8003F8
7F0001F8
7F0000C0
FE000000
FE000000
FE000000
FE000000
FE000000
FE000000
FE000000
FE000000
FE000000
FE000000
FE000000
7E0000C0
7F0001F0
7F0001FC
3F8003F8
3FC007F8
1FF01FF0
0FFFFFE0
07FFFFC0
03FFFF80
00FFFE00
001FF000
ENDCHAR
STARTCHAR 010B
ENCODING 267
SWIDTH 567 0
DWIDTH 26 0
BBX 22 33 2 0
BITMAP
00FE00
00FE00
00FE00
00FE00
00FE00
000000
000000
000000
00FE00
07FFC0
0FFFE0
1FFFF0
3F87F8
7F01F8
7E01FC
7E00FC
FE0000
FE0000
FC0000
FC0000
FC0000
FC0000
FC0000
FE0000
FE00FC
FE00FC
7E01FC
7F01F8
3F87F8
1FFFF0
0FFFE0
07FF80
01FE00
ENDCHAR
STARTCHAR 010C
ENCODING 268
SWIDTH 720 0
DWIDTH 33 0
BBX 30 42 2 0
BITMAP
01F00F00
00F83E00
007C7C00
003FF800
001FF800
000FF000
0007E000
00000000
00000000
00000000
001FF000
00FFFE00
03FFFF80
07FFFFC0
0FFFFFE0
1FF01FF0
3FC007F8
3F8003F8
7F0001F8
7F0000C0
FE000000
FE000000
FE000000
FE000000
FE000000
FE000000
FE000000
FE000000
FE000000
FE000000
FE000000
7E0000C0
7F0001F0
7F0001FC
3F8003F8
3FC007F8
1FF01FF0
0FFFFFE0
07FFFFC0
03FFFF80
00FFFE00
001FF000
ENDCHAR
STARTCHAR 010D
ENCODING 269
SWIDTH 567 0
DWIDTH 26 0
BBX 22 36 2 0
BITMAP
1E01F0
0F03E0
0F87C0
07CF80
03FF80
01FF00
00FE00
00FC00
000000
000000
000000
00FE00
07FFC0
0FFFE0
1FFFF0
3F87F8
7F01F8
7E01FC
7E00FC
FE0000
FE0000
FC0000
FC0000
FC0000
FC0000
FC0000
FE0000
FE00FC
FE00FC
7E01FC
7F01F8
3F87F8
1FFFF0
0FFFE0
07FF80
01FE00
ENDCHAR
STARTCHAR 010E
ENCODING 270
SWIDTH 720 0
DWIDTH 33 0
BBX 28 42 3 0
BITMAP
0F807800
07C1F000
03E3E000
01FFC000
00FFC000
007F8000
003F0000
00000000
00000000
00000000
FFFF8000
FFFFF000
FFFFFC00
FFFFFE00
FFFFFF00
FE01FF80
FE007FC0
FE001FC0
FE000FE0
FE000FE0
FE0007F0
FE0007F0
FE0007F0
FE0007F0
FE0003F0
FE0003F0
FE0003F0
FE0003F0
FE0007F0
FE0007F0
FE0007F0
FE0007F0
FE000FE0
FE001FE0
FE001FC0
FE007FC0
FE01FF80
FFFFFF00
FFFFFE00
FFFFFC00
FFFFF000
FFFF8000
ENDCHAR
STARTCHAR 010F
ENCODING 271
SWIDTH 720 0
DWIDTH 33 0
BBX 31 33 2 0
BITMAP
00007E3E
00007E3E
00007E3E
00007E3E
00007E3E
00007E0E
00007E0C
00007E1C
03F07E38
0FFC7E00
1FFE7E00
3FFF7E00
3F83FE00
7F01FE00
7E01FE00
FE00FE00
FE00FE00
FE00FE00
FE007E00
FC007E00
FC007E00
FC007E00
FE007E00
FE00FE00
FE00FE00
FE00FE00
7E01FE00
7F01FE00
7F87FE00
3FFF7E00
1FFE7E00
0FFC7E00
03F07E00
ENDCHAR
STARTCHAR 0110
ENCODING 272
SWIDTH 720 0
DWIDTH 33 0
BBX 31 32 0 0
BITMAP
1FFFF000
1FFFFE00
1FFFFF80
1FFFFFC0
1FFFFFE0
1FC03FF0
1FC00FF8
1FC003F8
1FC001FC
1FC001FC
1FC000FE
1FC000FE
1FC000FE
FFFFC0FE
FFFFC07E
FFFFC07E
FFFFC07E
FFFFC07E
1FC000FE
1FC000FE
1FC000FE
1FC000FE
1FC001FC
1FC003FC
1FC003F8
1FC00FF8
1FC03FF0
1FFFFFE0
1FFFFFC0
1FFFFF80
1FFFFE00
1FFFF000
ENDCHAR
STARTCHAR 0111
ENCODING 273
SWIDTH 610 0
DWIDTH 28 0
BBX 26 33 2 0
BITMAP
00007E00
00007E00
00007E00
003FFFC0
003FFFC0
003FFFC0
003FFFC0
00007E00
00007E00
03F07E00
0FFC7E00
1FFE7E00
3FFF7E00
7F83FE00
7F01FE00
7E00FE00
FE00FE00
FE00FE00
FE007E00
FE007E00
FC007E00
FC007E00
FE007E00
FE00FE00
FE00FE00
FE00FE00
7E00FE00
7F01FE00
7F83FE00
3FFF7E00
1FFE7E00
0FFC7E00
03F07E00
ENDCHAR
STARTCHAR 0112
ENCODING 274
SWIDTH 676 0
DWIDTH 31 0
BBX 26 39 3 0
BITMAP
03FFF000
03FFF000
03FFF000
03FFF000
00000000
00000000
00000000
FFFFFF80
FFFFFF80
FFFFFF80
FFFFFF80
FFFFFF80
FE000000
FE000000
FE000000
FE000000
FE000000
FE000000
FE000000
FE000000
FFFFFF00
FFFFFF00
FFFFFF00
FFFFFF00
FFFFFF00
FE000000
FE000000
FE000000
FE000000
FE000000
FE000000
FE000000
FE000000
FE000000
FFFFFFC0
FFFFFFC0
FFFFFFC0
FFFFFFC0
FFFFFFC0
ENDCHAR
STARTCHAR 0113
ENCODING 275
SWIDTH 567 0
DWIDTH 26 0
BBX 22 32 2 0
BITMAP
07FFE0
07FFE0
07FFE0
07FFE0
000000
000000
000000
00FE00
07FF80
0FFFC0
1FFFE0
3F87F0
7F03F0
7E01F8
FE01F8
FE00F8
FC00FC
FFFFFC
FFFFFC
FFFFFC
FFFFFC
FC0000
FC0000
FE0000
FE0000
7E00FC
7F01F8
3F83F8
3FFFF0
1FFFE0
07FFC0
01FE00
ENDCHAR
STARTCHAR 0114
ENCODING 276
SWIDTH 676 0
DWIDTH 31 0
BBX 26 42 3 0
BITMAP
07807800
0780F000
07E1F000
03FFF000
01FFE000
00FFC000
003F0000
00000000
00000000
00000000
FFFFFF80
FFFFFF80
FFFFFF80
FFFFFF80
FFFFFF80
FE000000
FE000000
FE000000
FE000000
FE000000
FE000000
FE000000
FE000000
FFFFFF00
FFFFFF00
FFFFFF00
FFFFFF00
FFFFFF00
FE000000
FE000000
FE000000
FE000000
FE000000
FE000000
FE000000
FE000000
FE000000
FFFFFFC0
FFFFFFC0
FFFFFFC0
FFFFFFC0
FFFFFFC0
ENDCHAR
STARTCHAR 0115
ENCODING 277
SWIDTH 567 0
DWIDTH 26 0
BBX 22 35 2 0
BITMAP
1E01E0
1E03C0
1F07C0
0FFF80
07FF80
03FF00
00FC00
000000
000000
000000
00FE00
07FF80
0FFFC0
1FFFE0
3F87F0
7F03F0
7E01F8
FE01F8
FE00F8
FC00FC
FFFFFC
FFFFFC
FFFFFC
FFFFFC
FC0000
FC0000
FE0000
FE0000
7E00FC
7F01F8
3F83F8
3FFFF0
1FFFE0
07FFC0
01FE00
ENDCHAR
STARTCHAR 0116
ENCODING 278
SWIDTH 676 0
DWIDTH 31 0
BBX 26 40 3 0
BITMAP
007F0000
007F0000
007F0000
007F0000
007F0000
00000000
00000000
00000000
FFFFFF80
FFFFFF80
FFFFFF80
FFFFFF80
FFFFFF80
FE000000
FE000000
FE000000
FE000000
FE000000
FE000000
FE000000
FE000000
FFFFFF00
FFFFFF00
FFFFFF00
FFFFFF00
FFFFFF00
FE000000
FE000000
FE000000
FE000000
FE000000
FE000000
FE000000
FE000000
FE000000
FFFFFFC0
FFFFFFC0
FFFFFFC0
FFFFFFC0
FFFFFFC0
ENDCHAR
STARTCHAR 0117
ENCODING 279
SWIDTH 567 0
DWIDTH 26 0
BBX 22 33 2 0
BITMAP
01FC00
01FC00
01FC00
01FC00
01FC00
000000
000000
000000
00FE00
07FF80
0FFFC0
1FFFE0
3F87F0
7F03F0
7E01F8
FE01F8
FE00F8
FC00FC
FFFFFC
FFFFFC
FFFFFC
FFFFFC
FC0000
FC0000
FE0000
FE0000
7E00FC
7F01F8
3F83F8
3FFFF0
1FFFE0
07FFC0
01FE00
ENDCHAR
STARTCHAR 0118
ENCODING 280
SWIDTH 676 0
DWIDTH 31 0
BBX 26 42 3 -10
BITMAP
FFFFFF80
FFFFFF80
FFFFFF80
FFFFFF80
FFFFFF80
FE000000
FE000000
FE000000
FE000000
FE000000
FE000000
FE000000
FE000000
FFFFFF00
FFFFFF00
FFFFFF00
FFFFFF00
FFFFFF00
FE000000
FE000000
FE000000
FE000000
FE000000
FE000000
FE000000
FE000000
FE000000
FFFFFFC0
FFFFFFC0
FFFFFFC0
FFFFFFC0
FFFFFFC0
00003C00
00007800
00007000
0000F000
0000F000
0000F000
0000F000
0000FF00
00007F00
00003F00
ENDCHAR
STARTCHAR 0119
ENCODING 281
SWIDTH 567 0
DWIDTH 26 0
BBX 22 34 2 -9
BITMAP
00FE00
07FF80
0FFFC0
1FFFE0
3F87F0
7F03F0
7E01F8
FE01F8
FE00F8
FC00FC
FFFFFC
FFFFFC
FFFFFC
FFFFFC
FC0000
FC0000
FE0000
FE0000
7E00FC
7F01F8
3F83F8
3FFFF0
1FFFE0
07FFC0
01FF00
001E00
001C00
003C00
003C00
003C00
003C00
003FC0
001FC0
000FC0
ENDCHAR
STARTCHAR 011A
ENCODING 282
SWIDTH 676 0
DWIDTH 31 0
BBX 26 42 3 0
BITMAP
0F807800
07C1F000
03E3E000
01FFC000
00FFC000
007F8000
003F0000
00000000
00000000
00000000
FFFFFF80
FFFFFF80
FFFFFF80
FFFFFF80
FFFFFF80
FE000000
FE000000
FE000000
FE000000
FE000000
FE000000
FE000000
FE000000
FFFFFF00
FFFFFF00
FFFFFF00
FFFFFF00
FFFFFF00
FE000000
FE000000
FE000000
FE000000
FE000000
FE000000
FE000000
FE000000
FE000000
FFFFFFC0
FFFFFFC0
FFFFFFC0
FFFFFFC0
FFFFFFC0
ENDCHAR
STARTCHAR 011B
ENCODING 283
SWIDTH 567 0
DWIDTH 26 0
BBX 22 36 2 0
BITMAP
1E01F0
0F03E0
0F87C0
07CF80
03FF80
01FF00
00FE00
00FC00
000000
000000
000000
00FE00
07FF80
0FFFC0
1FFFE0
3F87F0
7F03F0
7E01F8
FE01F8
FE00F8
FC00FC
FFFFFC
FFFFFC
FFFFFC
FFFFFC
FC0000
FC0000
FE0000
FE0000
7E00FC
7F01F8
3F83F8
3FFFF0
1FFFE0
07FFC0
01FE00
ENDCHAR
STARTCHAR 011C
ENCODING 284
SWIDTH 785 0
DWIDTH 36 0
BBX 31 42 2 0
BITMAP
0007E000
000FF000
001FF800
003FF800
007C7C00
00F83E00
01F00F00
00000000
00000000
00000000
001FF800
00FFFF00
03FFFFC0
07FFFFE0
0FFFFFF0
1FF81FF8
3FC007F8
3F8001FC
7F0001F8
7F0000C0
7E000000
FE000000
FE000000
FE000000
FE000000
FE007FFE
FE007FFE
FE007FFE
FE007FFE
FE007FFE
FE00007E
7E00007E
7F00007E
7F80007E
3F80007E
3FE001FE
1FF80FFE
0FFFFFFC
07FFFFF8
03FFFFE0
00FFFF80
001FF800
ENDCHAR
STARTCHAR 011D
ENCODING 285
SWIDTH 610 0
DWIDTH 28 0
BBX 23 46 2 -10
BITMAP
00FC00
00FE00
01FF00
03FF80
07CF80
0F87C0
0F03E0
1E01F0
000000
000000
000000
03F07E
0FFC7E
1FFE7E
3FFF7E
3F83FE
7F01FE
7F01FE
FE00FE
FE00FE
FE00FE
FE007E
FC007E
FC007E
FC007E
FE007E
FE00FE
FE00FE
FE00FE
7F01FE
7F01FE
7F83FE
3FFF7E
1FFE7E
0FFC7E
03F07E
00007E
0000FE
0000FE
1E00FC
7F01FC
7F83F8
3FFFF8
1FFFF0
0FFFC0
01FF00
ENDCHAR
STARTCHAR 011E
ENCODING 286
SWIDTH 785 0
DWIDTH 36 0
BBX 31 42 2 0
BITMAP
00F00F00
00F01E00
00FC3E00
007FFE00
003FFC00
001FF800
0007E000
00000000
00000000
00000000
001FF800
00FFFF00
03FFFFC0
07FFFFE0
0FFFFFF0
1FF81FF8
3FC007F8
3F8001FC
7F0001F8
7F0000C0
7E000000
FE000000
FE000000
FE000000
FE000000
FE007FFE
FE007FFE
FE007FFE
FE007FFE
FE007FFE
FE00007E
7E00007E
7F00007E
7F80007E
3F80007E
3FE001FE
1FF80FFE
0FFFFFFC
07FFFFF8
03FFFFE0
00FFFF80
001FF800
ENDCHAR
STARTCHAR 011F
ENCODING 287
SWIDTH 610 0
DWIDTH 28 0
BBX 23 45 2 -10
BITMAP
0F00F0
0F01E0
0F83E0
07FFC0
03FFC0
01FF80
007E00
000000
000000
000000
03F07E
0FFC7E
1FFE7E
3FFF7E
3F83FE
7F01FE
7F01FE
FE00FE
FE00FE
FE00FE
FE007E
FC007E
FC007E
FC007E
FE007E
FE00FE
FE00FE
FE00FE
7F01FE
7F01FE
7F83FE
3FFF7E
1FFE7E
0FFC7E
03F07E
00007E
0000FE
0000FE
1E00FC
7F01FC
7F83F8
3FFFF8
1FFFF0
0FFFC0
01FF00
ENDCHAR
STARTCHAR 0120
ENCODING 288
SWIDTH 785 0
DWIDTH 36 0
BBX 31 40 2 0
BITMAP
000FE000
000FE000
000FE000
000FE000
000FE000
00000000
00000000
00000000
001FF800
00FFFF00
03FFFFC0
07FFFFE0
0FFFFFF0
1FF81FF8
3FC007F8
3F8001FC
7F0001F8
7F0000C0
7E000000
FE000000
FE000000
FE000000
FE000000
FE007FFE
FE007FFE
FE007FFE
FE007FFE
FE007FFE
FE00007E
7E00007E
7F00007E
7F80007E
3F80007E
3FE001FE
1FF80FFE
0FFFFFFC
07FFFFF8
03FFFFE0
00FFFF80
001FF800
ENDCHAR
STARTCHAR 0121
ENCODING 289
SWIDTH 610 0
DWIDTH 28 0
BBX 23 43 2 -10
BITMAP
00FE00
00FE00
00FE00
00FE00
00FE00
000000
000000
000000
03F07E
0FFC7E
1FFE7E
3FFF7E
3F83FE
7F01FE
7F01FE
FE00FE
FE00FE
FE00FE
FE007E
FC007E
FC007E
FC007E
FE007E
FE00FE
FE00FE
FE00FE
7F01FE
7F01FE
7F83FE
3FFF7E
1FFE7E
0FFC7E
03F07E
00007E
0000FE
0000FE
1E00FC
7F01FC
7F83F8
3FFFF8
1FFFF0
0FFFC0
01FF00
ENDCHAR
STARTCHAR 0122
ENCODING 290
SWIDTH 785 0
DWIDTH 36 0
BBX 31 42 2 -10
BITMAP
001FF800
00FFFF00
03FFFFC0
07FFFFE0
0FFFFFF0
1FF81FF8
3FC007F8
3F8001FC
7F0001F8
7F0000C0
7E000000
FE000000
FE000000
FE000000
FE000000
FE007FFE
FE007FFE
FE007FFE
FE007FFE
FE007FFE
FE00007E
7E00007E
7F00007E
7F80007E
3F80007E
3FE001FE
1FF80FFE
0FFFFFFC
07FFFFF8
03FFFFE0
00FFFF80
001FF800
00000000
00000000
0007E000
0007E000
0007E000
0007E000
0000E000
0001C000
0001C000
00038000
ENDCHAR
STARTCHAR 0123
ENCODING 291
SWIDTH 610 0
DWIDTH 28 0
BBX 23 47 2 -10
BITMAP
001C00
003800
003800
007000
007E00
007E00
007E00
007E00
007E00
000000
000000
000000
03F07E
0FFC7E
1FFE7E
3FFF7E
3F83FE
7F01FE
7F01FE
FE00FE
FE00FE
FE00FE
FE007E
FC007E
FC007E
FC007E
FE007E
FE00FE
FE00FE
FE00FE
7F01FE
7F01FE
7F83FE
3FFF7E
1FFE7E
0FFC7E
03F07E
00007E
0000FE
0000FE
1E00FC
7F01FC
7F83F8
3FFFF8
1FFFF0
0FFFC0
01FF00
ENDCHAR
STARTCHAR 0124
ENCODING 292
SWIDTH 720 0
DWIDTH 33 0
BBX 27 42 3 0
BITMAP
001F8000
003FC000
007FE000
00FFE000
01F1F000
03E0F800
07C03C00
00000000
00000000
00000000
FE000FE0
FE000FE0
FE000FE0
FE000FE0
FE000FE0
FE000FE0
FE000FE0
FE000FE0
FE000FE0
FE000FE0
FE000FE0
FE000FE0
FE000FE0
FFFFFFE0
FFFFFFE0
FFFFFFE0
FFFFFFE0
FFFFFFE0
FE000FE0
FE000FE0
FE000FE0
FE000FE0
FE000FE0
FE000FE0
FE000FE0
FE000FE0
FE000FE0
FE000FE0
FE000FE0
FE000FE0
FE000FE0
FE000FE0
ENDCHAR
STARTCHAR 0125
ENCODING 293
SWIDTH 610 0
DWIDTH 28 0
BBX 22 43 3 0
BITMAP
007E00
00FF00
01FF80
03FF80
07C7C0
0F83E0
1F00F0
000000
000000
000000
FE0000
FE0000
FE0000
FE0000
FE0000
FE0000
FE0000
FE0000
FE1F80
FE7FE0
FCFFF0
FDFFF8
FDFFF8
FFC3FC
FF01FC
FF01FC
FE00FC
FE00FC
FE00FC
FE00FC
FE00FC
FE00FC
FE00FC
FE00FC
FE00FC
FE00FC
FE00FC
FE00FC
FE00FC
FE00FC
FE00FC
FE00FC
FE00FC
ENDCHAR
STARTCHAR 0126
ENCODING 294
SWIDTH 720 0
DWIDTH 33 0
BBX 33 32 0 0
BITMAP
1FC000FC00
1FC000FC00
1FC000FC00
1FC000FC00
FFFFFFFF80
FFFFFFFF80
FFFFFFFF80
FFFFFFFF80
FFFFFFFF80
1FC000FC00
1FC000FC00
1FC000FC00
1FC000FC00
1FFFFFFC00
1FFFFFFC00
1FFFFFFC00
1FFFFFFC00
1FFFFFFC00
1FC000FC00
1FC000FC00
1FC000FC00
1FC000FC00
1FC000FC00
1FC000FC00
1FC000FC00
1FC000FC00
1FC000FC00
1FC000FC00
1FC000FC00
1FC000FC00
1FC000FC00
1FC000FC00
ENDCHAR
STARTCHAR 0127
ENCODING 295
SWIDTH 610 0
DWIDTH 28 0
BBX 25 33 0 0
BITMAP
1FC00000
1FC00000
1FC00000
FFFF0000
FFFF0000
FFFF0000
FFFF0000
1FC00000
1FC3F000
1FCFFC00
1FDFFE00
1FBFFF00
1FBFFF00
1FF87F80
1FE03F80
1FE03F80
1FC01F80
1FC01F80
1FC01F80
1FC01F80
1FC01F80
1FC01F80
1FC01F80
1FC01F80
1FC01F80
1FC01F80
1FC01F80
1FC01F80
1FC01F80
1FC01F80
1FC01F80
1FC01F80
1FC01F80
ENDCHAR
STARTCHAR 0128
ENCODING 296
SWIDTH 283 0
DWIDTH 13 0
BBX 17 42 -2 0
BITMAP
1E0380
7F8380
7FE780
FFFF80
F1FF80
E0FF00
E03E00
000000
000000
000000
07F000
07F000
07F000
07F000
07F000
07F000
07F000
07F000
07F000
07F000
07F000
07F000
07F000
07F000
07F000
07F000
07F000
07F000
07F000
07F000
07F000
07F000
07F000
07F000
07F000
07F000
07F000
07F000
07F000
07F000
07F000
07F000
ENDCHAR
STARTCHAR 0129
ENCODING 297
SWIDTH 283 0
DWIDTH 13 0
BBX 17 35 -2 0
BITMAP
3E0380
7F8380
7FC780
FFFF80
F1FF00
E0FF00
E03C00
000000
000000
000000
07F000
07F000
07F000
07F000
07F000
07F000
07F000
07F000
07F000
07F000
07F000
07F000
07F000
07F000
07F000
07F000
07F000
07F000
07F000
07F000
07F000
07F000
07F000
07F000
07F000
ENDCHAR
STARTCHAR 012A
ENCODING 298
SWIDTH 283 0
DWIDTH 13 0
BBX 14 39 0 0
BITMAP
FFFC
FFFC
FFFC
FFFC
0000
0000
0000
1FC0
1FC0
1FC0
1FC0
1FC0
1FC0
1FC0
1FC0
1FC0
1FC0
1FC0
1FC0
1FC0
1FC0
1FC0
1FC0
1FC0
1FC0
1FC0
1FC0
1FC0
1FC0
1FC0
1FC0
1FC0
1FC0
1FC0
1FC0
1FC0
1FC0
1FC0
1FC0
ENDCHAR
STARTCHAR 012B
ENCODING 299
SWIDTH 283 0
DWIDTH 13 0
BBX 14 32 0 0
BITMAP
FFFC
FFFC
FFFC
FFFC
0000
0000
0000
1FC0
1FC0
1FC0
1FC0
1FC0
1FC0
1FC0
1FC0
1FC0
1FC0
1FC0
1FC0
1FC0
1FC0
1FC0
1FC0
1FC0
1FC0
1FC0
1FC0
1FC0
1FC0
1FC0
1FC0
1FC0
ENDCHAR
STARTCHAR 012C
ENCODING 300
SWIDTH 283 0
DWIDTH 13 0
BBX 16 42 -1 0
BITMAP
F00F
F01E
7C3E
7FFE
3FFC
1FF8
07E0
0000
0000
0000
0FE0
0FE0
0FE0
0FE0
0FE0
0FE0
0FE0
0FE0
0FE0
0FE0
0FE0
0FE0
0FE0
0FE0
0FE0
0FE0
0FE0
0FE0
0FE0
0FE0
0FE0
0FE0
0FE0
0FE0
0FE0
0FE0
0FE0
0FE0
0FE0
0FE0
0FE0
0FE0
ENDCHAR
STARTCHAR 012D
ENCODING 301
SWIDTH 283 0
DWIDTH 13 0
BBX 16 35 -1 0
BITMAP
F00F
F01E
F83E
7FFC
3FFC
1FF8
07E0
0000
0000
0000
0FE0
0FE0
0FE0
0FE0
0FE0
0FE0
0FE0
0FE0
0FE0
0FE0
0FE0
0FE0
0FE0
0FE0
0FE0
0FE0
0FE0
0FE0
0FE0
0FE0
0FE0
0FE0
0FE0
0FE0
0FE0
ENDCHAR
STARTCHAR 012E
ENCODING 302
SWIDTH 283 0
DWIDTH 13 0
BBX 8 42 2 -10
BITMAP
7F
7F
7F
7F
7F
7F
7F
7F
7F
7F
7F
7F
7F
7F
7F
7F
7F
7F
7F
7F
7F
7F
7F
7F
7F
7F
7F
7F
7F
7F
7F
7F
3C
78
70
F0
F0
F0
F0
FF
7F
3F
ENDCHAR
STARTCHAR 012F
ENCODING 303
SWIDTH 283 0
DWIDTH 13 0
BBX 8 43 2 -10
BITMAP
7F
7F
7F
7F
7F
00
00
00
7F
7F
7F
7F
7F
7F
7F
7F
7F
7F
7F
7F
7F
7F
7F
7F
7F
7F
7F
7F
7F
7F
7F
7F
7F
3C
78
70
F0
F0
F0
F0
FF
7F
3F
ENDCHAR
STARTCHAR 0130
ENCODING 304
SWIDTH 283 0
DWIDTH 13 0
BBX 7 40 3 0
BITMAP
FE
FE
FE
FE
FE
00
00
00
FE
FE
FE
FE
FE
FE
FE
FE
FE
FE
FE
FE
FE
FE
FE
FE
FE
FE
FE
FE
FE
FE
FE
FE
FE
FE
FE
FE
FE
FE
FE
FE
ENDCHAR
STARTCHAR 0131
ENCODING 305
SWIDTH 283 0
DWIDTH 13 0
BBX 7 25 3 0
BITMAP
FE
FE
FE
FE
FE
FE
FE
FE
FE
FE
FE
FE
FE
FE
FE
FE
FE
FE
FE
FE
FE
FE
FE
FE
FE
ENDCHAR
STARTCHAR 0132
ENCODING 306
SWIDTH 785 0
DWIDTH 36 0
BBX 30 32 3 0
BITMAP
FE003FFC
FE003FFC
FE003FFC
FE003FFC
FE003FFC
FE0000FC
FE0000FC
FE0000FC
FE0000FC
FE0000FC
FE0000FC
FE0000FC
FE0000FC
FE0000FC
FE0000FC
FE0000FC
FE0000FC
FE0000FC
FE0000FC
FE0000FC
FE0000FC
FE0000FC
FE0E00FC
FE7F00FC
FE7F01FC
FE7F81FC
FE3FC3FC
FE3FFFF8
FE1FFFF0
FE0FFFE0
FE07FFC0
FE00FF00
ENDCHAR
STARTCHAR 0133
ENCODING 307
SWIDTH 567 0
DWIDTH 26 0
BBX 20 43 3 -10
BITMAP
FE07F0
FE07F0
FE07F0
FE07F0
FE07F0
000000
000000
000000
FE07F0
FE07F0
FE07F0
FE07F0
FE07F0
FE07F0
FE07F0
FE07F0
FE07F0
FE07F0
FE07F0
FE07F0
FE07F0
FE07F0
FE07F0
FE07F0
FE07F0
FE07F0
FE07F0
FE07F0
FE07F0
FE07F0
FE07F0
FE07F0
FE07F0
0007F0
0007F0
0007F0
0007F0
000FE0
007FE0
007FE0
007FC0
007FC0
007F00
ENDCHAR
STARTCHAR 0134
ENCODING 308
SWIDTH 567 0
DWIDTH 26 0
BBX 23 42 1 0
BITMAP
000FC0
001FE0
003FF0
007FF0
00F8F8
01F07C
03E01E
000000
000000
000000
007FF8
007FF8
007FF8
007FF8
007FF8
0001F8
0001F8
0001F8
0001F8
0001F8
0001F8
0001F8
0001F8
0001F8
0001F8
0001F8
0001F8
0001F8
0001F8
0001F8
0001F8
0001F8
1C01F8
FE01F8
FE03F8
FF03F8
7F87F8
7FFFF0
3FFFE0
1FFFC0
0FFF80
01FE00
ENDCHAR
STARTCHAR 0135
ENCODING 309
SWIDTH 283 0
DWIDTH 13 0
BBX 17 45 -2 -10
BITMAP
07E000
07F000
0FF800
1FFC00
3E7C00
7C3E00
781F00
F00F80
000000
000000
07F000
07F000
07F000
07F000
07F000
07F000
07F000
07F000
07F000
07F000
07F000
07F000
07F000
07F000
07F000
07F000
07F000
07F000
07F000
07F000
07F000
07F000
07F000
07F000
07F000
07F000
07F000
07F000
07F000
0FE000
7FE000
7FE000
7FC000
7FC000
7F0000
ENDCHAR
STARTCHAR 0136
ENCODING 310
SWIDTH 720 0
DWIDTH 33 0
BBX 29 42 3 -10
BITMAP
FE000FF0
FE001FE0
FE003FC0
FE003F80
FE007F00
FE00FE00
FE01FC00
FE03F800
FE07F000
FE0FE000
FE1FC000
FE3F8000
FE7F0000
FEFE0000
FFFF0000
FFFF8000
FFFF8000
FFDFC000
FF8FE000
FF0FF000
FE07F800
FE03F800
FE01FC00
FE01FE00
FE00FF00
FE007F80
FE003F80
FE003FC0
FE001FE0
FE000FF0
FE0007F8
FE0003F8
00000000
00000000
001F8000
001F8000
001F8000
001F8000
00038000
00070000
00070000
000E0000
ENDCHAR
STARTCHAR 0137
ENCODING 311
SWIDTH 567 0
DWIDTH 26 0
BBX 22 43 3 -10
BITMAP
FE0000
FE0000
FE0000
FE0000
FE0000
FE0000
FE0000
FE0000
FE01FC
FE03F8
FE07F0
FE0FE0
FE1FC0
FE3F80
FE3F00
FE7E00
FEFC00
FFFC00
FFFC00
FFFE00
FFFE00
FFFF00
FF3F00
FE3F80
FE1FC0
FE0FC0
FE0FE0
FE07E0
FE07F0
FE03F8
FE03F8
FE01FC
FE01FC
000000
000000
01F800
01F800
01F800
01F800
003800
007000
007000
00E000
ENDCHAR
STARTCHAR 0138
ENCODING 312
SWIDTH 567 0
DWIDTH 26 0
BBX 22 25 3 0
BITMAP
FE01FC
FE03F8
FE07F0
FE0FE0
FE1FC0
FE1F80
FE3F00
FE7E00
FEFE00
FFFC00
FFFC00
FFFC00
FFFE00
FFFF00
FF3F00
FE3F80
FE1F80
FE1FC0
FE0FE0
FE07E0
FE07F0
FE03F0
FE03F8
FE01FC
FE01FC
ENDCHAR
STARTCHAR 0139
ENCODING 313
SWIDTH 610 0
DWIDTH 28 0
BBX 24 42 3 0
BITMAP
00FC00
01FC00
03F800
07E000
07C000
0F8000
1E0000
000000
000000
000000
FE0000
FE0000
FE0000
FE0000
FE0000
FE0000
FE0000
FE0000
FE0000
FE0000
FE0000
FE0000
FE0000
FE0000
FE0000
FE0000
FE0000
FE0000
FE0000
FE0000
FE0000
FE0000
FE0000
FE0000
FE0000
FE0000
FE0000
FFFFFF
FFFFFF
FFFFFF
FFFFFF
FFFFFF
ENDCHAR
STARTCHAR 013A
ENCODING 314
SWIDTH 283 0
DWIDTH 13 0
BBX 11 43 2 0
BITMAP
07E0
0FE0
1FC0
3F00
3E00
7C00
F000
0000
0000
0000
7F00
7F00
7F00
7F00
7F00
7F00
7F00
7F00
7F00
7F00
7F00
7F00
7F00
7F00
7F00
7F00
7F00
7F00
7F00
7F00
7F00
7F00
7F00
7F00
7F00
7F00
7F00
7F00
7F00
7F00
7F00
7F00
7F00
ENDCHAR
STARTCHAR 013B
ENCODING 315
SWIDTH 610 0
DWIDTH 28 0
BBX 24 42 3 -10
BITMAP
FE0000
FE0000
FE0000
FE0000
FE0000
FE0000
FE0000
FE0000
FE0000
FE0000
FE0000
FE0000
FE0000
FE0000
FE0000
FE0000
FE0000
FE0000
FE0000
FE0000
FE0000
FE0000
FE0000
FE0000
FE0000
FE0000
FE0000
FFFFFF
FFFFFF
FFFFFF
FFFFFF
FFFFFF
000000
000000
00FC00
00FC00
00FC00
00FC00
001C00
003800
003800
007000
ENDCHAR
STARTCHAR 013C
ENCODING 316
SWIDTH 283 0
DWIDTH 13 0
BBX 7 43 3 -10
BITMAP
FE
FE
FE
FE
FE
FE
FE
FE
FE
FE
FE
FE
FE
FE
FE
FE
FE
FE
FE
FE
FE
FE
FE
FE
FE
FE
FE
FE
FE
FE
FE
FE
FE
00
00
FC
FC
FC
FC
1C
38
38
70
ENDCHAR
STARTCHAR 013D
ENCODING 317
SWIDTH 610 0
DWIDTH 28 0
BBX 24 32 3 0
BITMAP
FE03E0
FE03E0
FE03E0
FE03E0
FE03E0
FE00E0
FE00C0
FE01C0
FE0380
FE0000
FE0000
FE0000
FE0000
FE0000
FE0000
FE0000
FE0000
FE0000
FE0000
FE0000
FE0000
FE0000
FE0000
FE0000
FE0000
FE0000
FE0000
FFFFFF
FFFFFF
FFFFFF
FFFFFF
FFFFFF
ENDCHAR
STARTCHAR 013E
ENCODING 318
SWIDTH 392 0
DWIDTH 18 0
BBX 15 33 3 0
BITMAP
FE3E
FE3E
FE3E
FE3E
FE3E
FE0E
FE0C
FE1C
FE38
FE00
FE00
FE00
FE00
FE00
FE00
FE00
FE00
FE00
FE00
FE00
FE00
FE00
FE00
FE00
FE00
FE00
FE00
FE00
FE00
FE00
FE00
FE00
FE00
ENDCHAR
STARTCHAR 013F
ENCODING 319
SWIDTH 610 0
DWIDTH 28 0
BBX 24 32 3 0
BITMAP
FE0000
FE0000
FE0000
FE0000
FE0000
FE0000
FE0000
FE0000
FE0000
FE0000
FE0000
FE0000
FE0000
FE0FE0
FE0FE0
FE0FE0
FE0FE0
FE0FE0
FE0000
FE0000
FE0000
FE0000
FE0000
FE0000
FE0000
FE0000
FE0000
FFFFFF
FFFFFF
FFFFFF
FFFFFF
FFFFFF
ENDCHAR
STARTCHAR 0140
ENCODING 320
SWIDTH 480 0
DWIDTH 22 0
BBX 17 33 3 0
BITMAP
FE0000
FE0000
FE0000
FE0000
FE0000
FE0000
FE0000
FE0000
FE0000
FE0000
FE0000
FE0000
FE0000
FE0000
FE3F80
FE3F80
FE3F80
FE3F80
FE3F80
FE0000
FE0000
FE0000
FE0000
FE0000
FE0000
FE0000
FE0000
FE0000
FE0000
FE0000
FE0000
FE0000
FE0000
ENDCHAR
STARTCHAR 0141
ENCODING 321
SWIDTH 610 0
DWIDTH 28 0
BBX 27 32 0 0
BITMAP
1FC00000
1FC00000
1FC00000
1FC00000
1FC00000
1FC00000
1FC00000
1FC00000
1FC00000
1FC08000
1FC38000
1FCF8000
1FFF8000
1FFF8000
1FFF0000
1FFC0000
3FF00000
7FE00000
FFC00000
FFC00000
FFC00000
FFC00000
9FC00000
1FC00000
1FC00000
1FC00000
1FC00000
1FFFFFE0
1FFFFFE0
1FFFFFE0
1FFFFFE0
1FFFFFE0
ENDCHAR
STARTCHAR 0142
ENCODING 322
SWIDTH 283 0
DWIDTH 13 0
BBX 12 33 0 0
BITMAP
1FC0
1FC0
1FC0
1FC0
1FC0
1FC0
1FC0
1FC0
1FC0
1FC0
1FC0
1FD0
1FF0
1FF0
1FF0
1FF0
3FE0
FFC0
FFC0
FFC0
FFC0
9FC0
1FC0
1FC0
1FC0
1FC0
1FC0
1FC0
1FC0
1FC0
1FC0
1FC0
1FC0
ENDCHAR
STARTCHAR 0143
ENCODING 323
SWIDTH 720 0
DWIDTH 33 0
BBX 27 42 3 0
BITMAP
0001F800
0003F800
0007F000
000FC000
000F8000
001F0000
003C0000
00000000
00000000
00000000
FF0007E0
FF0007E0
FF8007E0
FFC007E0
FFC007E0
FFE007E0
FFE007E0
FFF007E0
FFF007E0
FDF807E0
FDFC07E0
FCFC07E0
FC7E07E0
FC7E07E0
FC3F07E0
FC3F07E0
FC1F87E0
FC1F87E0
FC0FC7E0
FC0FE7E0
FC07E7E0
FC03F7E0
FC03F7E0
FC01FFE0
FC01FBE0
FC00FFE0
FC00FFE0
FC007FE0
FC007FE0
FC003FE0
FC001FE0
FC001FE0
ENDCHAR
STARTCHAR 0144
ENCODING 324
SWIDTH 610 0
DWIDTH 28 0
BBX 22 35 3 0
BITMAP
0007E0
000FE0
001F80
003F00
003E00
007C00
00F000
000000
000000
000000
FC1F80
FC7FE0
FCFFF0
FDFFF8
FDFFF8
FFC3FC
FF01FC
FF01FC
FE00FC
FE00FC
FE00FC
FE00FC
FE00FC
FE00FC
FE00FC
FE00FC
FE00FC
FE00FC
FE00FC
FE00FC
FE00FC
FE00FC
FE00FC
FE00FC
FE00FC
ENDCHAR
STARTCHAR 0145
ENCODING 325
SWIDTH 720 0
DWIDTH 33 0
BBX 27 42 3 -10
BITMAP
FF0007E0
FF0007E0
FF8007E0
FFC007E0
FFC007E0
FFE007E0
FFE007E0
FFF007E0
FFF007E0
FDF807E0
FDFC07E0
FCFC07E0
FC7E07E0
FC7E07E0
FC3F07E0
FC3F07E0
FC1F87E0
FC1F87E0
FC0FC7E0
FC0FE7E0
FC07E7E0
FC03F7E0
FC03F7E0
FC01FFE0
FC01FBE0
FC00FFE0
FC00FFE0
FC007FE0
FC007FE0
FC003FE0
FC001FE0
FC001FE0
00000000
00000000
003F0000
003F0000
003F0000
003F0000
00070000
000E0000
000E0000
001C0000
ENDCHAR
STARTCHAR 0146
ENCODING 326
SWIDTH 610 0
DWIDTH 28 0
BBX 22 35 3 -10
BITMAP
FC1F80
FC7FE0
FCFFF0
FDFFF8
FDFFF8
FFC3FC
FF01FC
FF01FC
FE00FC
FE00FC
FE00FC
FE00FC
FE00FC
FE00FC
FE00FC
FE00FC
FE00FC
FE00FC
FE00FC
FE00FC
FE00FC
FE00FC
FE00FC
FE00FC
FE00FC
000000
000000
00FC00
00FC00
00FC00
00FC00
001C00
003800
003800
007000
ENDCHAR
STARTCHAR 0147
ENCODING 327
SWIDTH 720 0
DWIDTH 33 0
BBX 27 42 3 0
BITMAP
07C03C00
03E0F800
01F1F000
00FFE000
007FE000
003FC000
001F8000
00000000
00000000
00000000
FF0007E0
FF0007E0
FF8007E0
FFC007E0
FFC007E0
FFE007E0
FFE007E0
FFF007E0
FFF007E0
FDF807E0
FDFC07E0
FCFC07E0
FC7E07E0
FC7E07E0
FC3F07E0
FC3F07E0
FC1F87E0
FC1F87E0
FC0FC7E0
FC0FE7E0
FC07E7E0
FC03F7E0
FC03F7E0
FC01FFE0
FC01FBE0
FC00FFE0
FC00FFE0
FC007FE0
FC007FE0
FC003FE0
FC001FE0
FC001FE0
ENDCHAR
STARTCHAR 0148
ENCODING 328
SWIDTH 610 0
DWIDTH 28 0
BBX 22 36 3 0
BITMAP
3C03E0
1E07C0
1F0F80
0F9F00
07FF00
03FE00
01FC00
01F800
000000
000000
000000
FC1F80
FC7FE0
FCFFF0
FDFFF8
FDFFF8
FFC3FC
FF01FC
FF01FC
FE00FC
FE00FC
FE00FC
FE00FC
FE00FC
FE00FC
FE00FC
FE00FC
FE00FC
FE00FC
FE00FC
FE00FC
FE00FC
FE00FC
FE00FC
FE00FC
FE00FC
ENDCHAR
STARTCHAR 0149
ENCODING 329
SWIDTH 720 0
DWIDTH 33 0
BBX 31 32 -1 0
BITMAP
FE000000
FE000000
FE000000
FE000000
FE000000
FE000000
1E000000
1C7E0FC0
1C7E3FF0
3C7E7FF8
3C7EFFFC
787EFFFC
F87FE1FE
007F80FE
007F80FE
007F007E
007F007E
007F007E
007F007E
007F007E
007F007E
007F007E
007F007E
007F007E
007F007E
007F007E
007F007E
007F007E
007F007E
007F007E
007F007E
007F007E
ENDCHAR
STARTCHAR 014A
ENCODING 330
SWIDTH 720 0
DWIDTH 33 0
BBX 27 32 3 0
BITMAP
FC03F800
FE1FFF00
FE3FFF80
FE7FFFC0
FEFFFFC0
FFF03FE0
FFC01FE0
FF800FE0
FF000FE0
FF0007E0
FE0007E0
FE0007E0
FE0007E0
FE0007E0
FE0007E0
FE0007E0
FE0007E0
FE0007E0
FE0007E0
FE0007E0
FE0007E0
FE0007E0
FE0007E0
FE0007E0
FE0407E0
FE1C0FE0
FE3F1FC0
FE7FFFC0
FE7FFF80
FE3FFF80
FE1FFE00
FE07F800
ENDCHAR
STARTCHAR 014B
ENCODING 331
SWIDTH 610 0
DWIDTH 28 0
BBX 22 35 3 -10
BITMAP
FC1F80
FC7FE0
FCFFF0
FDFFF8
FDFFF8
FFC3FC
FF01FC
FF01FC
FE00FC
FE00FC
FE00FC
FE00FC
FE00FC
FE00FC
FE00FC
FE00FC
FE00FC
FE00FC
FE00FC
FE00FC
FE00FC
FE00FC
FE00FC
FE00FC
FE00FC
0000FC
0000FC
0000FC
0000FC
0001FC
000FFC
000FFC
000FF8
000FF0
000FE0
ENDCHAR
STARTCHAR 014C
ENCODING 332
SWIDTH 785 0
DWIDTH 36 0
BBX 32 39 2 0
BITMAP
007FFE00
007FFE00
007FFE00
007FFE00
00000000
00000000
00000000
001FF000
00FFFF00
03FFFF80
07FFFFE0
0FFFFFF0
1FF81FF8
3FE007F8
3F8003FC
7F8001FC
7F0000FE
7E0000FE
FE00007E
FE00007F
FE00007F
FE00007F
FE00007F
FE00007F
FE00007F
FE00007F
FE00007F
FE0000FE
7F0000FE
7F0000FE
7F8001FC
3F8003FC
3FE007F8
1FF81FF8
0FFFFFF0
07FFFFE0
03FFFF80
00FFFE00
001FF000
ENDCHAR
STARTCHAR 014D
ENCODING 333
SWIDTH 610 0
DWIDTH 28 0
BBX 24 32 2 0
BITMAP
07FFE0
07FFE0
07FFE0
07FFE0
000000
000000
000000
00FF00
07FFE0
0FFFF0
1FFFF8
3FC1FC
7F00FE
7F007E
7E007F
FE007F
FE007F
FE003F
FC003F
FC003F
FC003F
FE003F
FE007F
FE007F
7E007F
7F00FE
7F00FE
3FC3FC
1FFFF8
0FFFF0
07FFE0
00FF00
ENDCHAR
STARTCHAR 014E
ENCODING 334
SWIDTH 785 0
DWIDTH 36 0
BBX 32 42 2 0
BITMAP
00F00F00
00F01E00
00FC3E00
007FFE00
003FFC00
001FF800
0007E000
00000000
00000000
00000000
001FF000
00FFFF00
03FFFF80
07FFFFE0
0FFFFFF0
1FF81FF8
3FE007F8
3F8003FC
7F8001FC
7F0000FE
7E0000FE
FE00007E
FE00007F
FE00007F
FE00007F
FE00007F
FE00007F
FE00007F
FE00007F
FE00007F
FE0000FE
7F0000FE
7F0000FE
7F8001FC
3F8003FC
3FE007F8
1FF81FF8
0FFFFFF0
07FFFFE0
03FFFF80
00FFFE00
001FF000
ENDCHAR
STARTCHAR 014F
ENCODING 335
SWIDTH 610 0
DWIDTH 28 0
BBX 24 35 2 0
BITMAP
078078
0780F0
07C1F0
03FFE0
01FFE0
00FFC0
003F00
000000
000000
000000
00FF00
07FFE0
0FFFF0
1FFFF8
3FC1FC
7F00FE
7F007E
7E007F
FE007F
FE007F
FE003F
FC003F
FC003F
FC003F
FE003F
FE007F
FE007F
7E007F
7F00FE
7F00FE
3FC3FC
1FFFF8
0FFFF0
07FFE0
00FF00
ENDCHAR
STARTCHAR 0150
ENCODING 336
SWIDTH 785 0
DWIDTH 36 0
BBX 32 42 2 0
BITMAP
0003E1F0
0007E3F0
000FC7E0
001F0F80
003E0F00
003C1E00
00783C00
00000000
00000000
00000000
001FF000
00FFFF00
03FFFF80
07FFFFE0
0FFFFFF0
1FF81FF8
3FE007F8
3F8003FC
7F8001FC
7F0000FE
7E0000FE
FE00007E
FE00007F
FE00007F
FE00007F
FE00007F
FE00007F
FE00007F
FE00007F
FE00007F
FE0000FE
7F0000FE
7F0000FE
7F8001FC
3F8003FC
3FE007F8
1FF81FF8
0FFFFFF0
07FFFFE0
03FFFF80
00FFFE00
001FF000
ENDCHAR
STARTCHAR 0151
ENCODING 337
SWIDTH 610 0
DWIDTH 28 0
BBX 24 35 2 0
BITMAP
003E1F
007E3F
00F87E
01F0F8
03E1F0
03C1E0
0783C0
000000
000000
000000
00FF00
07FFE0
0FFFF0
1FFFF8
3FC1FC
7F00FE
7F007E
7E007F
FE007F
FE007F
FE003F
FC003F
FC003F
FC003F
FE003F
FE007F
FE007F
7E007F
7F00FE
7F00FE
3FC3FC
1FFFF8
0FFFF0
07FFE0
00FF00
ENDCHAR
STARTCHAR 0152
ENCODING 338
SWIDTH 1003 0
DWIDTH 46 0
BBX 42 32 2 0
BITMAP
003FFFFFFF80
00FFFFFFFF80
03FFFFFFFF80
07FFFFFFFF80
0FFFFFFFFF80
1FF00FC00000
3FC00FC00000
3F800FC00000
7F000FC00000
7F000FC00000
7E000FC00000
FE000FC00000
FE000FC00000
FE000FFFFF00
FE000FFFFF00
FE000FFFFF00
FE000FFFFF00
FE000FFFFF00
FE000FC00000
FE000FC00000
FE000FC00000
7E000FC00000
7F000FC00000
7F800FC00000
3F800FC00000
3FC00FC00000
1FF00FC00000
0FFFFFFFFFC0
07FFFFFFFFC0
03FFFFFFFFC0
00FFFFFFFFC0
003FFFFFFFC0
ENDCHAR
STARTCHAR 0153
ENCODING 339
SWIDTH 938 0
DWIDTH 43 0
BBX 40 25 2 0
BITMAP
00FF003F80
07FFC1FFE0
0FFFF3FFF0
1FFFFFFFF8
3FC1FFC0FC
7F00FFC07C
7F007F807E
7E007F807E
FE007F803E
FE007F003F
FE003FFFFF
FC003FFFFF
FC003FFFFF
FC003FFFFF
FE003F0000
FE007F0000
FE007F8000
7E007F8000
7F00FF807F
7F00FFC07E
3FC3FFE0FE
1FFFFFFFFC
0FFFF3FFF8
07FFC1FFE0
00FF007F80
ENDCHAR
STARTCHAR 0154
ENCODING 340
SWIDTH 720 0
DWIDTH 33 0
BBX 29 42 3 0
BITMAP
0003F000
0007F000
000FE000
001F8000
001F0000
003E0000
00780000
00000000
00000000
00000000
FFFFF000
FFFFFE00
FFFFFF80
FFFFFFC0
FFFFFFC0
FE003FE0
FE000FE0
FE0007F0
FE0007F0
FE0007F0
FE0007F0
FE0007F0
FE000FE0
FE000FE0
FE003FC0
FFFFFFC0
FFFFFF80
FFFFFF00
FFFFFC00
FFFFF800
FE01FC00
FE01FC00
FE00FE00
FE007F00
FE007F00
FE003F80
FE003FC0
FE001FC0
FE000FE0
FE000FF0
FE0007F0
FE0007F8
ENDCHAR
STARTCHAR 0155
ENCODING 341
SWIDTH 392 0
DWIDTH 18 0
BBX 14 35 3 0
BITMAP
00FC
01FC
03F0
07E0
07C0
0F80
1E00
0000
0000
0000
FC3C
FCFC
FCFC
FDFC
FDFC
FF80
FF00
FF00
FE00
FE00
FE00
FE00
FE00
FE00
FE00
FE00
FE00
FE00
FE00
FE00
FE00
FE00
FE00
FE00
FE00
ENDCHAR
STARTCHAR 0156
ENCODING 342
SWIDTH 720 0
DWIDTH 33 0
BBX 29 42 3 -10
BITMAP
FFFFF000
FFFFFE00
FFFFFF80
FFFFFFC0
FFFFFFC0
FE003FE0
FE000FE0
FE0007F0
FE0007F0
FE0007F0
FE0007F0
FE0007F0
FE000FE0
FE000FE0
FE003FC0
FFFFFFC0
FFFFFF80
FFFFFF00
FFFFFC00
FFFFF800
FE01FC00
FE01FC00
FE00FE00
FE007F00
FE007F00
FE003F80
FE003FC0
FE001FC0
FE000FE0
FE000FF0
FE0007F0
FE0007F8
00000000
00000000
001F8000
001F8000
001F8000
001F8000
00038000
00070000
00070000
000E0000
ENDCHAR
STARTCHAR 0157
ENCODING 343
SWIDTH 392 0
DWIDTH 18 0
BBX 14 35 3 -10
BITMAP
FC3C
FCFC
FCFC
FDFC
FDFC
FF80
FF00
FF00
FE00
FE00
FE00
FE00
FE00
FE00
FE00
FE00
FE00
FE00
FE00
FE00
FE00
FE00
FE00
FE00
FE00
0000
0000
FC00
FC00
FC00
FC00
1C00
3800
3800
7000
ENDCHAR
STARTCHAR 0158
ENCODING 344
SWIDTH 720 0
DWIDTH 33 0
BBX 29 42 3 0
BITMAP
0F807800
07C1F000
03E3E000
01FFC000
00FFC000
007F8000
003F0000
00000000
00000000
00000000
FFFFF000
FFFFFE00
FFFFFF80
FFFFFFC0
FFFFFFC0
FE003FE0
FE000FE0
FE0007F0
FE0007F0
FE0007F0
FE0007F0
FE0007F0
FE000FE0
FE000FE0
FE003FC0
FFFFFFC0
FFFFFF80
FFFFFF00
FFFFFC00
FFFFF800
FE01FC00
FE01FC00
FE00FE00
FE007F00
FE007F00
FE003F80
FE003FC0
FE001FC0
FE000FE0
FE000FF0
FE0007F0
FE0007F8
ENDCHAR
STARTCHAR 0159
ENCODING 345
SWIDTH 392 0
DWIDTH 18 0
BBX 17 36 1 0
BITMAP
F00F80
781F00
7C3E00
3E7C00
1FFC00
0FF800
07F000
07E000
000000
000000
000000
3F0F00
3F3F00
3F3F00
3F7F00
3F7F00
3FE000
3FC000
3FC000
3F8000
3F8000
3F8000
3F8000
3F8000
3F8000
3F8000
3F8000
3F8000
3F8000
3F8000
3F8000
3F8000
3F8000
3F8000
3F8000
3F8000
ENDCHAR
STARTCHAR 015A
ENCODING 346
SWIDTH 676 0
DWIDTH 31 0
BBX 28 42 1 0
BITMAP
00007E00
0000FE00
0001FC00
0003F000
0003E000
0007C000
000F0000
00000000
00000000
00000000
007FF000
03FFFE00
07FFFF00
0FFFFF80
1FFFFFC0
3FE07FC0
3F801FE0
3F000FE0
3F000F00
3F000000
3F800000
3FE00000
1FFC0000
1FFFC000
0FFFFC00
07FFFF00
01FFFF80
001FFFC0
0001FFE0
00001FE0
00000FF0
000007F0
0E0007F0
FE0007F0
7F0007F0
7F800FE0
3FE01FE0
3FFFFFE0
1FFFFFC0
0FFFFF80
03FFFE00
007FF000
ENDCHAR
STARTCHAR 015B
ENCODING 347
SWIDTH 567 0
DWIDTH 26 0
BBX 22 35 2 0
BITMAP
000FC0
001FC0
003F00
007E00
007C00
00F800
01E000
000000
000000
000000
03FE00
0FFFC0
1FFFE0
3FFFF0
7F03F0
7E01F8
7C01F0
7E0000
7F0000
7FE000
7FFE00
3FFFC0
1FFFE0
07FFF0
007FF8
0007F8
0001FC
0000FC
3800FC
FC00F8
FE03F8
7FFFF0
3FFFE0
1FFFC0
03FE00
ENDCHAR
STARTCHAR 015C
ENCODING 348
SWIDTH 676 0
DWIDTH 31 0
BBX 28 42 1 0
BITMAP
000FC000
001FE000
003FF000
007FF000
00F8F800
01F07C00
03E01E00
00000000
00000000
00000000
007FF000
03FFFE00
07FFFF00
0FFFFF80
1FFFFFC0
3FE07FC0
3F801FE0
3F000FE0
3F000F00
3F000000
3F800000
3FE00000
1FFC0000
1FFFC000
0FFFFC00
07FFFF00
01FFFF80
001FFFC0
0001FFE0
00001FE0
00000FF0
000007F0
0E0007F0
FE0007F0
7F0007F0
7F800FE0
3FE01FE0
3FFFFFE0
1FFFFFC0
0FFFFF80
03FFFE00
007FF000
ENDCHAR
STARTCHAR 015D
ENCODING 349
SWIDTH 567 0
DWIDTH 26 0
BBX 22 36 2 0
BITMAP
01F800
01FC00
03FE00
07FF00
0F9F00
1F0F80
1E07C0
3C03E0
000000
000000
000000
03FE00
0FFFC0
1FFFE0
3FFFF0
7F03F0
7E01F8
7C01F0
7E0000
7F0000
7FE000
7FFE00
3FFFC0
1FFFE0
07FFF0
007FF8
0007F8
0001FC
0000FC
3800FC
FC00F8
FE03F8
7FFFF0
3FFFE0
1FFFC0
03FE00
ENDCHAR
STARTCHAR 015E
ENCODING 350
SWIDTH 676 0
DWIDTH 31 0
BBX 28 42 1 -10
BITMAP
007FF000
03FFFE00
07FFFF00
0FFFFF80
1FFFFFC0
3FE07FC0
3F801FE0
3F000FE0
3F000F00
3F000000
3F800000
3FE00000
1FFC0000
1FFFC000
0FFFFC00
07FFFF00
01FFFF80
001FFFC0
0001FFE0
00001FE0
00000FF0
000007F0
0E0007F0
FE0007F0
7F0007F0
7F800FE0
3FE01FE0
3FFFFFE0
1FFFFFC0
0FFFFF80
03FFFE00
007FF000
000F0000
000E0000
000F8000
001FE000
0001E000
0001E000
0001E000
003FE000
003FC000
003F0000
ENDCHAR
STARTCHAR 015F
ENCODING 351
SWIDTH 567 0
DWIDTH 26 0
BBX 22 35 2 -10
BITMAP
03FE00
0FFFC0
1FFFE0
3FFFF0
7F03F0
7E01F8
7C01F0
7E0000
7F0000
7FE000
7FFE00
3FFFC0
1FFFE0
07FFF0
007FF8
0007F8
0001FC
0000FC
3800FC
FC00F8
FE03F8
7FFFF0
3FFFE0
1FFFC0
03FE00
00F000
00E000
00F800
01FE00
001E00
001E00
001E00
03FE00
03FC00
03F000
ENDCHAR
STARTCHAR 0160
ENCODING 352
SWIDTH 676 0
DWIDTH 31 0
BBX 28 42 1 0
BITMAP
03E01E00
01F07C00
00F8F800
007FF000
003FF000
001FE000
000FC000
00000000
00000000
00000000
007FF000
03FFFE00
07FFFF00
0FFFFF80
1FFFFFC0
3FE07FC0
3F801FE0
3F000FE0
3F000F00
3F000000
3F800000
3FE00000
1FFC0000
1FFFC000
0FFFFC00
07FFFF00
01FFFF80
001FFFC0
0001FFE0
00001FE0
00000FF0
000007F0
0E0007F0
FE0007F0
7F0007F0
7F800FE0
3FE01FE0
3FFFFFE0
1FFFFFC0
0FFFFF80
03FFFE00
007FF000
ENDCHAR
STARTCHAR 0161
ENCODING 353
SWIDTH 567 0
DWIDTH 26 0
BBX 22 36 2 0
BITMAP
1E01F0
0F03E0
0F87C0
07CF80
03FF80
01FF00
00FE00
00FC00
000000
000000
000000
03FE00
0FFFC0
1FFFE0
3FFFF0
7F03F0
7E01F8
7C01F0
7E0000
7F0000
7FE000
7FFE00
3FFFC0
1FFFE0
07FFF0
007FF8
0007F8
0001FC
0000FC
3800FC
FC00F8
FE03F8
7FFFF0
3FFFE0
1FFFC0
03FE00
ENDCHAR
STARTCHAR 0162
ENCODING 354
SWIDTH 610 0
DWIDTH 28 0
BBX 27 42 1 -10
BITMAP
FFFFFFE0
FFFFFFE0
FFFFFFE0
FFFFFFE0
FFFFFFE0
003F0000
003F0000
003F0000
003F0000
003F0000
003F0000
003F0000
003F0000
003F0000
003F0000
003F0000
003F0000
003F0000
003F0000
003F0000
003F0000
003F0000
003F0000
003F0000
003F0000
003F0000
003F0000
003F0000
003F0000
003F0000
003F0000
003F0000
003C0000
00380000
003E0000
007F8000
00078000
00078000
00078000
00FF8000
00FF0000
00FC0000
ENDCHAR
STARTCHAR 0163
ENCODING 355
SWIDTH 327 0
DWIDTH 15 0
BBX 14 41 1 -10
BITMAP
0780
0F80
0F80
0F80
1F80
1F80
FFF8
FFF8
FFF8
FFF8
1F80
1F80
1F80
1F80
1F80
1F80
1F80
1F80
1F80
1F80
1F80
1F80
1F80
1F80
1F80
1F80
1FC0
1FFC
1FFC
0FFC
03F8
01E0
01C0
01F0
03FC
003C
003C
003C
07FC
07F8
07E0
ENDCHAR
STARTCHAR 0164
ENCODING 356
SWIDTH 610 0
DWIDTH 28 0
BBX 27 42 1 0
BITMAP
0F807800
07C1F000
03E3E000
01FFC000
00FFC000
007F8000
003F0000
00000000
00000000
00000000
FFFFFFE0
FFFFFFE0
FFFFFFE0
FFFFFFE0
FFFFFFE0
003F0000
003F0000
003F0000
003F0000
003F0000
003F0000
003F0000
003F0000
003F0000
003F0000
003F0000
003F0000
003F0000
003F0000
003F0000
003F0000
003F0000
003F0000
003F0000
003F0000
003F0000
003F0000
003F0000
003F0000
003F0000
003F0000
003F0000
ENDCHAR
STARTCHAR 0165
ENCODING 357
SWIDTH 480 0
DWIDTH 22 0
BBX 21 34 1 0
BITMAP
0000F8
0000F8
0000F8
0780F8
0F80F8
0F8038
0F8030
1F8070
1F80E0
FFF800
FFF800
FFF800
FFF800
1F8000
1F8000
1F8000
1F8000
1F8000
1F8000
1F8000
1F8000
1F8000
1F8000
1F8000
1F8000
1F8000
1F8000
1F8000
1F8000
1FC000
1FFC00
1FFC00
0FFC00
03F800
ENDCHAR
STARTCHAR 0166
ENCODING 358
SWIDTH 610 0
DWIDTH 28 0
BBX 27 32 1 0
BITMAP
FFFFFFE0
FFFFFFE0
FFFFFFE0
FFFFFFE0
FFFFFFE0
003F0000
003F0000
003F0000
003F0000
003F0000
003F0000
003F0000
003F0000
07FFF800
07FFF800
07FFF800
07FFF800
07FFF800
003F0000
003F0000
003F0000
003F0000
003F0000
003F0000
003F0000
003F0000
003F0000
003F0000
003F0000
003F0000
003F0000
003F0000
ENDCHAR
STARTCHAR 0167
ENCODING 359
SWIDTH 327 0
DWIDTH 15 0
BBX 14 31 1 0
BITMAP
0780
0F80
0F80
0F80
1F80
1F80
FFF8
FFF8
FFF8
FFF8
1F80
1F80
1F80
1F80
1F80
1F80
FFF8
FFF8
FFF8
FFF8
1F80
1F80
1F80
1F80
1F80
1F80
1FC0
1FFC
1FFC
0FFC
03F8
ENDCHAR
STARTCHAR 0168
ENCODING 360
SWIDTH 720 0
DWIDTH 33 0
BBX 27 42 3 0
BITMAP
00F01C00
03FC1C00
03FF3C00
07FFFC00
078FFC00
0707F800
0701F000
00000000
00000000
00000000
FC0007E0
FC0007E0
FC0007E0
FC0007E0
FC0007E0
FC0007E0
FC0007E0
FC0007E0
FC0007E0
FC0007E0
FC0007E0
FC0007E0
FC0007E0
FC0007E0
FC0007E0
FC0007E0
FC0007E0
FC0007E0
FC0007E0
FC0007E0
FC0007E0
FE0007E0
FE000FE0
FE000FE0
FF001FE0
7F803FC0
7FC0FFC0
3FFFFF80
1FFFFF00
0FFFFE00
03FFF800
007FC000
ENDCHAR
STARTCHAR 0169
ENCODING 361
SWIDTH 610 0
DWIDTH 28 0
BBX 22 34 3 0
BITMAP
0F80E0
1FE0E0
1FF1E0
3FFFE0
3C7FC0
383FC0
380F00
000000
000000
FC00FC
FC00FC
FC00FC
FC00FC
FC00FC
FC00FC
FC00FC
FC00FC
FC00FC
FC00FC
FC00FC
FC00FC
FC00FC
FC00FC
FC01FC
FC01FC
FC01FC
FE03FC
FE03FC
FF07FC
7FFEFC
7FFEFC
3FFCFC
1FF8FC
07E0FC
ENDCHAR
STARTCHAR 016A
ENCODING 362
SWIDTH 720 0
DWIDTH 33 0
BBX 27 39 3 0
BITMAP
01FFF800
01FFF800
01FFF800
01FFF800
00000000
00000000
00000000
FC0007E0
FC0007E0
FC0007E0
FC0007E0
FC0007E0
FC0007E0
FC0007E0
FC0007E0
FC0007E0
FC0007E0
FC0007E0
FC0007E0
FC0007E0
FC0007E0
FC0007E0
FC0007E0
FC0007E0
FC0007E0
FC0007E0
FC0007E0
FC0007E0
FE0007E0
FE000FE0
FE000FE0
FF001FE0
7F803FC0
7FC0FFC0
3FFFFF80
1FFFFF00
0FFFFE00
03FFF800
007FC000
ENDCHAR
STARTCHAR 016B
ENCODING 363
SWIDTH 610 0
DWIDTH 28 0
BBX 22 31 3 0
BITMAP
0FFFC0
0FFFC0
0FFFC0
0FFFC0
000000
000000
FC00FC
FC00FC
FC00FC
FC00FC
FC00FC
FC00FC
FC00FC
FC00FC
FC00FC
FC00FC
FC00FC
FC00FC
FC00FC
FC00FC
FC01FC
FC01FC
FC01FC
FE03FC
FE03FC
FF07FC
7FFEFC
7FFEFC
3FFCFC
1FF8FC
07E0FC
ENDCHAR
STARTCHAR 016C
ENCODING 364
SWIDTH 720 0
DWIDTH 33 0
BBX 27 42 3 0
BITMAP
03C03C00
03C07800
03F0F800
01FFF800
00FFF000
007FE000
001F8000
00000000
00000000
00000000
FC0007E0
FC0007E0
FC0007E0
FC0007E0
FC0007E0
FC0007E0
FC0007E0
FC0007E0
FC0007E0
FC0007E0
FC0007E0
FC0007E0
FC0007E0
FC0007E0
FC0007E0
FC0007E0
FC0007E0
FC0007E0
FC0007E0
FC0007E0
FC0007E0
FE0007E0
FE000FE0
FE000FE0
FF001FE0
7F803FC0
7FC0FFC0
3FFFFF80
1FFFFF00
0FFFFE00
03FFF800
007FC000
ENDCHAR
STARTCHAR 016D
ENCODING 365
SWIDTH 610 0
DWIDTH 28 0
BBX 22 34 3 0
BITMAP
1E01E0
1E03C0
1F07C0
0FFF80
07FF80
03FF00
00FC00
000000
000000
FC00FC
FC00FC
FC00FC
FC00FC
FC00FC
FC00FC
FC00FC
FC00FC
FC00FC
FC00FC
FC00FC
FC00FC
FC00FC
FC00FC
FC01FC
FC01FC
FC01FC
FE03FC
FE03FC
FF07FC
7FFEFC
7FFEFC
3FFCFC
1FF8FC
07E0FC
ENDCHAR
STARTCHAR 016E
ENCODING 366
SWIDTH 720 0
DWIDTH 33 0
BBX 27 46 3 0
BITMAP
001F0000
003F8000
007FC000
00F1E000
00E0E000
00E0E000
00E0E000
00F1E000
007FC000
003FC000
001F0000
00000000
00000000
00000000
FC0007E0
FC0007E0
FC0007E0
FC0007E0
FC0007E0
FC0007E0
FC0007E0
FC0007E0
FC0007E0
FC0007E0
FC0007E0
FC0007E0
FC0007E0
FC0007E0
FC0007E0
FC0007E0
FC0007E0
FC0007E0
FC0007E0
FC0007E0
FC0007E0
FE0007E0
FE000FE0
FE000FE0
FF001FE0
7F803FC0
7FC0FFC0
3FFFFF80
1FFFFF00
0FFFFE00
03FFF800
007FC000
ENDCHAR
STARTCHAR 016F
ENCODING 367
SWIDTH 610 0
DWIDTH 28 0
BBX 22 37 3 0
BITMAP
00F800
01FC00
03FE00
078F00
070700
070700
070700
078F00
03FE00
01FE00
00F800
000000
FC00FC
FC00FC
FC00FC
FC00FC
FC00FC
FC00FC
FC00FC
FC00FC
FC00FC
FC00FC
FC00FC
FC00FC
FC00FC
FC00FC
FC01FC
FC01FC
FC01FC
FE03FC
FE03FC
FF07FC
7FFEFC
7FFEFC
3FFCFC
1FF8FC
07E0FC
ENDCHAR
STARTCHAR 0170
ENCODING 368
SWIDTH 720 0
DWIDTH 33 0
BBX 27 42 3 0
BITMAP
001F0F80
003F1F80
007E3F00
00F87C00
01F07800
01E0F000
03C1E000
00000000
00000000
00000000
FC0007E0
FC0007E0
FC0007E0
FC0007E0
FC0007E0
FC0007E0
FC0007E0
FC0007E0
FC0007E0
FC0007E0
FC0007E0
FC0007E0
FC0007E0
FC0007E0
FC0007E0
FC0007E0
FC0007E0
FC0007E0
FC0007E0
FC0007E0
FC0007E0
FE0007E0
FE000FE0
FE000FE0
FF001FE0
7F803FC0
7FC0FFC0
3FFFFF80
1FFFFF00
0FFFFE00
03FFF800
007FC000
ENDCHAR
STARTCHAR 0171
ENCODING 369
SWIDTH 610 0
DWIDTH 28 0
BBX 22 34 3 0
BITMAP
00F87C
01F8FC
03E1F8
07C3E0
0F87C0
0F0780
1E0F00
000000
000000
FC00FC
FC00FC
FC00FC
FC00FC
FC00FC
FC00FC
FC00FC
FC00FC
FC00FC
FC00FC
FC00FC
FC00FC
FC00FC
FC00FC
FC01FC
FC01FC
FC01FC
FE03FC
FE03FC
FF07FC
7FFEFC
7FFEFC
3FFCFC
1FF8FC
07E0FC
ENDCHAR
STARTCHAR 0172
ENCODING 370
SWIDTH 720 0
DWIDTH 33 0
BBX 27 41 3 -9
BITMAP
FC0007E0
FC0007E0
FC0007E0
FC0007E0
FC0007E0
FC0007E0
FC0007E0
FC0007E0
FC0007E0
FC0007E0
FC0007E0
FC0007E0
FC0007E0
FC0007E0
FC0007E0
FC0007E0
FC0007E0
FC0007E0
FC0007E0
FC0007E0
FC0007E0
FE0007E0
FE000FE0
FE000FE0
FF001FE0
7F803FC0
7FC0FFC0
3FFFFF80
1FFFFF00
0FFFFE00
03FFF800
007FC000
000F0000
000E0000
001E0000
001E0000
001E0000
001E0000
001FE000
000FE000
0007E000
ENDCHAR
STARTCHAR 0173
ENCODING 371
SWIDTH 610 0
DWIDTH 28 0
BBX 22 35 3 -10
BITMAP
FC00FC
FC00FC
FC00FC
FC00FC
FC00FC
FC00FC
FC00FC
FC00FC
FC00FC
FC00FC
FC00FC
FC00FC
FC00FC
FC00FC
FC01FC
FC01FC
FC01FC
FE03FC
FE03FC
FF07FC
7FFEFC
7FFEFC
3FFCFC
1FF8FC
07E0FC
0001E0
0003C0
000380
000780
000780
000780
000780
0007F8
0003F8
0001F8
ENDCHAR
STARTCHAR 0174
ENCODING 372
SWIDTH 938 0
DWIDTH 43 0
BBX 43 42 0 0
BITMAP
00001F800000
00003FC00000
00007FE00000
0000FFE00000
0001F1F00000
0003E0F80000
0007C03C0000
000000000000
000000000000
000000000000
FE003FC007E0
FE003FC00FE0
7E007FC00FE0
7F007FC00FC0
7F007FE00FC0
7F007FE01FC0
3F007FE01FC0
3F00FFE01F80
3F80FBE01F80
3F80FBF01F80
1F80FBF03F80
1F81F9F03F00
1FC1F9F03F00
1FC1F1F83F00
0FC1F1F83F00
0FC1F1F87E00
0FC3F0F87E00
07E3E0FC7E00
07E3E0FC7E00
07E3E0FCFC00
07E7E07CFC00
03E7E07CFC00
03F7C07EFC00
03F7C07EF800
03F7C03FF800
01FFC03FF800
01FF803FF800
01FF803FF000
01FF803FF000
00FF801FF000
00FF001FF000
00FF001FE000
ENDCHAR
STARTCHAR 0175
ENCODING 373
SWIDTH 785 0
DWIDTH 36 0
BBX 36 35 0 0
BITMAP
0001F80000
0001FC0000
0003FE0000
0007FF0000
000F9F0000
001F0F8000
001E07C000
003C03E000
0000000000
0000000000
FC03F803F0
FC03FC03F0
FC03FC07E0
7E03FC07E0
7E07FC07E0
7E07FE07C0
7E07FE07C0
3E07BE0FC0
3F0F9E0FC0
3F0F9F0F80
1F0F9F0F80
1F0F1F0F80
1F1F0F1F80
1F9F0F9F00
0F9F0F9F00
0F9E0F9F00
0FBE07BF00
0FBE07BE00
07FE07FE00
07FC07FE00
07FC03FE00
07FC03FC00
03F803FC00
03F803FC00
03F801FC00
ENDCHAR
STARTCHAR 0176
ENCODING 374
SWIDTH 676 0
DWIDTH 31 0
BBX 29 42 1 0
BITMAP
000FC000
001FE000
003FF000
007FF000
00F8F800
01F07C00
03E01E00
00000000
00000000
00000000
FE0003F8
7F0007F0
7F0007E0
3F800FE0
3F800FC0
1FC01FC0
0FC03F80
0FE03F80
07E07F00
07F07E00
03F0FE00
01F8FC00
01F9FC00
00FDF800
00FFF000
007FF000
003FE000
003FE000
001FC000
001FC000
001FC000
001FC000
001FC000
001FC000
001FC000
001FC000
001FC000
001FC000
001FC000
001FC000
001FC000
001FC000
ENDCHAR
STARTCHAR 0177
ENCODING 375
SWIDTH 567 0
DWIDTH 26 0
BBX 24 45 1 -10
BITMAP
007E00
007F00
00FF80
01FFC0
03E7C0
07C3E0
0781F0
0F00F8
000000
000000
FC003F
FE007F
FE007E
7E007E
7E00FE
3F00FC
3F00FC
3F00FC
1F81F8
1F81F8
1F81F8
0FC3F0
0FC3F0
07C3E0
07E3E0
07E7E0
03E7C0
03F7C0
01FFC0
01FF80
01FF80
00FF80
00FF00
007F00
007E00
007E00
00FE00
00FC00
01FC00
03F800
7FF800
7FF000
7FE000
7FC000
7F0000
ENDCHAR
STARTCHAR 0178
ENCODING 376
SWIDTH 676 0
DWIDTH 31 0
BBX 29 40 1 0
BITMAP
01F03C00
01F03C00
01F03C00
01F03C00
01F03C00
00000000
00000000
00000000
FE0003F8
7F0007F0
7F0007E0
3F800FE0
3F800FC0
1FC01FC0
0FC03F80
0FE03F80
07E07F00
07F07E00
03F0FE00
01F8FC00
01F9FC00
00FDF800
00FFF000
007FF000
003FE000
003FE000
001FC000
001FC000
001FC000
001FC000
001FC000
001FC000
001FC000
001FC000
001FC000
001FC000
001FC000
001FC000
001FC000
001FC000
ENDCHAR
STARTCHAR 0179
ENCODING 377
SWIDTH 610 0
DWIDTH 28 0
BBX 26 42 1 0
BITMAP
0001F800
0003F800
0007F000
000FC000
000F8000
001F0000
003C0000
00000000
00000000
00000000
3FFFFF80
3FFFFF80
3FFFFF80
3FFFFF80
3FFFFF80
00007F00
0000FE00
0000FE00
0001FC00
0003F800
0007F000
0007E000
000FE000
001FC000
003F8000
007F0000
007F0000
00FE0000
01FC0000
03F80000
03F80000
07F00000
0FE00000
1FC00000
1FC00000
3F800000
7F000000
FFFFFFC0
FFFFFFC0
FFFFFFC0
FFFFFFC0
FFFFFFC0
ENDCHAR
STARTCHAR 017A
ENCODING 378
SWIDTH 501 0
DWIDTH 23 0
BBX 20 35 2 0
BITMAP
001F80
003F80
007E00
00FC00
00F800
01F000
03C000
000000
000000
000000
FFFFE0
FFFFE0
FFFFE0
FFFFE0
FFFFE0
001FC0
003F80
003F80
007F00
00FE00
01FC00
03F800
03F800
07F000
0FE000
1FC000
3F8000
3F8000
7F0000
FE0000
FFFFF0
FFFFF0
FFFFF0
FFFFF0
FFFFF0
ENDCHAR
STARTCHAR 017B
ENCODING 379
SWIDTH 610 0
DWIDTH 28 0
BBX 26 40 1 0
BITMAP
003F8000
003F8000
003F8000
003F8000
003F8000
00000000
00000000
00000000
3FFFFF80
3FFFFF80
3FFFFF80
3FFFFF80
3FFFFF80
00007F00
0000FE00
0000FE00
0001FC00
0003F800
0007F000
0007E000
000FE000
001FC000
003F8000
007F0000
007F0000
00FE0000
01FC0000
03F80000
03F80000
07F00000
0FE00000
1FC00000
1FC00000
3F800000
7F000000
FFFFFFC0
FFFFFFC0
FFFFFFC0
FFFFFFC0
FFFFFFC0
ENDCHAR
STARTCHAR 017C
ENCODING 380
SWIDTH 501 0
DWIDTH 23 0
BBX 20 33 2 0
BITMAP
03F800
03F800
03F800
03F800
03F800
000000
000000
000000
FFFFE0
FFFFE0
FFFFE0
FFFFE0
FFFFE0
001FC0
003F80
003F80
007F00
00FE00
01FC00
03F800
03F800
07F000
0FE000
1FC000
3F8000
3F8000
7F0000
FE0000
FFFFF0
FFFFF0
FFFFF0
FFFFF0
FFFFF0
ENDCHAR
STARTCHAR 017D
ENCODING 381
SWIDTH 610 0
DWIDTH 28 0
BBX 26 42 1 0
BITMAP
07C03C00
03E0F800
01F1F000
00FFE000
007FE000
003FC000
001F8000
00000000
00000000
00000000
3FFFFF80
3FFFFF80
3FFFFF80
3FFFFF80
3FFFFF80
00007F00
0000FE00
0000FE00
0001FC00
0003F800
0007F000
0007E000
000FE000
001FC000
003F8000
007F0000
007F0000
00FE0000
01FC0000
03F80000
03F80000
07F00000
0FE00000
1FC00000
1FC00000
3F800000
7F000000
FFFFFFC0
FFFFFFC0
FFFFFFC0
FFFFFFC0
FFFFFFC0
ENDCHAR
STARTCHAR 017E
ENCODING 382
SWIDTH 501 0
DWIDTH 23 0
BBX 20 36 2 0
BITMAP
7807C0
3C0F80
3E1F00
1F3E00
0FFE00
07FC00
03F800
03F000
000000
000000
000000
FFFFE0
FFFFE0
FFFFE0
FFFFE0
FFFFE0
001FC0
003F80
003F80
007F00
00FE00
01FC00
03F800
03F800
07F000
0FE000
1FC000
3F8000
3F8000
7F0000
FE0000
FFFFF0
FFFFF0
FFFFF0
FFFFF0
FFFFF0
ENDCHAR
STARTCHAR 017F
ENCODING 383
SWIDTH 283 0
DWIDTH 13 0
BBX 11 33 3 0
BITMAP
0FE0
3FE0
7FE0
7FE0
FE00
FE00
FE00
FC00
FC00
FC00
FC00
FC00
FC00
FC00
FC00
FC00
FC00
FC00
FC00
FC00
FC00
FC00
FC00
FC00
FC00
FC00
FC00
FC00
FC00
FC00
FC00
FC00
FC00
ENDCHAR
STARTCHAR 0192
ENCODING 402
SWIDTH 567 0
DWIDTH 26 0
BBX 19 42 4 -10
BITMAP
001FE0
003FE0
00FFE0
00FFE0
01FC00
01F800
01F800
01F800
03F800
1FFF80
3FFF80
3FFF80
3FFF80
07F000
07E000
07E000
07E000
07E000
0FE000
0FC000
0FC000
0FC000
0FC000
1FC000
1FC000
1F8000
1F8000
1F8000
3F8000
3F8000
3F0000
3F0000
3F0000
7F0000
7F0000
7E0000
7E0000
7E0000
FE0000
FE0000
FC0000
FC0000
ENDCHAR
STARTCHAR 01FA
ENCODING 506
SWIDTH 720 0
DWIDTH 33 0
BBX 31 48 1 0
BITMAP
00007E00
0000FE00
0001FC00
0003F000
0003E000
0007C000
000F0000
00000000
0007C000
000FE000
001FF000
003C7800
00383800
00383800
00383800
003C7800
001FF000
001FF000
001FF000
003FF800
003FF800
003EF800
007EFC00
007EFC00
007E7E00
00FC7E00
00FC7E00
00FC3F00
01F83F00
01F83F00
03F81F80
03F01F80
03F01F80
07F00FC0
07E00FC0
07FFFFE0
0FFFFFE0
0FFFFFE0
0FFFFFF0
1FFFFFF0
1F8003F0
3F8003F8
3F8001F8
3F0001F8
7F0001FC
7F0000FC
7E0000FC
FE0000FE
ENDCHAR
STARTCHAR 01FB
ENCODING 507
SWIDTH 567 0
DWIDTH 26 0
BBX 25 45 1 0
BITMAP
0003F000
0007F000
000FC000
001F8000
001F0000
003E0000
007C0000
00FE0000
01FF0000
03C78000
03838000
03838000
03838000
03C78000
01FF0000
00FF0000
007C0000
00000000
00000000
00000000
00FF0000
07FFC000
0FFFE000
1FFFF000
3FC3F800
3F81F800
3F01F800
7F01F800
0001F800
0001F800
03FFF800
0FFFF800
3FFFF800
7FFFF800
7F81F800
7F01F800
FE01F800
FE01F800
FE03F800
FE07FC00
7F0FFC00
7FFEFF80
3FFC7F80
1FF87F80
07E01F00
ENDCHAR
STARTCHAR 01FC
ENCODING 508
SWIDTH 1003 0
DWIDTH 46 0
BBX 44 42 0 0
BITMAP
00000007E000
0000000FE000
0000001FC000
0000003F0000
0000003E0000
0000007C0000
000000F00000
000000000000
000000000000
000000000000
0000FFFFFFE0
0001FFFFFFE0
0001FFFFFFE0
0003FFFFFFE0
0003FFFFFFE0
0007E7F00000
0007E7F00000
000FC7F00000
000FC7F00000
001FC7F00000
001F87F00000
003F87F00000
003F07F00000
007F07FFFFC0
007E07FFFFC0
00FE07FFFFC0
00FC07FFFFC0
01FC07FFFFC0
01F807F00000
03FFFFF00000
03FFFFF00000
07FFFFF00000
07FFFFF00000
0FFFFFF00000
0FE007F00000
1FC007F00000
1FC007F00000
3F8007FFFFF0
3F8007FFFFF0
7F0007FFFFF0
7F0007FFFFF0
FE0007FFFFF0
ENDCHAR
STARTCHAR 01FD
ENCODING 509
SWIDTH 894 0
DWIDTH 41 0
BBX 38 35 1 0
BITMAP
000007E000
00000FE000
00001F8000
00003F0000
00003E0000
00007C0000
0000F00000
0000000000
0000000000
0000000000
00FF01FE00
03FFC7FF80
0FFFFFFFC0
1FFFFFFFE0
1FC3FF87F0
3F81FF01F0
3F01FE01F8
3F00FE01F8
0000FE00F8
0000FC00FC
00FFFFFFFC
0FFFFFFFFC
1FFFFFFFFC
3FF0FFFFFC
7F00FC0000
7E00FC0000
7E01FE0000
FE01FE0000
7E01FE01FC
7E03FF01F8
7F0FBF83F8
7FFF3FFFF0
3FFE1FFFE0
1FFC07FF80
07F001FE00
ENDCHAR
STARTCHAR 01FE
ENCODING 510
SWIDTH 785 0
DWIDTH 36 0
BBX 32 43 2 -1
BITMAP
00007E00
0000FE00
0001FC00
0003F000
0003E000
0007C000
000F0000
00000000
00000000
0000007C
001FF078
00FFFEF0
03FFFFF0
07FFFFE0
0FFFFFF0
1FF81FF8
3FC00FF8
3F800FFC
7F801FFC
7F003EFE
7E007CFE
FE00787E
FE00F07F
FE01F07F
FE01E07F
FE03C07F
FE07C07F
FE0F807F
FE0F007F
FE1E007F
FE3E00FE
7F3C00FE
7F7800FE
7FF801FC
3FF003FC
3FE007F8
1FF81FF8
0FFFFFF0
07FFFFE0
0FFFFF80
1FFFFE00
3E1FF000
3C000000
ENDCHAR
STARTCHAR 01FF
ENCODING 511
SWIDTH 610 0
DWIDTH 28 0
BBX 28 36 0 -1
BITMAP
0001F800
0003F800
0007E000
000FC000
000F8000
001F0000
003C0000
00000000
00000000
000000F0
003FC1E0
01FFFBC0
03FFFF80
07FFFF00
0FF07F00
1FC03F80
1FC07F80
1F80FFC0
3F81FFC0
3F81FFC0
3F83CFC0
3F078FC0
3F0F0FC0
3F1E0FC0
3FBC0FC0
3FFC1FC0
3FF81FC0
1FF01FC0
1FE03F80
1FC03F80
0FF0FF00
0FFFFE00
1FFFFC00
3DFFF800
783FC000
F0000000
ENDCHAR
STARTCHAR 0218
ENCODING 536
SWIDTH 676 0
DWIDTH 31 0
BBX 28 42 1 -10
BITMAP
007FF000
03FFFE00
07FFFF00
0FFFFF80
1FFFFFC0
3FE07FC0
3F801FE0
3F000FE0
3F000F00
3F000000
3F800000
3FE00000
1FFC0000
1FFFC000
0FFFFC00
07FFFF00
01FFFF80
001FFFC0
0001FFE0
00001FE0
00000FF0
000007F0
0E0007F0
FE0007F0
7F0007F0
7F800FE0
3FE01FE0
3FFFFFE0
1FFFFFC0
0FFFFF80
03FFFE00
007FF000
00000000
00000000
000FC000
000FC000
000FC000
000FC000
0001C000
00038000
00038000
00070000
ENDCHAR
STARTCHAR 0219
ENCODING 537
SWIDTH 567 0
DWIDTH 26 0
BBX 22 35 2 -10
BITMAP
03FE00
0FFFC0
1FFFE0
3FFFF0
7F03F0
7E01F8
7C01F0
7E0000
7F0000
7FE000
7FFE00
3FFFC0
1FFFE0
07FFF0
007FF8
0007F8
0001FC
0000FC
3800FC
FC00F8
FE03F8
7FFFF0
3FFFE0
1FFFC0
03FE00
000000
000000
00FC00
00FC00
00FC00
00FC00
001C00
003800
003800
007000
ENDCHAR
STARTCHAR 021A
ENCODING 538
SWIDTH 610 0
DWIDTH 28 0
BBX 27 42 1 -10
BITMAP
FFFFFFE0
FFFFFFE0
FFFFFFE0
FFFFFFE0
FFFFFFE0
003F0000
003F0000
003F0000
003F0000
003F0000
003F0000
003F0000
003F0000
003F0000
003F0000
003F0000
003F0000
003F0000
003F0000
003F0000
003F0000
003F0000
003F0000
003F0000
003F0000
003F0000
003F0000
003F0000
003F0000
003F0000
003F0000
003F0000
00000000
00000000
003F0000
003F0000
003F0000
003F0000
00070000
000E0000
000E0000
001C0000
ENDCHAR
STARTCHAR 021B
ENCODING 539
SWIDTH 327 0
DWIDTH 15 0
BBX 14 41 1 -10
BITMAP
0780
0F80
0F80
0F80
1F80
1F80
FFF8
FFF8
FFF8
FFF8
1F80
1F80
1F80
1F80
1F80
1F80
1F80
1F80
1F80
1F80
1F80
1F80
1F80
1F80
1F80
1F80
1FC0
1FFC
1FFC
0FFC
03F8
0000
0000
0FC0
0FC0
0FC0
0FC0
01C0
0380
0380
0700
ENDCHAR
STARTCHAR 02C6
ENCODING 710
SWIDTH 327 0
DWIDTH 15 0
BBX 17 8 0 27
BITMAP
07E000
07F000
0FF800
1FFC00
3E7C00
7C3E00
781F00
F00F80
ENDCHAR
STARTCHAR 02C7
ENCODING 711
SWIDTH 327 0
DWIDTH 15 0
BBX 17 8 0 27
BITMAP
F00F80
781F00
7C3E00
3E7C00
1FFC00
0FF800
07F000
07E000
ENDCHAR
STARTCHAR 02C9
ENCODING 713
SWIDTH 327 0
DWIDTH 15 0
BBX 14 4 1 27
BITMAP
FFFC
FFFC
FFFC
FFFC
ENDCHAR
STARTCHAR 02D8
ENCODING 728
SWIDTH 327 0
DWIDTH 15 0
BBX 16 7 -1 27
BITMAP
F00F
F01E
F83E
7FFC
3FFC
1FF8
07E0
ENDCHAR
STARTCHAR 02D9
ENCODING 729
SWIDTH 327 0
DWIDTH 15 0
BBX 6 5 5 28
BITMAP
FC
FC
FC
FC
FC
ENDCHAR
STARTCHAR 02DA
ENCODING 730
SWIDTH 327 0
DWIDTH 15 0
BBX 11 11 1 26
BITMAP
1F00
3F80
7FC0
F1E0
E0E0
E0E0
E0E0
F1E0
7FC0
3FC0
1F00
ENDCHAR
STARTCHAR 02DB
ENCODING 731
SWIDTH 327 0
DWIDTH 15 0
BBX 8 10 2 -10
BITMAP
3C
78
70
F0
F0
F0
F0
FF
7F
3F
ENDCHAR
STARTCHAR 02DC
ENCODING 732
SWIDTH 327 0
DWIDTH 15 0
BBX 17 7 0 27
BITMAP
3E0380
7F8380
7FC780
FFFF80
F1FF00
E0FF00
E03C00
ENDCHAR
STARTCHAR 02DD
ENCODING 733
SWIDTH 327 0
DWIDTH 15 0
BBX 19 7 -2 27
BITMAP
07C3E0
0FC7E0
1F0FC0
3E1F00
7C3E00
783C00
F07800
ENDCHAR
STARTCHAR 037E
ENCODING 894
SWIDTH 327 0
DWIDTH 15 0
BBX 7 30 4 -7
BITMAP
FE
FE
FE
FE
FE
FE
00
00
00
00
00
00
00
00
00
00
00
FE
FE
FE
FE
FE
FE
1E
1E
1E
1C
3C
78
78
ENDCHAR
STARTCHAR 0384
ENCODING 900
SWIDTH 327 0
DWIDTH 15 0
BBX 7 7 4 27
BITMAP
3E
7E
7C
78
78
F0
E0
ENDCHAR
STARTCHAR 0385
ENCODING 901
SWIDTH 458 0
DWIDTH 21 0
BBX 17 10 2 27
BITMAP
01F800
01F000
01F000
01F000
F9EF80
F9EF80
FBCF80
FBCF80
FB8F80
038000
ENDCHAR
STARTCHAR 0386
ENCODING 902
SWIDTH 720 0
DWIDTH 33 0
BBX 31 32 1 0
BITMAP
3E1FF000
7E1FF000
7C1FF000
783FF800
783FF800
F03EF800
E07EFC00
007EFC00
007E7E00
00FC7E00
00FC7E00
00FC3F00
01F83F00
01F83F00
03F81F80
03F01F80
03F01F80
07F00FC0
07E00FC0
07FFFFE0
0FFFFFE0
0FFFFFE0
0FFFFFF0
1FFFFFF0
1F8003F0
3F8003F8
3F8001F8
3F0001F8
7F0001FC
7F0000FC
7E0000FC
FE0000FE
ENDCHAR
STARTCHAR 0387
ENCODING 903
SWIDTH 327 0
DWIDTH 15 0
BBX 7 7 4 12
BITMAP
FE
FE
FE
FE
FE
FE
FE
ENDCHAR
STARTCHAR 0388
ENCODING 904
SWIDTH 850 0
DWIDTH 39 0
BBX 37 32 1 0
BITMAP
3E1FFFFFF0
7E1FFFFFF0
7C1FFFFFF0
781FFFFFF0
781FFFFFF0
F01FC00000
E01FC00000
001FC00000
001FC00000
001FC00000
001FC00000
001FC00000
001FC00000
001FFFFFE0
001FFFFFE0
001FFFFFE0
001FFFFFE0
001FFFFFE0
001FC00000
001FC00000
001FC00000
001FC00000
001FC00000
001FC00000
001FC00000
001FC00000
001FC00000
001FFFFFF8
001FFFFFF8
001FFFFFF8
001FFFFFF8
001FFFFFF8
ENDCHAR
STARTCHAR 0389
ENCODING 905
SWIDTH 916 0
DWIDTH 42 0
BBX 37 32 1 0
BITMAP
3E3F8003F8
7E3F8003F8
7C3F8003F8
783F8003F8
783F8003F8
F03F8003F8
E03F8003F8
003F8003F8
003F8003F8
003F8003F8
003F8003F8
003F8003F8
003F8003F8
003FFFFFF8
003FFFFFF8
003FFFFFF8
003FFFFFF8
003FFFFFF8
003F8003F8
003F8003F8
003F8003F8
003F8003F8
003F8003F8
003F8003F8
003F8003F8
003F8003F8
003F8003F8
003F8003F8
003F8003F8
003F8003F8
003F8003F8
003F8003F8
ENDCHAR
STARTCHAR 038A
ENCODING 906
SWIDTH 480 0
DWIDTH 22 0
BBX 18 32 1 0
BITMAP
3E1FC0
7E1FC0
7C1FC0
781FC0
781FC0
F01FC0
E01FC0
001FC0
001FC0
001FC0
001FC0
001FC0
001FC0
001FC0
001FC0
001FC0
001FC0
001FC0
001FC0
001FC0
001FC0
001FC0
001FC0
001FC0
001FC0
001FC0
001FC0
001FC0
001FC0
001FC0
001FC0
001FC0
ENDCHAR
STARTCHAR 038C
ENCODING 908
SWIDTH 829 0
DWIDTH 38 0
BBX 37 32 -1 0
BITMAP
3E00FF8000
7E07FFF800
7C1FFFFC00
783FFFFF00
787FFFFF80
F0FFC0FFC0
E1FF003FC0
01FC001FE0
03FC000FE0
03F80007F0
03F00007F0
07F00003F0
07F00003F8
07F00003F8
07F00003F8
07F00003F8
07F00003F8
07F00003F8
07F00003F8
07F00003F8
07F00007F0
03F80007F0
03F80007F0
03FC000FE0
01FC001FE0
01FF003FC0
00FFC0FFC0
007FFFFF80
003FFFFF00
001FFFFC00
0007FFF000
0000FF8000
ENDCHAR
STARTCHAR 038E
ENCODING 910
SWIDTH 938 0
DWIDTH 43 0
BBX 39 32 3 0
BITMAP
3E3F8000FE
7E1FC001FC
7C1FC001F8
780FE003F8
780FE003F0
F007F007F0
E003F00FE0
0003F80FE0
0001F81FC0
0001FC1F80
0000FC3F80
00007E3F00
00007E7F00
00003F7E00
00003FFC00
00001FFC00
00000FF800
00000FF800
000007F000
000007F000
000007F000
000007F000
000007F000
000007F000
000007F000
000007F000
000007F000
000007F000
000007F000
000007F000
000007F000
000007F000
ENDCHAR
STARTCHAR 038F
ENCODING 911
SWIDTH 850 0
DWIDTH 39 0
BBX 38 32 -1 0
BITMAP
3E00FFC000
7E07FFFC00
7C1FFFFF00
783FFFFF80
787FFFFFC0
F0FFC07FE0
E1FF001FF0
01FE000FF0
03FC0007F8
03F80003F8
03F80003F8
03F00003F8
03F00001F8
07F00001F8
03F00001F8
03F00001F8
03F00003F8
03F80003F8
03F80003F8
01F80007F0
01FC0007F0
00FE000FE0
00FF001FC0
007F803F80
003FE0FF00
000FF1FE00
0007F1F800
07FFF1FFFC
07FFF1FFFC
07FFF1FFFC
07FFF1FFFC
07FFF1FFFC
ENDCHAR
STARTCHAR 0390
ENCODING 912
SWIDTH 283 0
DWIDTH 13 0
BBX 17 37 -2 0
BITMAP
01F800
01F000
01F000
01F000
F9EF80
F9EF80
FBCF80
FBCF80
FB8F80
038000
000000
000000
07E000
07E000
07E000
07E000
07E000
07E000
07E000
07E000
07E000
07E000
07E000
07E000
07E000
07E000
07E000
07E000
07E000
07E000
07E000
07E000
07E000
07F000
07F000
03F000
03F800
ENDCHAR
STARTCHAR 0391
ENCODING 913
SWIDTH 720 0
DWIDTH 33 0
BBX 31 32 1 0
BITMAP
001FF000
001FF000
001FF000
003FF800
003FF800
003EF800
007EFC00
007EFC00
007E7E00
00FC7E00
00FC7E00
00FC3F00
01F83F00
01F83F00
03F81F80
03F01F80
03F01F80
07F00FC0
07E00FC0
07FFFFE0
0FFFFFE0
0FFFFFE0
0FFFFFF0
1FFFFFF0
1F8003F0
3F8003F8
3F8001F8
3F0001F8
7F0001FC
7F0000FC
7E0000FC
FE0000FE
ENDCHAR
STARTCHAR 0392
ENCODING 914
SWIDTH 720 0
DWIDTH 33 0
BBX 28 32 3 0
BITMAP
FFFFF000
FFFFFC00
FFFFFF00
FFFFFF80
FFFFFFC0
FE007FC0
FE001FC0
FE001FC0
FE000FC0
FE000FC0
FE001FC0
FE001FC0
FE007F80
FFFFFF00
FFFFFE00
FFFFF800
FFFFFF00
FFFFFFC0
FE001FE0
FE000FE0
FE0007F0
FE0007F0
FE0007F0
FE0007F0
FE0007F0
FE000FF0
FE001FE0
FFFFFFE0
FFFFFFC0
FFFFFF80
FFFFFE00
FFFFF800
ENDCHAR
STARTCHAR 0393
ENCODING 915
SWIDTH 610 0
DWIDTH 28 0
BBX 24 32 3 0
BITMAP
FFFFFF
FFFFFF
FFFFFF
FFFFFF
FFFFFF
FE0000
FE0000
FE0000
FE0000
FE0000
FE0000
FE0000
FE0000
FE0000
FE0000
FE0000
FE0000
FE0000
FE0000
FE0000
FE0000
FE0000
FE0000
FE0000
FE0000
FE0000
FE0000
FE0000
FE0000
FE0000
FE0000
FE0000
ENDCHAR
STARTCHAR 0394
ENCODING 916
SWIDTH 720 0
DWIDTH 33 0
BBX 29 32 2 0
BITMAP
001FE000
003FE000
003FE000
007FF000
007FF000
007DF800
00FDF800
00FDF800
01FCFC00
01F8FC00
01F8FE00
03F07E00
03F07E00
07F07F00
07E03F00
07E03F80
0FE01F80
0FC01F80
1FC01FC0
1FC00FC0
1F800FC0
3F800FE0
3F0007E0
7F0007F0
7F0007F0
7E0003F0
FE0003F8
FFFFFFF8
FFFFFFF8
FFFFFFF8
FFFFFFF8
FFFFFFF8
ENDCHAR
STARTCHAR 0395
ENCODING 917
SWIDTH 676 0
DWIDTH 31 0
BBX 26 32 3 0
BITMAP
FFFFFF80
FFFFFF80
FFFFFF80
FFFFFF80
FFFFFF80
FE000000
FE000000
FE000000
FE000000
FE000000
FE000000
FE000000
FE000000
FFFFFF00
FFFFFF00
FFFFFF00
FFFFFF00
FFFFFF00
FE000000
FE000000
FE000000
FE000000
FE000000
FE000000
FE000000
FE000000
FE000000
FFFFFFC0
FFFFFFC0
FFFFFFC0
FFFFFFC0
FFFFFFC0
ENDCHAR
STARTCHAR 0396
ENCODING 918
SWIDTH 610 0
DWIDTH 28 0
BBX 26 32 1 0
BITMAP
3FFFFF80
3FFFFF80
3FFFFF80
3FFFFF80
3FFFFF80
00007F00
0000FE00
0000FE00
0001FC00
0003F800
0007F000
0007E000
000FE000
001FC000
003F8000
007F0000
007F0000
00FE0000
01FC0000
03F80000
03F80000
07F00000
0FE00000
1FC00000
1FC00000
3F800000
7F000000
FFFFFFC0
FFFFFFC0
FFFFFFC0
FFFFFFC0
FFFFFFC0
ENDCHAR
STARTCHAR 0397
ENCODING 919
SWIDTH 720 0
DWIDTH 33 0
BBX 27 32 3 0
BITMAP
FE000FE0
FE000FE0
FE000FE0
FE000FE0
FE000FE0
FE000FE0
FE000FE0
FE000FE0
FE000FE0
FE000FE0
FE000FE0
FE000FE0
FE000FE0
FFFFFFE0
FFFFFFE0
FFFFFFE0
FFFFFFE0
FFFFFFE0
FE000FE0
FE000FE0
FE000FE0
FE000FE0
FE000FE0
FE000FE0
FE000FE0
FE000FE0
FE000FE0
FE000FE0
FE000FE0
FE000FE0
FE000FE0
FE000FE0
ENDCHAR
STARTCHAR 0398
ENCODING 920
SWIDTH 785 0
DWIDTH 36 0
BBX 32 32 2 0
BITMAP
001FF000
00FFFF00
03FFFF80
07FFFFE0
0FFFFFF0
1FF81FF8
3FE007F8
3F8003FC
7F8001FC
7F0000FE
7E0000FE
FE00007E
FE00007F
FE7FFC7F
FE7FFC7F
FE7FFC7F
FE7FFC7F
FE7FFC7F
FE00007F
FE00007F
FE0000FE
7F0000FE
7F0000FE
7F8001FC
3F8003FC
3FE007F8
1FF81FF8
0FFFFFF0
07FFFFE0
03FFFF80
00FFFE00
001FF000
ENDCHAR
STARTCHAR 0399
ENCODING 921
SWIDTH 283 0
DWIDTH 13 0
BBX 7 32 3 0
BITMAP
FE
FE
FE
FE
FE
FE
FE
FE
FE
FE
FE
FE
FE
FE
FE
FE
FE
FE
FE
FE
FE
FE
FE
FE
FE
FE
FE
FE
FE
FE
FE
FE
ENDCHAR
STARTCHAR 039A
ENCODING 922
SWIDTH 720 0
DWIDTH 33 0
BBX 29 32 3 0
BITMAP
FE000FF0
FE001FE0
FE003FC0
FE003F80
FE007F00
FE00FE00
FE01FC00
FE03F800
FE07F000
FE0FE000
FE1FC000
FE3F8000
FE7F0000
FEFE0000
FFFF0000
FFFF8000
FFFF8000
FFDFC000
FF8FE000
FF0FF000
FE07F800
FE03F800
FE01FC00
FE01FE00
FE00FF00
FE007F80
FE003F80
FE003FC0
FE001FE0
FE000FF0
FE0007F8
FE0003F8
ENDCHAR
STARTCHAR 039B
ENCODING 923
SWIDTH 676 0
DWIDTH 31 0
BBX 30 32 0 0
BITMAP
000FE000
001FE000
001FF000
001FF000
003FF000
003FF800
003EF800
007EF800
007EFC00
007CFC00
00FC7E00
00FC7E00
01FC7E00
01F83F00
01F83F00
03F83F00
03F01F80
03F01F80
07F01F80
07E01FC0
07E00FC0
0FE00FE0
0FC00FE0
1FC007E0
1FC007F0
1F8007F0
3F8003F0
3F8003F8
3F0003F8
7F0001F8
7F0001FC
FE0001FC
ENDCHAR
STARTCHAR 039C
ENCODING 924
SWIDTH 829 0
DWIDTH 38 0
BBX 32 32 3 0
BITMAP
FF8001FF
FF8001FF
FFC001FF
FFC003FF
FFC003FF
FFE003FF
FFE007DF
FFE007FF
FFF007FF
FDF00FFF
FDF00FBF
FDF80FBF
FCF80FBF
FCF81FBF
FCFC1F3F
FCFC1F3F
FC7C3F3F
FC7C3E3F
FC7E3E3F
FC3E7E3F
FC3E7C3F
FC3F7C3F
FC1F7C3F
FC1FF83F
FC1FF83F
FC0FF83F
FC0FF03F
FC0FF03F
FC07F03F
FC07E03F
FC07E03F
FC03E03F
ENDCHAR
STARTCHAR 039D
ENCODING 925
SWIDTH 720 0
DWIDTH 33 0
BBX 27 32 3 0
BITMAP
FF0007E0
FF0007E0
FF8007E0
FFC007E0
FFC007E0
FFE007E0
FFE007E0
FFF007E0
FFF007E0
FDF807E0
FDFC07E0
FCFC07E0
FC7E07E0
FC7E07E0
FC3F07E0
FC3F07E0
FC1F87E0
FC1F87E0
FC0FC7E0
FC0FE7E0
FC07E7E0
FC03F7E0
FC03F7E0
FC01FFE0
FC01FBE0
FC00FFE0
FC00FFE0
FC007FE0
FC007FE0
FC003FE0
FC001FE0
FC001FE0
ENDCHAR
STARTCHAR 039E
ENCODING 926
SWIDTH 654 0
DWIDTH 30 0
BBX 26 32 2 0
BITMAP
7FFFFF80
7FFFFF80
7FFFFF80
7FFFFF80
7FFFFF80
00000000
00000000
00000000
00000000
00000000
00000000
00000000
00000000
1FFFFC00
1FFFFC00
1FFFFC00
1FFFFC00
1FFFFC00
00000000
00000000
00000000
00000000
00000000
00000000
00000000
00000000
00000000
FFFFFFC0
FFFFFFC0
FFFFFFC0
FFFFFFC0
FFFFFFC0
ENDCHAR
STARTCHAR 039F
ENCODING 927
SWIDTH 785 0
DWIDTH 36 0
BBX 32 32 2 0
BITMAP
001FF000
00FFFF00
03FFFF80
07FFFFE0
0FFFFFF0
1FF81FF8
3FE007F8
3F8003FC
7F8001FC
7F0000FE
7E0000FE
FE00007E
FE00007F
FE00007F
FE00007F
FE00007F
FE00007F
FE00007F
FE00007F
FE00007F
FE0000FE
7F0000FE
7F0000FE
7F8001FC
3F8003FC
3FE007F8
1FF81FF8
0FFFFFF0
07FFFFE0
03FFFF80
00FFFE00
001FF000
ENDCHAR
STARTCHAR 03A0
ENCODING 928
SWIDTH 720 0
DWIDTH 33 0
BBX 27 32 3 0
BITMAP
FFFFFFE0
FFFFFFE0
FFFFFFE0
FFFFFFE0
FFFFFFE0
FE0007E0
FE0007E0
FE0007E0
FE0007E0
FE0007E0
FE0007E0
FE0007E0
FE0007E0
FE0007E0
FE0007E0
FE0007E0
FE0007E0
FE0007E0
FE0007E0
FE0007E0
FE0007E0
FE0007E0
FE0007E0
FE0007E0
FE0007E0
FE0007E0
FE0007E0
FE0007E0
FE0007E0
FE0007E0
FE0007E0
FE0007E0
ENDCHAR
STARTCHAR 03A1
ENCODING 929
SWIDTH 676 0
DWIDTH 31 0
BBX 26 32 3 0
BITMAP
FFFFE000
FFFFF800
FFFFFE00
FFFFFF00
FFFFFF80
FE00FF80
FE003FC0
FE001FC0
FE001FC0
FE001FC0
FE001FC0
FE001FC0
FE001FC0
FE001FC0
FE003F80
FE00FF80
FFFFFF00
FFFFFF00
FFFFFE00
FFFFF800
FFFFE000
FE000000
FE000000
FE000000
FE000000
FE000000
FE000000
FE000000
FE000000
FE000000
FE000000
FE000000
ENDCHAR
STARTCHAR 03A3
ENCODING 931
SWIDTH 610 0
DWIDTH 28 0
BBX 24 32 2 0
BITMAP
FFFFFE
FFFFFE
FFFFFE
FFFFFE
FFFFFE
7F0000
3F8000
1FC000
0FC000
0FE000
07F000
03F800
01FC00
00FE00
007F00
003F00
007F00
00FE00
01FC00
01F800
03F000
07F000
0FE000
1FC000
3F8000
7F0000
FE0000
FFFFFF
FFFFFF
FFFFFF
FFFFFF
FFFFFF
ENDCHAR
STARTCHAR 03A4
ENCODING 932
SWIDTH 610 0
DWIDTH 28 0
BBX 27 32 1 0
BITMAP
FFFFFFE0
FFFFFFE0
FFFFFFE0
FFFFFFE0
FFFFFFE0
003F0000
003F0000
003F0000
003F0000
003F0000
003F0000
003F0000
003F0000
003F0000
003F0000
003F0000
003F0000
003F0000
003F0000
003F0000
003F0000
003F0000
003F0000
003F0000
003F0000
003F0000
003F0000
003F0000
003F0000
003F0000
003F0000
003F0000
ENDCHAR
STARTCHAR 03A5
ENCODING 933
SWIDTH 676 0
DWIDTH 31 0
BBX 29 32 1 0
BITMAP
FE0003F8
7F0007F0
7F0007E0
3F800FE0
3F800FC0
1FC01FC0
0FC03F80
0FE03F80
07E07F00
07F07E00
03F0FE00
01F8FC00
01F9FC00
00FDF800
00FFF000
007FF000
003FE000
003FE000
001FC000
001FC000
001FC000
001FC000
001FC000
001FC000
001FC000
001FC000
001FC000
001FC000
001FC000
001FC000
001FC000
001FC000
ENDCHAR
STARTCHAR 03A6
ENCODING 934
SWIDTH 829 0
DWIDTH 38 0
BBX 35 32 1 0
BITMAP
0001F80000
0001F80000
0001F80000
0001F80000
007FFFE000
03FFFFF800
07FFFFFE00
1FFFFFFF00
1FFFFFFF80
3FE1F87FC0
7F81F81FC0
7F01F81FE0
7F01F80FE0
7E01F80FE0
FE01F807E0
FE01F807E0
FE01F807E0
7E01F807E0
7E01F80FE0
7F01F80FE0
7F01F81FE0
3F81F83FC0
3FE1F87FC0
1FFFFFFF80
0FFFFFFF00
07FFFFFE00
01FFFFF800
007FFFE000
0001F80000
0001F80000
0001F80000
0001F80000
ENDCHAR
STARTCHAR 03A7
ENCODING 935
SWIDTH 676 0
DWIDTH 31 0
BBX 29 32 1 0
BITMAP
7F0007F0
7F000FE0
3F800FE0
1F801FC0
1FC01FC0
0FE03F80
07E07F00
07F07F00
03F0FE00
03F8FC00
01FDFC00
00FFF800
00FFF800
007FF000
003FE000
003FE000
003FE000
007FF000
00FFF800
00FFF800
01FDFC00
03F8FE00
03F0FE00
07F07F00
0FE03F00
0FE03F80
1FC01FC0
3F801FC0
3F800FE0
7F0007F0
FE0007F0
FE0003F8
ENDCHAR
STARTCHAR 03A8
ENCODING 936
SWIDTH 807 0
DWIDTH 37 0
BBX 33 32 2 0
BITMAP
FC07F01F80
FC07F01F80
FC07F01F80
FC07F01F80
FC07F01F80
FC07F01F80
FC07F01F80
FC07F01F80
FC07F01F80
FC07F01F80
FC07F01F80
FC07F01F80
FE07F01F80
FE07F03F80
7E07F03F80
7F07F07F00
7FC7F1FF00
3FFFFFFE00
1FFFFFFE00
0FFFFFFC00
07FFFFF000
00FFFF8000
0007F00000
0007F00000
0007F00000
0007F00000
0007F00000
0007F00000
0007F00000
0007F00000
0007F00000
0007F00000
ENDCHAR
STARTCHAR 03A9
ENCODING 937
SWIDTH 807 0
DWIDTH 37 0
BBX 33 32 2 0
BITMAP
001FF80000
00FFFF8000
03FFFFE000
07FFFFF000
0FFFFFF800
1FF80FFC00
3FE003FE00
3FC001FE00
7F8000FF00
7F00007F00
7F00007F00
7E00007F00
7E00003F00
FE00003F00
7E00003F00
7E00003F00
7E00007F00
7F00007F00
7F00007F00
3F0000FE00
3F8000FE00
1FC001FC00
1FE003F800
0FF007F000
07FC1FE000
01FE3FC000
00FE3F0000
FFFE3FFF80
FFFE3FFF80
FFFE3FFF80
FFFE3FFF80
FFFE3FFF80
ENDCHAR
STARTCHAR 03AA
ENCODING 938
SWIDTH 283 0
DWIDTH 13 0
BBX 15 40 -1 0
BITMAP
F81E
F81E
F81E
F81E
F81E
0000
0000
0000
0FE0
0FE0
0FE0
0FE0
0FE0
0FE0
0FE0
0FE0
0FE0
0FE0
0FE0
0FE0
0FE0
0FE0
0FE0
0FE0
0FE0
0FE0
0FE0
0FE0
0FE0
0FE0
0FE0
0FE0
0FE0
0FE0
0FE0
0FE0
0FE0
0FE0
0FE0
0FE0
ENDCHAR
STARTCHAR 03AB
ENCODING 939
SWIDTH 676 0
DWIDTH 31 0
BBX 29 40 1 0
BITMAP
01F03C00
01F03C00
01F03C00
01F03C00
01F03C00
00000000
00000000
00000000
FE0003F8
7F0007F0
7F0007E0
3F800FE0
3F800FC0
1FC01FC0
0FC03F80
0FE03F80
07E07F00
07F07E00
03F0FE00
01F8FC00
01F9FC00
00FDF800
00FFF000
007FF000
003FE000
003FE000
001FC000
001FC000
001FC000
001FC000
001FC000
001FC000
001FC000
001FC000
001FC000
001FC000
001FC000
001FC000
001FC000
001FC000
ENDCHAR
STARTCHAR 03AC
ENCODING 940
SWIDTH 610 0
DWIDTH 28 0
BBX 26 35 2 0
BITMAP
000F8000
001F8000
001F0000
001E0000
001E0000
003C0000
00380000
00000000
00000000
00000000
03F80FC0
0FFE1F80
1FFF1F80
3FFF9F00
7F8FFF00
7F07FF00
7E03FE00
FE01FE00
FE01FE00
FE01FC00
FC01FC00
FC00FC00
FC00FC00
FC00FC00
FC01FC00
FE01FC00
FE01FE00
FE01FE00
FE03FE00
7F07FE00
7F8FBF00
3FFF3F00
1FFE3F00
0FFC3F00
03F01F80
ENDCHAR
STARTCHAR 03AD
ENCODING 941
SWIDTH 458 0
DWIDTH 21 0
BBX 19 35 2 0
BITMAP
007C00
00FC00
00F800
00F000
00F000
01E000
01C000
000000
000000
000000
03FC00
1FFF00
3FFF80
7FFFC0
7F07C0
7E0380
FC0100
7E0000
7E0000
7F8000
3FFC00
0FFC00
0FFC00
3FFC00
7F8000
FE0000
FC0000
FC0000
FC0100
FE0380
FF0FE0
7FFFE0
7FFF80
1FFF00
07F800
ENDCHAR
STARTCHAR 03AE
ENCODING 942
SWIDTH 610 0
DWIDTH 28 0
BBX 22 45 3 -10
BITMAP
000F80
001F80
001F00
001E00
001E00
003C00
003800
000000
000000
000000
FC1FC0
FC7FF0
FCFFF8
FDFFF8
FFFFFC
FFC3FC
FF01FC
FF00FC
FE00FC
FE00FC
FE00FC
FE00FC
FE00FC
FE00FC
FE00FC
FE00FC
FE00FC
FE00FC
FE00FC
FE00FC
FE00FC
FE00FC
FE00FC
FE00FC
FE00FC
0000FC
0000FC
0000FC
0000FC
0000FC
0000FC
0000FC
0000FC
0000FC
0000FC
ENDCHAR
STARTCHAR 03AF
ENCODING 943
SWIDTH 283 0
DWIDTH 13 0
BBX 8 35 3 0
BITMAP
1F
3F
3E
3C
3C
78
70
00
00
00
FC
FC
FC
FC
FC
FC
FC
FC
FC
FC
FC
FC
FC
FC
FC
FC
FC
FC
FC
FC
FC
FE
FE
7E
7F
ENDCHAR
STARTCHAR 03B0
ENCODING 944
SWIDTH 589 0
DWIDTH 27 0
BBX 22 37 3 0
BITMAP
007E00
007C00
007C00
007C00
3E7BE0
3E7BE0
3EF3E0
3EF3E0
3EE3E0
00E000
000000
000000
FC07E0
FC03F0
FC03F0
FC03F8
FC01F8
FC01F8
FC01F8
FC01FC
FC01FC
FC00FC
FC00FC
FC00FC
FC01FC
FC01FC
FC01FC
FC01FC
FC01F8
FE01F8
FE03F8
7F07F0
7FFFF0
3FFFE0
3FFFC0
0FFF80
03FC00
ENDCHAR
STARTCHAR 03B1
ENCODING 945
SWIDTH 610 0
DWIDTH 28 0
BBX 26 25 2 0
BITMAP
03F80FC0
0FFE1F80
1FFF1F80
3FFF9F00
7F8FFF00
7F07FF00
7E03FE00
FE01FE00
FE01FE00
FE01FC00
FC01FC00
FC00FC00
FC00FC00
FC00FC00
FC01FC00
FE01FC00
FE01FE00
FE01FE00
FE03FE00
7F07FE00
7F8FBF00
3FFF3F00
1FFE3F00
0FFC3F00
03F01F80
ENDCHAR
STARTCHAR 03B2
ENCODING 946
SWIDTH 610 0
DWIDTH 28 0
BBX 24 43 3 -10
BITMAP
01FF00
0FFFC0
1FFFE0
3FFFF0
7FFFF8
7F83F8
7F01F8
FE01F8
FE01F8
FE01F8
FE01F8
FE03F0
FE0FF0
FE3FC0
FE3F80
FE3FE0
FE3FF0
FE07F8
FE01FC
FE00FE
FE007E
FE007E
FE007E
FE007F
FE007E
FE007E
FE007E
FE00FE
FF81FC
FFFFFC
FFFFF8
FCFFE0
FC3F80
FC0000
FE0000
FE0000
FE0000
FE0000
FE0000
FE0000
FE0000
FE0000
FE0000
ENDCHAR
STARTCHAR 03B3
ENCODING 947
SWIDTH 567 0
DWIDTH 26 0
BBX 25 35 0 -10
BITMAP
FE001F80
7E003F80
7F003F00
7F003F00
3F007F00
3F807E00
1F807E00
1F80FE00
1FC0FC00
0FC0FC00
0FC0FC00
0FE1F800
07E1F800
07E1F000
03E3F000
03F3F000
03F3E000
01F3E000
01F7E000
01FFC000
00FFC000
00FF8000
007F8000
007F8000
007F0000
007F0000
007F0000
007E0000
007E0000
00FE0000
00FE0000
00FC0000
00FC0000
01FC0000
01FC0000
ENDCHAR
STARTCHAR 03B4
ENCODING 948
SWIDTH 610 0
DWIDTH 28 0
BBX 24 33 2 0
BITMAP
1FFFFE
1FFFFE
1FFFFE
0FFFFE
07F000
03F800
01FC00
00FE00
007F00
003FC0
003FE0
01FFF0
03FFF8
0FF7F8
1FC3FC
3F81FE
7F00FE
7F00FE
FE007F
FE007F
FE007F
FC007F
FC007F
FE007F
FE007F
FE007E
7E007E
7F00FE
3F83FC
3FFFF8
1FFFF0
07FFE0
00FF00
ENDCHAR
STARTCHAR 03B5
ENCODING 949
SWIDTH 480 0
DWIDTH 22 0
BBX 19 25 2 0
BITMAP
03FC00
1FFF00
3FFF80
7FFFC0
7F07C0
7E0380
FC0100
7E0000
7E0000
7F8000
3FFC00
0FFC00
0FFC00
3FFC00
7F8000
FE0000
FC0000
FC0000
FC0100
FE0380
FF0FE0
7FFFE0
7FFF80
1FFF00
07F800
ENDCHAR
STARTCHAR 03B6
ENCODING 950
SWIDTH 458 0
DWIDTH 21 0
BBX 19 42 1 -9
BITMAP
1FFFE0
1FFFE0
1FFFE0
1FFFE0
000FC0
001F80
003F00
003E00
007C00
00FC00
01F800
03F000
03E000
07C000
0FC000
0F8000
1F8000
1F0000
3F0000
3E0000
7E0000
7E0000
7C0000
7C0000
7C0000
FE0000
7E0000
7F8000
7FF800
3FFF00
3FFF80
0FFFC0
03FFE0
003FE0
0007E0
0003E0
0003E0
0003E0
0003E0
0003E0
0003C0
0000C0
ENDCHAR
STARTCHAR 03B7
ENCODING 951
SWIDTH 610 0
DWIDTH 28 0
BBX 22 35 3 -10
BITMAP
FC1FC0
FC7FF0
FCFFF8
FDFFF8
FFFFFC
FFC3FC
FF01FC
FF00FC
FE00FC
FE00FC
FE00FC
FE00FC
FE00FC
FE00FC
FE00FC
FE00FC
FE00FC
FE00FC
FE00FC
FE00FC
FE00FC
FE00FC
FE00FC
FE00FC
FE00FC
0000FC
0000FC
0000FC
0000FC
0000FC
0000FC
0000FC
0000FC
0000FC
0000FC
ENDCHAR
STARTCHAR 03B8
ENCODING 952
SWIDTH 545 0
DWIDTH 25 0
BBX 21 33 2 0
BITMAP
01FC00
07FF00
0FFF80
1FFFC0
3F8FE0
3F07E0
7E03E0
7E03F0
7E03F0
7E03F0
FC03F0
FC01F8
FC01F8
FC01F8
FFFFF8
FFFFF8
FFFFF8
FFFFF8
FC01F8
FC01F8
FC01F8
FC03F8
FC03F0
7E03F0
7E03F0
7E03F0
7E07E0
3F07E0
3F8FC0
1FFFC0
0FFF80
07FF00
01FC00
ENDCHAR
STARTCHAR 03B9
ENCODING 953
SWIDTH 283 0
DWIDTH 13 0
BBX 8 25 3 0
BITMAP
FC
FC
FC
FC
FC
FC
FC
FC
FC
FC
FC
FC
FC
FC
FC
FC
FC
FC
FC
FC
FC
FE
FE
7E
7F
ENDCHAR
STARTCHAR 03BA
ENCODING 954
SWIDTH 567 0
DWIDTH 26 0
BBX 22 25 3 0
BITMAP
FE01FC
FE03F8
FE07F0
FE07E0
FE0FC0
FE1FC0
FE3F80
FE3F00
FE7E00
FEFC00
FFFC00
FFFC00
FFFE00
FFFE00
FFFF00
FF3F00
FE1F80
FE1FC0
FE0FC0
FE0FE0
FE07F0
FE03F0
FE03F8
FE01FC
FE00FC
ENDCHAR
STARTCHAR 03BB
ENCODING 955
SWIDTH 567 0
DWIDTH 26 0
BBX 25 35 0 0
BITMAP
1FC00000
1FF00000
1FF80000
1FF80000
0FFC0000
01FE0000
00FE0000
007E0000
007F0000
003F0000
003F0000
001F8000
001F8000
003F8000
003FC000
007FC000
007FC000
00FFE000
00FBE000
01FBF000
01FBF000
03F3F000
03F1F800
03F1F800
07E1F800
07E0FC00
0FC0FC00
0FC0FC00
1FC0FE00
1F807E00
3F807E00
3F007F00
7F003F00
7F003F00
FE003F80
ENDCHAR
STARTCHAR 03BC
ENCODING 956
SWIDTH 610 0
DWIDTH 28 0
BBX 22 35 3 -10
BITMAP
FE00FC
FE00FC
FE00FC
FE00FC
FE00FC
FE00FC
FE00FC
FE00FC
FE00FC
FE00FC
FE00FC
FE00FC
FE00FC
FE00FC
FE01FC
FE01FC
FE01FC
FE01FC
FF03FC
FF87FC
FFFFFC
FFFEFC
FFFEFC
FDFCFC
FEF0FC
FE0000
FE0000
FE0000
FE0000
FE0000
FE0000
FE0000
FE0000
FE0000
FE0000
ENDCHAR
STARTCHAR 03BD
ENCODING 957
SWIDTH 567 0
DWIDTH 26 0
BBX 24 25 0 0
BITMAP
FE00FE
7E007E
7E007E
7F007E
3F007E
3F007F
3F807E
1F807E
1F807E
1FC07E
0FC07E
0FC0FC
0FC0FC
07E0FC
07E1F8
07E1F8
03F3F0
03F3F0
03F7E0
01FFE0
01FFC0
00FF80
00FF80
00FF00
007E00
ENDCHAR
STARTCHAR 03BE
ENCODING 958
SWIDTH 436 0
DWIDTH 20 0
BBX 19 42 1 -9
BITMAP
3FFF80
3FFF80
3FFF80
3FFF80
00FC00
03E000
07C000
0F8000
0F8000
0F8000
0F8000
0FC000
07F800
03FF00
00FF00
007F00
03FF00
07F800
1FC000
3F0000
3E0000
7E0000
7C0000
7C0000
7C0000
FE0000
7E0000
7F8000
7FF000
3FFE00
3FFF80
0FFFC0
03FFE0
003FE0
0007E0
0003E0
0003E0
0003E0
0003E0
0003E0
0003C0
0000C0
ENDCHAR
STARTCHAR 03BF
ENCODING 959
SWIDTH 610 0
DWIDTH 28 0
BBX 24 25 2 0
BITMAP
00FF00
07FFE0
0FFFF0
1FFFF8
3FC1FC
7F00FE
7F007E
7E007F
FE007F
FE007F
FE003F
FC003F
FC003F
FC003F
FE003F
FE007F
FE007F
7E007F
7F00FE
7F00FE
3FC3FC
1FFFF8
0FFFF0
07FFE0
00FF00
ENDCHAR
STARTCHAR 03C0
ENCODING 960
SWIDTH 763 0
DWIDTH 35 0
BBX 33 25 1 0
BITMAP
FFFFFFFF80
FFFFFFFF80
FFFFFFFF80
FFFFFFFF80
83F007E000
03F007E000
03F007E000
03F007E000
03F007E000
03F007E000
03F007E000
03F007E000
03F007E000
03F007E000
03F007E000
03F007E000
03F007E000
03F007E000
07F007E000
07F007E000
07E007F000
07E007FE00
07E003FF00
0FE003FF00
0FE000FF00
ENDCHAR
STARTCHAR 03C1
ENCODING 961
SWIDTH 610 0
DWIDTH 28 0
BBX 24 35 3 -10
BITMAP
01FE00
07FF80
0FFFE0
1FFFF0
3F87F8
7F01FC
7E00FC
FE00FE
FE00FE
FC007E
FC007E
FC007F
FC007F
FC007F
FC007F
FC007E
FC007E
FC00FE
FE00FE
FF01FC
FFC3FC
FFFFF8
FDFFF0
FCFFE0
FC3F80
FC0000
FC0000
FC0000
FC0000
FC0000
FC0000
FC0000
FC0000
FC0000
FC0000
ENDCHAR
STARTCHAR 03C2
ENCODING 962
SWIDTH 523 0
DWIDTH 24 0
BBX 20 34 2 -9
BITMAP
007E00
03FFC0
07FFE0
0FFFF0
1FC3E0
3F81C0
3F0080
7E0000
7E0000
7E0000
FC0000
FC0000
FC0000
FC0000
FC0000
FC0000
FC0000
FC0000
FF0000
FFC000
7FF800
3FFF00
1FFFC0
0FFFE0
03FFE0
003FF0
0007F0
0001F0
0001F0
0001F0
0001F0
0003E0
0003E0
000040
ENDCHAR
STARTCHAR 03C3
ENCODING 963
SWIDTH 676 0
DWIDTH 31 0
BBX 29 25 2 0
BITMAP
007FFFF8
03FFFFF8
07FFFFF8
1FFFFFF8
3FE0F800
3F80FC00
7F00FC00
7F007E00
FE007E00
FE007F00
FE007F00
FC003F00
FC003F00
FC003F00
FC003F00
FE003F00
FE007F00
FE007F00
7F007F00
7F00FE00
3FC3FC00
1FFFFC00
0FFFF800
07FFE000
00FF0000
ENDCHAR
STARTCHAR 03C4
ENCODING 964
SWIDTH 458 0
DWIDTH 21 0
BBX 20 25 0 0
BITMAP
7FFFF0
FFFFF0
FFFFF0
FFFFF0
81F800
01F800
01F800
01F800
01F800
01F800
01F800
01F800
01F800
01F800
01F800
01F800
01F800
01F800
01F800
01F800
01FC00
01FF80
00FFC0
00FFC0
003FC0
ENDCHAR
STARTCHAR 03C5
ENCODING 965
SWIDTH 589 0
DWIDTH 27 0
BBX 22 25 3 0
BITMAP
FC07E0
FC03F0
FC03F0
FC03F8
FC01F8
FC01F8
FC01F8
FC01FC
FC01FC
FC00FC
FC00FC
FC00FC
FC01FC
FC01FC
FC01FC
FC01FC
FC01F8
FE01F8
FE03F8
7F07F0
7FFFF0
3FFFE0
3FFFC0
0FFF80
03FC00
ENDCHAR
STARTCHAR 03C6
ENCODING 966
SWIDTH 720 0
DWIDTH 33 0
BBX 29 35 2 -10
BITMAP
00C0FE00
07C3FF80
0FC7FFC0
1FC7FFE0
3F8FC7E0
7F0FC3F0
7E0F83F0
FE0F81F8
FC0F81F8
FC0F81F8
FC0F81F8
FC0F81F8
FC0F81F8
FC0F81F8
FC0F81F8
FC0F81F8
FC0F83F8
FE0F83F0
7E0F87F0
7F0F87E0
3FCF9FE0
1FFFFFC0
0FFFFF80
07FFFE00
00FFF000
000F8000
000F8000
000F8000
000F8000
000F8000
000F8000
000F8000
000F8000
000F8000
000F8000
ENDCHAR
STARTCHAR 03C7
ENCODING 967
SWIDTH 567 0
DWIDTH 26 0
BBX 25 35 1 -10
BITMAP
FE007F00
FF007F00
FF807E00
FFC0FE00
FFC0FC00
0FE1F800
07E1F800
07F3F000
03F3F000
03FFE000
01FFE000
01FFC000
00FFC000
00FF8000
007F8000
007F0000
007F0000
00FF8000
00FF8000
01FFC000
01F7C000
03F7E000
03F7E000
07E3F000
07E3F000
0FC3F800
0FC1F800
1F81FC00
1F80FC00
3F80FE00
3F007E00
7F007F00
7E007F00
FE003F80
FC003F80
ENDCHAR
STARTCHAR 03C8
ENCODING 968
SWIDTH 763 0
DWIDTH 35 0
BBX 29 41 3 -10
BITMAP
001F8000
001F8000
001F8000
001F8000
001F8000
001F8000
FC1F81F8
FC1F81F8
FC1F81F8
FC1F81F8
FC1F81F8
FC1F81F8
FC1F81F8
FC1F81F8
FC1F81F8
FC1F81F8
FC1F81F8
FC1F81F8
FC1F81F8
FC1F81F8
FC1F81F8
FC1F81F8
FC1F83F8
FC1F83F8
FE1F83F0
7E1F87F0
7F9F8FF0
3FFFFFE0
1FFFFFC0
0FFFFF80
01FFFC00
001F8000
001F8000
001F8000
001F8000
001F8000
001F8000
001F8000
001F8000
001F8000
001F8000
ENDCHAR
STARTCHAR 03C9
ENCODING 969
SWIDTH 850 0
DWIDTH 39 0
BBX 35 25 2 0
BITMAP
006001C000
03F001F000
07F001FC00
1FF001FE00
1FC000FF00
3F80003F80
7F00001FC0
7E00001FC0
FE00000FC0
FE00000FE0
FC01F00FE0
FC01F007E0
FC01F007E0
FC01F007E0
FC01F007E0
FC03F00FE0
FC03F00FE0
FE03F80FE0
7E03F80FC0
7E07FC1FC0
7F8FBE3F80
3FFFBFFF80
1FFF1FFF00
0FFE0FFE00
03F803F800
ENDCHAR
STARTCHAR 03CA
ENCODING 970
SWIDTH 283 0
DWIDTH 13 0
BBX 15 33 -1 0
BITMAP
F83E
F83E
F83E
F83E
F83E
0000
0000
0000
0FC0
0FC0
0FC0
0FC0
0FC0
0FC0
0FC0
0FC0
0FC0
0FC0
0FC0
0FC0
0FC0
0FC0
0FC0
0FC0
0FC0
0FC0
0FC0
0FC0
0FC0
0FE0
0FE0
07E0
07F0
ENDCHAR
STARTCHAR 03CB
ENCODING 971
SWIDTH 589 0
DWIDTH 27 0
BBX 22 33 3 0
BITMAP
3E0F80
3E0F80
3E0F80
3E0F80
3E0F80
000000
000000
000000
FC07E0
FC03F0
FC03F0
FC03F8
FC01F8
FC01F8
FC01F8
FC01FC
FC01FC
FC00FC
FC00FC
FC00FC
FC01FC
FC01FC
FC01FC
FC01FC
FC01F8
FE01F8
FE03F8
7F07F0
7FFFF0
3FFFE0
3FFFC0
0FFF80
03FC00
ENDCHAR
STARTCHAR 03CC
ENCODING 972
SWIDTH 610 0
DWIDTH 28 0
BBX 24 35 2 0
BITMAP
000F80
001F80
001F00
001E00
001E00
003C00
003800
000000
000000
000000
00FF00
07FFE0
0FFFF0
1FFFF8
3FC1FC
7F00FE
7F007E
7E007F
FE007F
FE007F
FE003F
FC003F
FC003F
FC003F
FE003F
FE007F
FE007F
7E007F
7F00FE
7F00FE
3FC3FC
1FFFF8
0FFFF0
07FFE0
00FF00
ENDCHAR
STARTCHAR 03CD
ENCODING 973
SWIDTH 589 0
DWIDTH 27 0
BBX 22 35 3 0
BITMAP
007C00
00FC00
00F800
00F000
00F000
01E000
01C000
000000
000000
000000
FC07E0
FC03F0
FC03F0
FC03F8
FC01F8
FC01F8
FC01F8
FC01FC
FC01FC
FC00FC
FC00FC
FC00FC
FC01FC
FC01FC
FC01FC
FC01FC
FC01F8
FE01F8
FE03F8
7F07F0
7FFFF0
3FFFE0
3FFFC0
0FFF80
03FC00
ENDCHAR
STARTCHAR 03CE
ENCODING 974
SWIDTH 850 0
DWIDTH 39 0
BBX 35 35 2 0
BITMAP
00003E0000
00007E0000
00007C0000
0000780000
0000780000
0000F00000
0000E00000
0000000000
0000000000
0000000000
006001C000
03F001F000
07F001FC00
1FF001FE00
1FC000FF00
3F80003F80
7F00001FC0
7E00001FC0
FE00000FC0
FE00000FE0
FC01F00FE0
FC01F007E0
FC01F007E0
FC01F007E0
FC01F007E0
FC03F00FE0
FC03F00FE0
FE03F80FE0
7E03F80FC0
7E07FC1FC0
7F8FBE3F80
3FFFBFFF80
1FFF1FFF00
0FFE0FFE00
03F803F800
ENDCHAR
STARTCHAR 0401
ENCODING 1025
SWIDTH 676 0
DWIDTH 31 0
BBX 26 40 3 0
BITMAP
07C0F000
07C0F000
07C0F000
07C0F000
07C0F000
00000000
00000000
00000000
FFFFFF80
FFFFFF80
FFFFFF80
FFFFFF80
FFFFFF80
FE000000
FE000000
FE000000
FE000000
FE000000
FE000000
FE000000
FE000000
FFFFFF00
FFFFFF00
FFFFFF00
FFFFFF00
FFFFFF00
FE000000
FE000000
FE000000
FE000000
FE000000
FE000000
FE000000
FE000000
FE000000
FFFFFFC0
FFFFFFC0
FFFFFFC0
FFFFFFC0
FFFFFFC0
ENDCHAR
STARTCHAR 0402
ENCODING 1026
SWIDTH 894 0
DWIDTH 41 0
BBX 37 32 1 0
BITMAP
FFFFFFE000
FFFFFFE000
FFFFFFE000
FFFFFFE000
FFFFFFE000
003F000000
003F000000
003F000000
003F000000
003F000000
003F03FE00
003F1FFFC0
003FFFFFE0
003FFFFFF0
003FFFFFF0
003FF00FF8
003F8003F8
003F0003F8
003F0001F8
003F0001F8
003F0001F8
003F0001F8
003F0001F8
003F0001F8
003F0201F8
003F0703F8
003F0F87F8
003F1FFFF0
003F1FFFF0
003F0FFFE0
003F07FFC0
003F00FE00
ENDCHAR
STARTCHAR 0403
ENCODING 1027
SWIDTH 567 0
DWIDTH 26 0
BBX 22 41 3 0
BITMAP
000FC0
001FC0
003F80
007E00
007C00
00F800
01E000
000000
000000
FFFFFC
FFFFFC
FFFFFC
FFFFFC
FFFFFC
FE0000
FE0000
FE0000
FE0000
FE0000
FE0000
FE0000
FE0000
FE0000
FE0000
FE0000
FE0000
FE0000
FE0000
FE0000
FE0000
FE0000
FE0000
FE0000
FE0000
FE0000
FE0000
FE0000
FE0000
FE0000
FE0000
FE0000
ENDCHAR
STARTCHAR 0404
ENCODING 1028
SWIDTH 720 0
DWIDTH 33 0
BBX 29 32 2 0
BITMAP
001FF000
00FFFE00
03FFFF80
0FFFFFC0
1FFFFFE0
1FF01FF0
3FC007F0
7F8003F8
7F0001F8
7E000180
FE000000
FE000000
FE000000
FFFFE000
FFFFE000
FFFFE000
FFFFE000
FFFFE000
FE000000
FE000000
FE000000
7E000080
7F0001F0
7F0001F8
3F8003F8
3FC007F0
1FF01FF0
0FFFFFE0
07FFFFC0
03FFFF80
00FFFE00
001FF000
ENDCHAR
STARTCHAR 0405
ENCODING 1029
SWIDTH 676 0
DWIDTH 31 0
BBX 28 32 1 0
BITMAP
007FF000
03FFFE00
07FFFF00
0FFFFF80
1FFFFFC0
3FE07FC0
3F801FE0
3F000FE0
3F000F00
3F000000
3F800000
3FE00000
1FFC0000
1FFFC000
0FFFFC00
07FFFF00
01FFFF80
001FFFC0
0001FFE0
00001FE0
00000FF0
000007F0
0E0007F0
FE0007F0
7F0007F0
7F800FE0
3FE01FE0
3FFFFFE0
1FFFFFC0
0FFFFF80
03FFFE00
007FF000
ENDCHAR
STARTCHAR 0406
ENCODING 1030
SWIDTH 283 0
DWIDTH 13 0
BBX 7 32 3 0
BITMAP
FE
FE
FE
FE
FE
FE
FE
FE
FE
FE
FE
FE
FE
FE
FE
FE
FE
FE
FE
FE
FE
FE
FE
FE
FE
FE
FE
FE
FE
FE
FE
FE
ENDCHAR
STARTCHAR 0407
ENCODING 1031
SWIDTH 283 0
DWIDTH 13 0
BBX 15 40 -1 0
BITMAP
F81E
F81E
F81E
F81E
F81E
0000
0000
0000
0FE0
0FE0
0FE0
0FE0
0FE0
0FE0
0FE0
0FE0
0FE0
0FE0
0FE0
0FE0
0FE0
0FE0
0FE0
0FE0
0FE0
0FE0
0FE0
0FE0
0FE0
0FE0
0FE0
0FE0
0FE0
0FE0
0FE0
0FE0
0FE0
0FE0
0FE0
0FE0
ENDCHAR
STARTCHAR 0408
ENCODING 1032
SWIDTH 567 0
DWIDTH 26 0
BBX 21 32 1 0
BITMAP
007FF8
007FF8
007FF8
007FF8
007FF8
0001F8
0001F8
0001F8
0001F8
0001F8
0001F8
0001F8
0001F8
0001F8
0001F8
0001F8
0001F8
0001F8
0001F8
0001F8
0001F8
0001F8
1C01F8
FE01F8
FE03F8
FF03F8
7F87F8
7FFFF0
3FFFE0
1FFFC0
0FFF80
01FE00
ENDCHAR
STARTCHAR 0409
ENCODING 1033
SWIDTH 1090 0
DWIDTH 50 0
BBX 49 32 0 0
BITMAP
00FFFFF0000000
00FFFFF0000000
01FFFFF0000000
01FFFFF0000000
01FFFFF0000000
01FC07F0000000
01F807F0000000
01F807F0000000
01F807F0000000
03F807F0000000
03F807F0000000
03F807F0000000
03F807F0000000
03F007FFFFC000
03F007FFFFF000
03F007FFFFFC00
07F007FFFFFE00
07F007FFFFFF00
07F007F001FF00
07F007F0007F00
07E007F0003F80
0FE007F0003F80
0FE007F0003F80
0FE007F0003F80
0FC007F0003F00
1FC007F0007F00
3FC007F001FF00
FF8007FFFFFE00
FF8007FFFFFC00
FF0007FFFFF800
FE0007FFFFF000
FC0007FFFF8000
ENDCHAR
STARTCHAR 040A
ENCODING 1034
SWIDTH 1069 0
DWIDTH 49 0
BBX 44 32 3 0
BITMAP
FE001FC00000
FE001FC00000
FE001FC00000
FE001FC00000
FE001FC00000
FE001FC00000
FE001FC00000
FE001FC00000
FE001FC00000
FE001FC00000
FE001FC00000
FE001FC00000
FE001FC00000
FFFFFFFFF800
FFFFFFFFFF00
FFFFFFFFFF80
FFFFFFFFFFC0
FFFFFFFFFFE0
FE001FC01FF0
FE001FC00FF0
FE001FC007F0
FE001FC007F0
FE001FC007F0
FE001FC007F0
FE001FC007F0
FE001FC00FF0
FE001FC01FE0
FE001FFFFFE0
FE001FFFFFC0
FE001FFFFF80
FE001FFFFE00
FE001FFFF800
ENDCHAR
STARTCHAR 040B
ENCODING 1035
SWIDTH 872 0
DWIDTH 40 0
BBX 36 32 1 0
BITMAP
FFFFFFE000
FFFFFFE000
FFFFFFE000
FFFFFFE000
FFFFFFE000
003F000000
003F000000
003F000000
003F000000
003F000000
003F000000
003F07FC00
003F7FFF00
003FFFFFC0
003FFFFFC0
003FFFFFE0
003FE01FF0
003F000FF0
003F0007F0
003F0003F0
003F0003F0
003F0003F0
003F0003F0
003F0003F0
003F0003F0
003F0003F0
003F0003F0
003F0003F0
003F0003F0
003F0003F0
003F0003F0
003F0003F0
ENDCHAR
STARTCHAR 040C
ENCODING 1036
SWIDTH 610 0
DWIDTH 28 0
BBX 25 42 3 0
BITMAP
0003F000
0007F000
000FE000
001F8000
001F0000
003E0000
00780000
00000000
00000000
00000000
FE007F00
FE00FE00
FE00FC00
FE01FC00
FE01F800
FE03F800
FE07F000
FE07E000
FE0FE000
FE1FC000
FE1F8000
FE3F8000
FE7F0000
FEFE0000
FFFC0000
FFFE0000
FFFE0000
FFBF0000
FE3F8000
FE1F8000
FE1FC000
FE0FE000
FE07E000
FE07F000
FE03F000
FE03F800
FE01FC00
FE01FC00
FE00FE00
FE007F00
FE007F00
FE003F80
ENDCHAR
STARTCHAR 040E
ENCODING 1038
SWIDTH 632 0
DWIDTH 29 0
BBX 29 43 0 0
BITMAP
07C03E00
07C03E00
07C07C00
07C07C00
03F0FC00
03FFF800
01FFF000
003FC000
00000000
00000000
00000000
FE0003F8
7F0003F0
7F0007F0
3F8007E0
1F800FE0
1FC00FC0
0FC00FC0
0FE01F80
07E01F80
07F03F00
03F83F00
01F83F00
01FC7E00
00FC7E00
00FEFC00
007EFC00
007FF800
003FF800
001FF000
001FF000
000FE000
000FE000
000FC000
000FC000
001F8000
001F8000
087F0000
1FFF0000
1FFE0000
3FFC0000
3FF80000
0FE00000
ENDCHAR
STARTCHAR 040F
ENCODING 1039
SWIDTH 720 0
DWIDTH 33 0
BBX 27 41 3 -9
BITMAP
FE0007E0
FE0007E0
FE0007E0
FE0007E0
FE0007E0
FE0007E0
FE0007E0
FE0007E0
FE0007E0
FE0007E0
FE0007E0
FE0007E0
FE0007E0
FE0007E0
FE0007E0
FE0007E0
FE0007E0
FE0007E0
FE0007E0
FE0007E0
FE0007E0
FE0007E0
FE0007E0
FE0007E0
FE0007E0
FE0007E0
FE0007E0
FFFFFFE0
FFFFFFE0
FFFFFFE0
FFFFFFE0
FFFFFFE0
001F0000
001F0000
001F0000
001F0000
001F0000
001F0000
001F0000
001F0000
001F0000
ENDCHAR
STARTCHAR 0410
ENCODING 1040
SWIDTH 720 0
DWIDTH 33 0
BBX 31 32 1 0
BITMAP
001FF000
001FF000
001FF000
003FF800
003FF800
003EF800
007EFC00
007EFC00
007E7E00
00FC7E00
00FC7E00
00FC3F00
01F83F00
01F83F00
03F81F80
03F01F80
03F01F80
07F00FC0
07E00FC0
07FFFFE0
0FFFFFE0
0FFFFFE0
0FFFFFF0
1FFFFFF0
1F8003F0
3F8003F8
3F8001F8
3F0001F8
7F0001FC
7F0000FC
7E0000FC
FE0000FE
ENDCHAR
STARTCHAR 0411
ENCODING 1041
SWIDTH 720 0
DWIDTH 33 0
BBX 28 32 3 0
BITMAP
FFFFFF00
FFFFFF00
FFFFFF00
FFFFFF00
FFFFFF00
FE000000
FE000000
FE000000
FE000000
FE000000
FE000000
FE000000
FE000000
FFFFFC00
FFFFFF00
FFFFFFC0
FFFFFFE0
FFFFFFE0
FE001FF0
FE0007F0
FE0007F0
FE0003F0
FE0003F0
FE0003F0
FE0007F0
FE0007F0
FE001FF0
FFFFFFE0
FFFFFFC0
FFFFFF80
FFFFFF00
FFFFF800
ENDCHAR
STARTCHAR 0412
ENCODING 1042
SWIDTH 720 0
DWIDTH 33 0
BBX 28 32 3 0
BITMAP
FFFFF000
FFFFFC00
FFFFFF00
FFFFFF80
FFFFFFC0
FE007FC0
FE001FC0
FE001FC0
FE000FC0
FE000FC0
FE001FC0
FE001FC0
FE007F80
FFFFFF00
FFFFFE00
FFFFF800
FFFFFF00
FFFFFFC0
FE001FE0
FE000FE0
FE0007F0
FE0007F0
FE0007F0
FE0007F0
FE0007F0
FE000FF0
FE001FE0
FFFFFFE0
FFFFFFC0
FFFFFF80
FFFFFE00
FFFFF800
ENDCHAR
STARTCHAR 0413
ENCODING 1043
SWIDTH 567 0
DWIDTH 26 0
BBX 22 32 3 0
BITMAP
FFFFFC
FFFFFC
FFFFFC
FFFFFC
FFFFFC
FE0000
FE0000
FE0000
FE0000
FE0000
FE0000
FE0000
FE0000
FE0000
FE0000
FE0000
FE0000
FE0000
FE0000
FE0000
FE0000
FE0000
FE0000
FE0000
FE0000
FE0000
FE0000
FE0000
FE0000
FE0000
FE0000
FE0000
ENDCHAR
STARTCHAR 0414
ENCODING 1044
SWIDTH 720 0
DWIDTH 33 0
BBX 32 41 0 -9
BITMAP
003FFFF0
003FFFF0
003FFFF0
003FFFF0
007FFFF0
007E07F0
007E07F0
007E07F0
007E07F0
007E07F0
007E07F0
00FE07F0
00FE07F0
00FC07F0
00FC07F0
00FC07F0
00FC07F0
01FC07F0
01F807F0
01F807F0
03F807F0
03F807F0
03F007F0
07F007F0
07F007F0
07E007F0
0FE007F0
FFFFFFFF
FFFFFFFF
FFFFFFFF
FFFFFFFF
FFFFFFFF
FC00003F
FC00003F
FC00003F
FC00003F
FC00003F
FC00003F
FC00003F
FC00003F
FC00003F
ENDCHAR
STARTCHAR 0415
ENCODING 1045
SWIDTH 676 0
DWIDTH 31 0
BBX 26 32 3 0
BITMAP
FFFFFF80
FFFFFF80
FFFFFF80
FFFFFF80
FFFFFF80
FE000000
FE000000
FE000000
FE000000
FE000000
FE000000
FE000000
FE000000
FFFFFF00
FFFFFF00
FFFFFF00
FFFFFF00
FFFFFF00
FE000000
FE000000
FE000000
FE000000
FE000000
FE000000
FE000000
FE000000
FE000000
FFFFFFC0
FFFFFFC0
FFFFFFC0
FFFFFFC0
FFFFFFC0
ENDCHAR
STARTCHAR 0416
ENCODING 1046
SWIDTH 916 0
DWIDTH 42 0
BBX 42 32 0 0
BITMAP
7F003F003F80
3F003F007F00
3F803F007E00
1FC03F00FE00
0FC03F01FC00
0FE03F01FC00
07E03F03F800
07F03F03F000
03F83F07F000
01F83F0FE000
01FC3F0FE000
00FC3F1FC000
00FE3F3F8000
007F3F7F8000
003FFFFF0000
003FFFFF0000
007FFFFF8000
00FFFFFF8000
00FC3F1FC000
01FC3F0FC000
01F83F0FE000
03F83F07F000
07F03F03F000
07F03F03F800
0FE03F01F800
0FE03F01FC00
1FC03F00FE00
3F803F00FE00
3F803F007F00
7F003F007F00
7F003F003F80
FE003F003FC0
ENDCHAR
STARTCHAR 0417
ENCODING 1047
SWIDTH 632 0
DWIDTH 29 0
BBX 26 32 1 0
BITMAP
007FC000
01FFF800
07FFFC00
0FFFFE00
1FFFFF00
3FE0FF00
3F803F80
7F003F80
7E003F80
06003F80
00003F80
00007F00
0000FE00
001FFC00
001FF800
001FF000
001FFC00
001FFF00
0000FF80
00003F80
00001F80
04001FC0
3E001FC0
FE001FC0
7F001FC0
7F803F80
3FE0FF80
3FFFFF00
1FFFFE00
0FFFFC00
03FFF800
007FC000
ENDCHAR
STARTCHAR 0418
ENCODING 1048
SWIDTH 720 0
DWIDTH 33 0
BBX 27 32 3 0
BITMAP
FC001FE0
FC001FE0
FC003FE0
FC003FE0
FC007FE0
FC00FFE0
FC00FFE0
FC01FFE0
FC01F7E0
FC03F7E0
FC03E7E0
FC07E7E0
FC07C7E0
FC0FC7E0
FC0F87E0
FC1F87E0
FC3F07E0
FC3F07E0
FC7E07E0
FC7C07E0
FCFC07E0
FCF807E0
FDF807E0
FDF007E0
FFF007E0
FFE007E0
FFE007E0
FFC007E0
FFC007E0
FF8007E0
FF0007E0
FF0007E0
ENDCHAR
STARTCHAR 0419
ENCODING 1049
SWIDTH 720 0
DWIDTH 33 0
BBX 27 43 3 0
BITMAP
07C03E00
07C03E00
07C07C00
07C07C00
03F0FC00
03FFF800
01FFF000
003FC000
00000000
00000000
00000000
FC001FE0
FC001FE0
FC003FE0
FC003FE0
FC007FE0
FC00FFE0
FC00FFE0
FC01FFE0
FC01F7E0
FC03F7E0
FC03E7E0
FC07E7E0
FC07C7E0
FC0FC7E0
FC0F87E0
FC1F87E0
FC3F07E0
FC3F07E0
FC7E07E0
FC7C07E0
FCFC07E0
FCF807E0
FDF807E0
FDF007E0
FFF007E0
FFE007E0
FFE007E0
FFC007E0
FFC007E0
FF8007E0
FF0007E0
FF0007E0
ENDCHAR
STARTCHAR 041A
ENCODING 1050
SWIDTH 610 0
DWIDTH 28 0
BBX 25 32 3 0
BITMAP
FE007F00
FE00FE00
FE00FC00
FE01FC00
FE01F800
FE03F800
FE07F000
FE07E000
FE0FE000
FE1FC000
FE1F8000
FE3F8000
FE7F0000
FEFE0000
FFFC0000
FFFE0000
FFFE0000
FFBF0000
FE3F8000
FE1F8000
FE1FC000
FE0FE000
FE07E000
FE07F000
FE03F000
FE03F800
FE01FC00
FE01FC00
FE00FE00
FE007F00
FE007F00
FE003F80
ENDCHAR
STARTCHAR 041B
ENCODING 1051
SWIDTH 698 0
DWIDTH 32 0
BBX 29 32 0 0
BITMAP
00FFFFF8
00FFFFF8
01FFFFF8
01FFFFF8
01FFFFF8
01FC01F8
01F801F8
01F801F8
01F801F8
03F801F8
03F801F8
03F801F8
03F801F8
03F001F8
03F001F8
03F001F8
07F001F8
07F001F8
07F001F8
07F001F8
07E001F8
0FE001F8
0FE001F8
0FE001F8
0FC001F8
1FC001F8
3FC001F8
FF8001F8
FF8001F8
FF0001F8
FE0001F8
FC0001F8
ENDCHAR
STARTCHAR 041C
ENCODING 1052
SWIDTH 829 0
DWIDTH 38 0
BBX 32 32 3 0
BITMAP
FF8001FF
FF8001FF
FFC001FF
FFC003FF
FFC003FF
FFE003FF
FFE007DF
FFE007FF
FFF007FF
FDF00FFF
FDF00FBF
FDF80FBF
FCF80FBF
FCF81FBF
FCFC1F3F
FCFC1F3F
FC7C3F3F
FC7C3E3F
FC7E3E3F
FC3E7E3F
FC3E7C3F
FC3F7C3F
FC1F7C3F
FC1FF83F
FC1FF83F
FC0FF83F
FC0FF03F
FC0FF03F
FC07F03F
FC07E03F
FC07E03F
FC03E03F
ENDCHAR
STARTCHAR 041D
ENCODING 1053
SWIDTH 720 0
DWIDTH 33 0
BBX 27 32 3 0
BITMAP
FE000FE0
FE000FE0
FE000FE0
FE000FE0
FE000FE0
FE000FE0
FE000FE0
FE000FE0
FE000FE0
FE000FE0
FE000FE0
FE000FE0
FE000FE0
FFFFFFE0
FFFFFFE0
FFFFFFE0
FFFFFFE0
FFFFFFE0
FE000FE0
FE000FE0
FE000FE0
FE000FE0
FE000FE0
FE000FE0
FE000FE0
FE000FE0
FE000FE0
FE000FE0
FE000FE0
FE000FE0
FE000FE0
FE000FE0
ENDCHAR
STARTCHAR 041E
ENCODING 1054
SWIDTH 785 0
DWIDTH 36 0
BBX 32 32 2 0
BITMAP
001FF000
00FFFF00
03FFFF80
07FFFFE0
0FFFFFF0
1FF81FF8
3FE007F8
3F8003FC
7F8001FC
7F0000FE
7E0000FE
FE00007E
FE00007F
FE00007F
FE00007F
FE00007F
FE00007F
FE00007F
FE00007F
FE00007F
FE0000FE
7F0000FE
7F0000FE
7F8001FC
3F8003FC
3FE007F8
1FF81FF8
0FFFFFF0
07FFFFE0
03FFFF80
00FFFE00
001FF000
ENDCHAR
STARTCHAR 041F
ENCODING 1055
SWIDTH 720 0
DWIDTH 33 0
BBX 27 32 3 0
BITMAP
FFFFFFE0
FFFFFFE0
FFFFFFE0
FFFFFFE0
FFFFFFE0
FE0007E0
FE0007E0
FE0007E0
FE0007E0
FE0007E0
FE0007E0
FE0007E0
FE0007E0
FE0007E0
FE0007E0
FE0007E0
FE0007E0
FE0007E0
FE0007E0
FE0007E0
FE0007E0
FE0007E0
FE0007E0
FE0007E0
FE0007E0
FE0007E0
FE0007E0
FE0007E0
FE0007E0
FE0007E0
FE0007E0
FE0007E0
ENDCHAR
STARTCHAR 0420
ENCODING 1056
SWIDTH 676 0
DWIDTH 31 0
BBX 26 32 3 0
BITMAP
FFFFE000
FFFFF800
FFFFFE00
FFFFFF00
FFFFFF80
FE00FF80
FE003FC0
FE001FC0
FE001FC0
FE001FC0
FE001FC0
FE001FC0
FE001FC0
FE001FC0
FE003F80
FE00FF80
FFFFFF00
FFFFFF00
FFFFFE00
FFFFF800
FFFFE000
FE000000
FE000000
FE000000
FE000000
FE000000
FE000000
FE000000
FE000000
FE000000
FE000000
FE000000
ENDCHAR
STARTCHAR 0421
ENCODING 1057
SWIDTH 720 0
DWIDTH 33 0
BBX 30 32 2 0
BITMAP
001FF000
00FFFE00
03FFFF80
07FFFFC0
0FFFFFE0
1FF01FF0
3FC007F8
3F8003F8
7F0001F8
7F0000C0
FE000000
FE000000
FE000000
FE000000
FE000000
FE000000
FE000000
FE000000
FE000000
FE000000
FE000000
7E0000C0
7F0001F0
7F0001FC
3F8003F8
3FC007F8
1FF01FF0
0FFFFFE0
07FFFFC0
03FFFF80
00FFFE00
001FF000
ENDCHAR
STARTCHAR 0422
ENCODING 1058
SWIDTH 610 0
DWIDTH 28 0
BBX 27 32 1 0
BITMAP
FFFFFFE0
FFFFFFE0
FFFFFFE0
FFFFFFE0
FFFFFFE0
003F0000
003F0000
003F0000
003F0000
003F0000
003F0000
003F0000
003F0000
003F0000
003F0000
003F0000
003F0000
003F0000
003F0000
003F0000
003F0000
003F0000
003F0000
003F0000
003F0000
003F0000
003F0000
003F0000
003F0000
003F0000
003F0000
003F0000
ENDCHAR
STARTCHAR 0423
ENCODING 1059
SWIDTH 632 0
DWIDTH 29 0
BBX 29 32 0 0
BITMAP
FE0003F8
7F0003F0
7F0007F0
3F8007E0
1F800FE0
1FC00FC0
0FC00FC0
0FE01F80
07E01F80
07F03F00
03F83F00
01F83F00
01FC7E00
00FC7E00
00FEFC00
007EFC00
007FF800
003FF800
001FF000
001FF000
000FE000
000FE000
000FC000
000FC000
001F8000
001F8000
087F0000
1FFF0000
1FFE0000
3FFC0000
3FF80000
0FE00000
ENDCHAR
STARTCHAR 0424
ENCODING 1060
SWIDTH 850 0
DWIDTH 39 0
BBX 36 32 2 0
BITMAP
0001F80000
0001F80000
0001F80000
0001F80000
00FFFFE000
07FFFFFC00
0FFFFFFE00
1FFFFFFF80
3FFFFFFF80
7FC1F87FC0
7F01F81FE0
FE01F80FE0
FE01F80FE0
FE01F807E0
FC01F807F0
FC01F807F0
FC01F807F0
FC01F807F0
FE01F807E0
FE01F80FE0
FF01F80FE0
7F01F81FC0
7FC1F87FC0
3FFFFFFF80
1FFFFFFF00
0FFFFFFE00
03FFFFFC00
00FFFFE000
0001F80000
0001F80000
0001F80000
0001F80000
ENDCHAR
STARTCHAR 0425
ENCODING 1061
SWIDTH 676 0
DWIDTH 31 0
BBX 29 32 1 0
BITMAP
7F0007F0
7F000FE0
3F800FE0
1F801FC0
1FC01FC0
0FE03F80
07E07F00
07F07F00
03F0FE00
03F8FC00
01FDFC00
00FFF800
00FFF800
007FF000
003FE000
003FE000
003FE000
007FF000
00FFF800
00FFF800
01FDFC00
03F8FE00
03F0FE00
07F07F00
0FE03F00
0FE03F80
1FC01FC0
3F801FC0
3F800FE0
7F0007F0
FE0007F0
FE0003F8
ENDCHAR
STARTCHAR 0426
ENCODING 1062
SWIDTH 741 0
DWIDTH 34 0
BBX 30 41 3 -9
BITMAP
FE001FC0
FE001FC0
FE001FC0
FE001FC0
FE001FC0
FE001FC0
FE001FC0
FE001FC0
FE001FC0
FE001FC0
FE001FC0
FE001FC0
FE001FC0
FE001FC0
FE001FC0
FE001FC0
FE001FC0
FE001FC0
FE001FC0
FE001FC0
FE001FC0
FE001FC0
FE001FC0
FE001FC0
FE001FC0
FE001FC0
FE001FC0
FFFFFFFC
FFFFFFFC
FFFFFFFC
FFFFFFFC
FFFFFFFC
0000007C
0000007C
0000007C
0000007C
0000007C
0000007C
0000007C
0000007C
0000007C
ENDCHAR
STARTCHAR 0427
ENCODING 1063
SWIDTH 698 0
DWIDTH 32 0
BBX 27 32 2 0
BITMAP
FE0007E0
FE0007E0
FE0007E0
FE0007E0
FE0007E0
FE0007E0
FE0007E0
FE0007E0
FE0007E0
FE0007E0
FE0007E0
FE0007E0
7E0007E0
7E0007E0
7F0007E0
7FC03FE0
3FFFFFE0
3FFFFFE0
1FFFFFE0
0FFFF7E0
01FF07E0
000007E0
000007E0
000007E0
000007E0
000007E0
000007E0
000007E0
000007E0
000007E0
000007E0
000007E0
ENDCHAR
STARTCHAR 0428
ENCODING 1064
SWIDTH 1003 0
DWIDTH 46 0
BBX 40 32 3 0
BITMAP
FC007E003F
FC007E003F
FC007E003F
FC007E003F
FC007E003F
FC007E003F
FC007E003F
FC007E003F
FC007E003F
FC007E003F
FC007E003F
FC007E003F
FC007E003F
FC007E003F
FC007E003F
FC007E003F
FC007E003F
FC007E003F
FC007E003F
FC007E003F
FC007E003F
FC007E003F
FC007E003F
FC007E003F
FC007E003F
FC007E003F
FC007E003F
FFFFFFFFFF
FFFFFFFFFF
FFFFFFFFFF
FFFFFFFFFF
FFFFFFFFFF
ENDCHAR
STARTCHAR 0429
ENCODING 1065
SWIDTH 1025 0
DWIDTH 47 0
BBX 44 41 3 -9
BITMAP
FC00FE007E00
FC00FE007E00
FC00FE007E00
FC00FE007E00
FC00FE007E00
FC00FE007E00
FC00FE007E00
FC00FE007E00
FC00FE007E00
FC00FE007E00
FC00FE007E00
FC00FE007E00
FC00FE007E00
FC00FE007E00
FC00FE007E00
FC00FE007E00
FC00FE007E00
FC00FE007E00
FC00FE007E00
FC00FE007E00
FC00FE007E00
FC00FE007E00
FC00FE007E00
FC00FE007E00
FC00FE007E00
FC00FE007E00
FC00FE007E00
FFFFFFFFFFF0
FFFFFFFFFFF0
FFFFFFFFFFF0
FFFFFFFFFFF0
FFFFFFFFFFF0
0000000003F0
0000000003F0
0000000003F0
0000000003F0
0000000003F0
0000000003F0
0000000003F0
0000000003F0
0000000003F0
ENDCHAR
STARTCHAR 042A
ENCODING 1066
SWIDTH 872 0
DWIDTH 40 0
BBX 37 32 1 0
BITMAP
FFFF000000
FFFF000000
FFFF000000
FFFF000000
FFFF000000
003F000000
003F000000
003F000000
003F000000
003F000000
003F000000
003F000000
003F000000
003FFFFE00
003FFFFF80
003FFFFFE0
003FFFFFE0
003FFFFFF0
003F000FF8
003F0007F8
003F0003F8
003F0001F8
003F0001F8
003F0001F8
003F0003F8
003F0003F8
003F000FF0
003FFFFFF0
003FFFFFE0
003FFFFFC0
003FFFFF80
003FFFFC00
ENDCHAR
STARTCHAR 042B
ENCODING 1067
SWIDTH 981 0
DWIDTH 45 0
BBX 39 32 3 0
BITMAP
FE000000FE
FE000000FE
FE000000FE
FE000000FE
FE000000FE
FE000000FE
FE000000FE
FE000000FE
FE000000FE
FE000000FE
FE000000FE
FE000000FE
FE000000FE
FFFFF800FE
FFFFFE00FE
FFFFFF80FE
FFFFFFC0FE
FFFFFFC0FE
FE003FE0FE
FE000FE0FE
FE000FE0FE
FE0007E0FE
FE0007F0FE
FE0007E0FE
FE000FE0FE
FE000FE0FE
FE003FE0FE
FFFFFFC0FE
FFFFFF80FE
FFFFFF00FE
FFFFFE00FE
FFFFF000FE
ENDCHAR
STARTCHAR 042C
ENCODING 1068
SWIDTH 720 0
DWIDTH 33 0
BBX 28 32 3 0
BITMAP
FE000000
FE000000
FE000000
FE000000
FE000000
FE000000
FE000000
FE000000
FE000000
FE000000
FE000000
FE000000
FE000000
FFFFFC00
FFFFFF00
FFFFFFC0
FFFFFFE0
FFFFFFE0
FE001FF0
FE0007F0
FE0007F0
FE0003F0
FE0003F0
FE0003F0
FE0007F0
FE0007F0
FE001FF0
FFFFFFE0
FFFFFFC0
FFFFFF80
FFFFFF00
FFFFF800
ENDCHAR
STARTCHAR 042D
ENCODING 1069
SWIDTH 720 0
DWIDTH 33 0
BBX 30 32 1 0
BITMAP
003FE000
01FFFC00
07FFFF00
0FFFFF80
1FFFFFC0
3FE03FE0
7F800FF0
7F0007F0
7E0003F8
0E0003F8
000001F8
000001F8
000001FC
001FFFFC
001FFFFC
001FFFFC
001FFFFC
001FFFFC
000001FC
000001FC
000001F8
040003F8
3E0003F8
FE0007F0
7F0007F0
7F801FE0
3FE07FE0
1FFFFFC0
0FFFFF80
07FFFF00
01FFFC00
003FE000
ENDCHAR
STARTCHAR 042E
ENCODING 1070
SWIDTH 1025 0
DWIDTH 47 0
BBX 42 32 3 0
BITMAP
FE0001FF0000
FE0007FFE000
FE001FFFF800
FE003FFFFC00
FE007FFFFE00
FE00FF81FF00
FE01FE00FF00
FE01FC007F80
FE03F8003F80
FE03F8001FC0
FE03F0001FC0
FE07F0001FC0
FE07F0001FC0
FFFFF0000FC0
FFFFF0000FC0
FFFFF0000FC0
FFFFF0000FC0
FFFFF0000FC0
FE07F0000FC0
FE07F0001FC0
FE07F0001FC0
FE03F0001FC0
FE03F8001F80
FE03F8003F80
FE01FC007F80
FE01FE00FF00
FE00FF81FE00
FE007FFFFE00
FE003FFFFC00
FE001FFFF000
FE0007FFE000
FE0001FF0000
ENDCHAR
STARTCHAR 042F
ENCODING 1071
SWIDTH 720 0
DWIDTH 33 0
BBX 29 32 1 0
BITMAP
007FFFF8
03FFFFF8
0FFFFFF8
1FFFFFF8
1FFFFFF8
3FE003F8
3F8003F8
3F8003F8
7F0003F8
7F0003F8
7F0003F8
3F0003F8
3F8003F8
3F8003F8
1FE003F8
1FFFFFF8
0FFFFFF8
07FFFFF8
00FFFFF8
00FFFFF8
01FC03F8
01FC03F8
03F803F8
07F003F8
07F003F8
0FE003F8
1FE003F8
1FC003F8
3F8003F8
7F8003F8
7F0003F8
FF0003F8
ENDCHAR
STARTCHAR 0430
ENCODING 1072
SWIDTH 567 0
DWIDTH 26 0
BBX 25 25 1 0
BITMAP
00FF0000
07FFC000
0FFFE000
1FFFF000
3FC3F800
3F81F800
3F01F800
7F01F800
0001F800
0001F800
03FFF800
0FFFF800
3FFFF800
7FFFF800
7F81F800
7F01F800
FE01F800
FE01F800
FE03F800
FE07FC00
7F0FFC00
7FFEFF80
3FFC7F80
1FF87F80
07E01F00
ENDCHAR
STARTCHAR 0431
ENCODING 1073
SWIDTH 610 0
DWIDTH 28 0
BBX 25 33 2 0
BITMAP
00001E00
0007FE00
007FFE00
01FFFE00
07FFFE00
0FFFF000
1FF80000
3F800000
3E000000
7C000000
783FC000
78FFF000
71FFFC00
F3FFFC00
F7C1FE00
FF00FF00
FF007F00
FE007F00
FE003F00
FE003F00
FE003F80
FE003F80
FE003F80
FE003F00
7E003F00
7E007F00
7F007F00
3F00FE00
3FC1FE00
1FFFFC00
0FFFF800
07FFE000
00FF8000
ENDCHAR
STARTCHAR 0432
ENCODING 1074
SWIDTH 610 0
DWIDTH 28 0
BBX 23 25 3 0
BITMAP
FFFF80
FFFFF0
FFFFF8
FFFFFC
FE01FE
FE00FE
FE00FE
FE00FE
FE00FC
FE01FC
FFFFF8
FFFFC0
FFFFF0
FFFFFC
FE01FE
FE00FE
FE007E
FE007E
FE007E
FE007E
FE01FE
FFFFFE
FFFFFC
FFFFF0
FFFFC0
ENDCHAR
STARTCHAR 0433
ENCODING 1075
SWIDTH 414 0
DWIDTH 19 0
BBX 15 25 3 0
BITMAP
FFFE
FFFE
FFFE
FFFE
FE00
FE00
FE00
FE00
FE00
FE00
FE00
FE00
FE00
FE00
FE00
FE00
FE00
FE00
FE00
FE00
FE00
FE00
FE00
FE00
FE00
ENDCHAR
STARTCHAR 0434
ENCODING 1076
SWIDTH 632 0
DWIDTH 29 0
BBX 28 34 0 -9
BITMAP
00FFFF80
00FFFF80
00FFFF80
00FFFF80
01F81F80
01F81F80
01F81F80
01F81F80
01F81F80
01F81F80
03F81F80
03F01F80
03F01F80
03F01F80
03F01F80
07E01F80
07E01F80
07E01F80
0FE01F80
0FC01F80
1FC01F80
FFFFFFF0
FFFFFFF0
FFFFFFF0
FFFFFFF0
FC0001F0
FC0001F0
FC0001F0
FC0001F0
FC0001F0
FC0001F0
FC0001F0
FC0001F0
FC0001F0
ENDCHAR
STARTCHAR 0435
ENCODING 1077
SWIDTH 567 0
DWIDTH 26 0
BBX 22 25 2 0
BITMAP
00FE00
07FF80
0FFFC0
1FFFE0
3F87F0
7F03F0
7E01F8
FE01F8
FE00F8
FC00FC
FFFFFC
FFFFFC
FFFFFC
FFFFFC
FC0000
FC0000
FE0000
FE0000
7E00FC
7F01F8
3F83F8
3FFFF0
1FFFE0
07FFC0
01FE00
ENDCHAR
STARTCHAR 0436
ENCODING 1078
SWIDTH 720 0
DWIDTH 33 0
BBX 33 25 0 0
BITMAP
FC07E03F00
7E07E03F00
7E07E07E00
3F07E07E00
3F07E0FC00
1F87E0FC00
1F87E1F800
0FC7E1F800
07C7E3F000
07E7E7F000
03F7E7E000
03FFFFC000
03FFFFC000
03FFFFE000
07E7E7E000
07E7E3F000
0FC7E3F000
0FC7E1F800
1F87E1F800
1F87E0FC00
3F07E0FE00
7F07E07E00
7E07E07F00
FE07E03F00
FE07E03F80
ENDCHAR
STARTCHAR 0437
ENCODING 1079
SWIDTH 501 0
DWIDTH 23 0
BBX 20 25 1 0
BITMAP
01FC00
0FFF80
1FFFC0
3FFFE0
7F0FE0
7E07F0
7C03F0
0007E0
0007E0
001FC0
01FF80
01FE00
01FF80
01FFC0
001FE0
0007F0
0003F0
1C03F0
FC03F0
7E07F0
7F0FF0
3FFFE0
1FFFC0
0FFF80
03FC00
ENDCHAR
STARTCHAR 0438
ENCODING 1080
SWIDTH 610 0
DWIDTH 28 0
BBX 22 25 3 0
BITMAP
FC01FC
FC01FC
FC03FC
FC03FC
FC07FC
FC07FC
FC0FFC
FC1FFC
FC1FFC
FC3EFC
FC3EFC
FC7CFC
FC7CFC
FCF8FC
FCF8FC
FDF0FC
FFF0FC
FFE0FC
FFC0FC
FFC0FC
FF80FC
FF80FC
FF00FC
FF00FC
FE00FC
ENDCHAR
STARTCHAR 0439
ENCODING 1081
SWIDTH 610 0
DWIDTH 28 0
BBX 22 36 3 0
BITMAP
1F00F8
1F00F8
1F01F0
1F01F0
0FC3F0
0FFFE0
07FFC0
00FF00
000000
000000
000000
FC01FC
FC01FC
FC03FC
FC03FC
FC07FC
FC07FC
FC0FFC
FC1FFC
FC1FFC
FC3EFC
FC3EFC
FC7CFC
FC7CFC
FCF8FC
FCF8FC
FDF0FC
FFF0FC
FFE0FC
FFC0FC
FFC0FC
FF80FC
FF80FC
FF00FC
FF00FC
FE00FC
ENDCHAR
STARTCHAR 043A
ENCODING 1082
SWIDTH 501 0
DWIDTH 23 0
BBX 20 25 3 0
BITMAP
FE07F0
FE07E0
FE0FE0
FE0FC0
FE0F80
FE1F80
FE1F00
FE3F00
FE7E00
FE7E00
FEFC00
FFF800
FFF800
FFFC00
FEFC00
FE7E00
FE7E00
FE3F00
FE3F80
FE1F80
FE1FC0
FE0FC0
FE0FE0
FE07E0
FE07F0
ENDCHAR
STARTCHAR 043B
ENCODING 1083
SWIDTH 632 0
DWIDTH 29 0
BBX 26 25 0 0
BITMAP
01FFFFC0
01FFFFC0
01FFFFC0
01FFFFC0
01F80FC0
01F80FC0
01F00FC0
03F00FC0
03F00FC0
03F00FC0
03F00FC0
03F00FC0
03F00FC0
03E00FC0
07E00FC0
07E00FC0
07E00FC0
07E00FC0
0FC00FC0
0FC00FC0
1FC00FC0
FF800FC0
FF800FC0
FF000FC0
FE000FC0
ENDCHAR
STARTCHAR 043C
ENCODING 1084
SWIDTH 741 0
DWIDTH 34 0
BBX 28 25 3 0
BITMAP
FF801FF0
FF801FF0
FF801FF0
FFC01FF0
FFC03FF0
FBC03DF0
FFE03FF0
FFE07FF0
FDE07FF0
FDF07BF0
FDF0FBF0
FCF0FBF0
FCF0F3F0
FCF9F3F0
FCF9F3F0
FC79E3F0
FC7DE3F0
FC7FE3F0
FC3FE3F0
FC3FC3F0
FC3FC3F0
FC1FC3F0
FC1F83F0
FC1F83F0
FC0F83F0
ENDCHAR
STARTCHAR 043D
ENCODING 1085
SWIDTH 610 0
DWIDTH 28 0
BBX 22 25 3 0
BITMAP
FE01FC
FE01FC
FE01FC
FE01FC
FE01FC
FE01FC
FE01FC
FE01FC
FE01FC
FE01FC
FFFFFC
FFFFFC
FFFFFC
FFFFFC
FE01FC
FE01FC
FE01FC
FE01FC
FE01FC
FE01FC
FE01FC
FE01FC
FE01FC
FE01FC
FE01FC
ENDCHAR
STARTCHAR 043E
ENCODING 1086
SWIDTH 610 0
DWIDTH 28 0
BBX 24 25 2 0
BITMAP
00FF00
07FFE0
0FFFF0
1FFFF8
3FC1FC
7F00FE
7F007E
7E007F
FE007F
FE007F
FE003F
FC003F
FC003F
FC003F
FE003F
FE007F
FE007F
7E007F
7F00FE
7F00FE
3FC3FC
1FFFF8
0FFFF0
07FFE0
00FF00
ENDCHAR
STARTCHAR 043F
ENCODING 1087
SWIDTH 610 0
DWIDTH 28 0
BBX 22 25 3 0
BITMAP
FFFFFC
FFFFFC
FFFFFC
FFFFFC
FE01FC
FE01FC
FE01FC
FE01FC
FE01FC
FE01FC
FE01FC
FE01FC
FE01FC
FE01FC
FE01FC
FE01FC
FE01FC
FE01FC
FE01FC
FE01FC
FE01FC
FE01FC
FE01FC
FE01FC
FE01FC
ENDCHAR
STARTCHAR 0440
ENCODING 1088
SWIDTH 610 0
DWIDTH 28 0
BBX 23 35 3 -10
BITMAP
FC1F80
FC7FE0
FCFFF0
FDFFF8
FFC3FC
FF01FC
FF00FC
FE00FE
FE00FE
FE00FE
FE007E
FC007E
FC007E
FC007E
FE007E
FE00FE
FE00FE
FE00FE
FF00FC
FF01FC
FFC3FC
FDFFF8
FCFFF0
FC7FE0
FE1F80
FE0000
FE0000
FE0000
FE0000
FE0000
FE0000
FE0000
FE0000
FE0000
FE0000
ENDCHAR
STARTCHAR 0441
ENCODING 1089
SWIDTH 567 0
DWIDTH 26 0
BBX 22 25 2 0
BITMAP
00FE00
07FFC0
0FFFE0
1FFFF0
3F87F8
7F01F8
7E01FC
7E00FC
FE0000
FE0000
FC0000
FC0000
FC0000
FC0000
FC0000
FE0000
FE00FC
FE00FC
7E01FC
7F01F8
3F87F8
1FFFF0
0FFFE0
07FF80
01FE00
ENDCHAR
STARTCHAR 0442
ENCODING 1090
SWIDTH 501 0
DWIDTH 23 0
BBX 20 25 1 0
BITMAP
FFFFF0
FFFFF0
FFFFF0
FFFFF0
01F800
01F800
01F800
01F800
01F800
01F800
01F800
01F800
01F800
01F800
01F800
01F800
01F800
01F800
01F800
01F800
01F800
01F800
01F800
01F800
01F800
ENDCHAR
STARTCHAR 0443
ENCODING 1091
SWIDTH 567 0
DWIDTH 26 0
BBX 24 35 1 -10
BITMAP
FC003F
FE007F
FE007E
7E007E
7E00FE
3F00FC
3F00FC
3F00FC
1F81F8
1F81F8
1F81F8
0FC3F0
0FC3F0
07C3E0
07E3E0
07E7E0
03E7C0
03F7C0
01FFC0
01FF80
01FF80
00FF80
00FF00
007F00
007E00
007E00
00FE00
00FC00
01FC00
03F800
7FF800
7FF000
7FE000
7FC000
7F0000
ENDCHAR
STARTCHAR 0444
ENCODING 1092
SWIDTH 872 0
DWIDTH 40 0
BBX 36 43 2 -10
BITMAP
0001F80000
0001F80000
0001F80000
0001F80000
0001F80000
0001F80000
0001F80000
0001F80000
03E1F87E00
0FF9F9FF80
1FFDFBFFC0
3FFFFFFFC0
7F87FF1FE0
7F03FE0FE0
7E03FC07F0
FE01FC07F0
FE01F807F0
FE01F803F0
FC01F803F0
FC01F803F0
FC01F803F0
FC01F803F0
FC01F803F0
FE01F803F0
FE01F807F0
FE01FC07F0
7E03FC07F0
7F03FE0FE0
7F87FF1FE0
3FFFFFFFC0
1FFDFBFFC0
0FF9F9FF00
07E1F87E00
0001F80000
0001F80000
0001F80000
0001F80000
0001F80000
0001F80000
0001F80000
0001F80000
0001F80000
0001F80000
ENDCHAR
STARTCHAR 0445
ENCODING 1093
SWIDTH 567 0
DWIDTH 26 0
BBX 24 25 1 0
BITMAP
FE007E
7E00FE
7F01FC
3F81F8
1F83F8
1FC3F0
0FC7E0
07EFE0
03FFC0
03FF80
01FF80
00FF00
00FE00
01FF00
01FF80
03FF80
07FFC0
07E7E0
0FC7F0
1FC3F0
3F83F8
3F01FC
7F00FC
FE00FE
FC007F
ENDCHAR
STARTCHAR 0446
ENCODING 1094
SWIDTH 610 0
DWIDTH 28 0
BBX 25 34 3 -9
BITMAP
FE01FC00
FE01FC00
FE01FC00
FE01FC00
FE01FC00
FE01FC00
FE01FC00
FE01FC00
FE01FC00
FE01FC00
FE01FC00
FE01FC00
FE01FC00
FE01FC00
FE01FC00
FE01FC00
FE01FC00
FE01FC00
FE01FC00
FE01FC00
FE01FC00
FFFFFF80
FFFFFF80
FFFFFF80
FFFFFF80
00001F80
00001F80
00001F80
00001F80
00001F80
00001F80
00001F80
00001F80
00001F80
ENDCHAR
STARTCHAR 0447
ENCODING 1095
SWIDTH 589 0
DWIDTH 27 0
BBX 22 25 2 0
BITMAP
FC01FC
FC01FC
FC01FC
FC01FC
FC01FC
FC01FC
FC01FC
FC01FC
FC01FC
FC01FC
FE01FC
FF03FC
FFFFFC
7FFFFC
7FFFFC
3FFDFC
0FE1FC
0001FC
0001FC
0001FC
0001FC
0001FC
0001FC
0001FC
0001FC
ENDCHAR
STARTCHAR 0448
ENCODING 1096
SWIDTH 829 0
DWIDTH 38 0
BBX 32 25 3 0
BITMAP
FC07E03F
FC07E03F
FC07E03F
FC07E03F
FC07E03F
FC07E03F
FC07E03F
FC07E03F
FC07E03F
FC07E03F
FC07E03F
FC07E03F
FC07E03F
FC07E03F
FC07E03F
FC07E03F
FC07E03F
FC07E03F
FC07E03F
FC07E03F
FC07E03F
FFFFFFFF
FFFFFFFF
FFFFFFFF
FFFFFFFF
ENDCHAR
STARTCHAR 0449
ENCODING 1097
SWIDTH 850 0
DWIDTH 39 0
BBX 35 34 3 -9
BITMAP
FC07E03F00
FC07E03F00
FC07E03F00
FC07E03F00
FC07E03F00
FC07E03F00
FC07E03F00
FC07E03F00
FC07E03F00
FC07E03F00
FC07E03F00
FC07E03F00
FC07E03F00
FC07E03F00
FC07E03F00
FC07E03F00
FC07E03F00
FC07E03F00
FC07E03F00
FC07E03F00
FC07E03F00
FFFFFFFFE0
FFFFFFFFE0
FFFFFFFFE0
FFFFFFFFE0
00000003E0
00000003E0
00000003E0
00000003E0
00000003E0
00000003E0
00000003E0
00000003E0
00000003E0
ENDCHAR
STARTCHAR 044A
ENCODING 1098
SWIDTH 741 0
DWIDTH 34 0
BBX 31 25 1 0
BITMAP
FFFE0000
FFFE0000
FFFE0000
FFFE0000
00FE0000
00FE0000
00FE0000
00FE0000
00FE0000
00FE0000
00FFFF80
00FFFFF0
00FFFFF8
00FFFFFC
00FE03FC
00FE00FC
00FE00FE
00FE00FE
00FE00FE
00FE00FC
00FE03FC
00FFFFF8
00FFFFF8
00FFFFE0
00FFFF80
ENDCHAR
STARTCHAR 044B
ENCODING 1099
SWIDTH 850 0
DWIDTH 39 0
BBX 33 25 3 0
BITMAP
FE00001F80
FE00001F80
FE00001F80
FE00001F80
FE00001F80
FE00001F80
FE00001F80
FE00001F80
FE00001F80
FE00001F80
FFFF801F80
FFFFF01F80
FFFFF81F80
FFFFFC1F80
FE01FE1F80
FE00FE1F80
FE007E1F80
FE007E1F80
FE007E1F80
FE00FE1F80
FE01FE1F80
FFFFFC1F80
FFFFF81F80
FFFFF01F80
FFFF801F80
ENDCHAR
STARTCHAR 044C
ENCODING 1100
SWIDTH 610 0
DWIDTH 28 0
BBX 23 25 3 0
BITMAP
FE0000
FE0000
FE0000
FE0000
FE0000
FE0000
FE0000
FE0000
FE0000
FE0000
FFFF80
FFFFF0
FFFFF8
FFFFFC
FE01FE
FE00FE
FE007E
FE007E
FE007E
FE00FE
FE01FE
FFFFFC
FFFFF8
FFFFF0
FFFF80
ENDCHAR
STARTCHAR 044D
ENCODING 1101
SWIDTH 545 0
DWIDTH 25 0
BBX 23 25 1 0
BITMAP
01FE00
07FF80
1FFFE0
3FFFF0
3F87F0
7F01F8
7E01F8
FE00FC
0000FC
0000FC
007FFC
007FFE
007FFE
007FFE
0000FE
0000FC
FE00FC
FE01FC
7E01FC
7F03F8
3F87F8
3FFFF0
1FFFE0
07FF80
01FE00
ENDCHAR
STARTCHAR 044E
ENCODING 1102
SWIDTH 850 0
DWIDTH 39 0
BBX 34 25 3 0
BITMAP
FE001FE000
FE00FFF800
FE01FFFE00
FE03FFFF00
FE07F87F00
FE0FE03F80
FE0FE01F80
FE0FC01FC0
FE1FC00FC0
FE1FC00FC0
FFFFC00FC0
FFFFC00FC0
FFFFC00FC0
FFFFC00FC0
FE1FC00FC0
FE1FC00FC0
FE1FC01FC0
FE0FC01FC0
FE0FE01F80
FE0FE03F80
FE07F07F00
FE03FFFF00
FE01FFFC00
FE00FFF800
FE001FE000
ENDCHAR
STARTCHAR 044F
ENCODING 1103
SWIDTH 589 0
DWIDTH 27 0
BBX 24 25 0 0
BITMAP
00FFFF
07FFFF
0FFFFF
1FFFFF
3FC07F
3F807F
3F807F
3F007F
3F807F
3F807F
1FC07F
1FFFFF
0FFFFF
07FFFF
01FFFF
03F87F
03F07F
07E07F
0FE07F
0FC07F
1FC07F
3F807F
3F007F
7F007F
FE007F
ENDCHAR
STARTCHAR 0451
ENCODING 1105
SWIDTH 567 0
DWIDTH 26 0
BBX 22 33 2 0
BITMAP
1F07C0
1F07C0
1F07C0
1F07C0
1F07C0
000000
000000
000000
00FE00
07FF80
0FFFC0
1FFFE0
3F87F0
7F03F0
7E01F8
FE01F8
FE00F8
FC00FC
FFFFFC
FFFFFC
FFFFFC
FFFFFC
FC0000
FC0000
FE0000
FE0000
7E00FC
7F01F8
3F83F8
3FFFF0
1FFFE0
07FFC0
01FE00
ENDCHAR
STARTCHAR 0452
ENCODING 1106
SWIDTH 610 0
DWIDTH 28 0
BBX 25 43 0 -10
BITMAP
1FC00000
1FC00000
1FC00000
FFFF0000
FFFF0000
FFFF0000
FFFF0000
1FC00000
1FC00000
1FC3F000
1FCFFC00
1F9FFE00
1FBFFF00
1FBFFF00
1FF87F80
1FE03F80
1FE03F80
1FC01F80
1FC01F80
1FC01F80
1FC01F80
1FC01F80
1FC01F80
1FC01F80
1FC01F80
1FC01F80
1FC01F80
1FC01F80
1FC01F80
1FC01F80
1FC01F80
1FC01F80
1FC01F80
00001F80
00001F80
00001F80
00001F80
00003F80
0001FF80
0001FF80
0001FF00
0001FE00
0001FC00
ENDCHAR
STARTCHAR 0453
ENCODING 1107
SWIDTH 414 0
DWIDTH 19 0
BBX 15 35 3 0
BITMAP
007E
00FE
01F8
03F0
03E0
07C0
0F00
0000
0000
0000
FFFE
FFFE
FFFE
FFFE
FE00
FE00
FE00
FE00
FE00
FE00
FE00
FE00
FE00
FE00
FE00
FE00
FE00
FE00
FE00
FE00
FE00
FE00
FE00
FE00
FE00
ENDCHAR
STARTCHAR 0454
ENCODING 1108
SWIDTH 545 0
DWIDTH 25 0
BBX 22 25 2 0
BITMAP
00FE00
07FFC0
0FFFE0
1FFFF0
3F87F8
7F01F8
7E01FC
7E00FC
FE0000
FE0000
FFF800
FFF800
FFF800
FFF800
FE0000
FE0000
FE00FC
FE00FC
7E01FC
7F01F8
3F87F8
1FFFF0
0FFFE0
07FF80
01FE00
ENDCHAR
STARTCHAR 0455
ENCODING 1109
SWIDTH 567 0
DWIDTH 26 0
BBX 22 25 2 0
BITMAP
03FE00
0FFFC0
1FFFE0
3FFFF0
7F03F0
7E01F8
7C01F0
7E0000
7F0000
7FE000
7FFE00
3FFFC0
1FFFE0
07FFF0
007FF8
0007F8
0001FC
0000FC
3800FC
FC00F8
FE03F8
7FFFF0
3FFFE0
1FFFC0
03FE00
ENDCHAR
STARTCHAR 0456
ENCODING 1110
SWIDTH 283 0
DWIDTH 13 0
BBX 7 33 3 0
BITMAP
FE
FE
FE
FE
FE
00
00
00
FE
FE
FE
FE
FE
FE
FE
FE
FE
FE
FE
FE
FE
FE
FE
FE
FE
FE
FE
FE
FE
FE
FE
FE
FE
ENDCHAR
STARTCHAR 0457
ENCODING 1111
SWIDTH 283 0
DWIDTH 13 0
BBX 15 33 -1 0
BITMAP
F83E
F83E
F83E
F83E
F83E
0000
0000
0000
0FE0
0FE0
0FE0
0FE0
0FE0
0FE0
0FE0
0FE0
0FE0
0FE0
0FE0
0FE0
0FE0
0FE0
0FE0
0FE0
0FE0
0FE0
0FE0
0FE0
0FE0
0FE0
0FE0
0FE0
0FE0
ENDCHAR
STARTCHAR 0458
ENCODING 1112
SWIDTH 283 0
DWIDTH 13 0
BBX 11 43 -1 -10
BITMAP
0FE0
0FE0
0FE0
0FE0
0FE0
0000
0000
0000
0FE0
0FE0
0FE0
0FE0
0FE0
0FE0
0FE0
0FE0
0FE0
0FE0
0FE0
0FE0
0FE0
0FE0
0FE0
0FE0
0FE0
0FE0
0FE0
0FE0
0FE0
0FE0
0FE0
0FE0
0FE0
0FE0
0FE0
0FE0
0FE0
1FC0
FFC0
FFC0
FF80
FF80
FE00
ENDCHAR
STARTCHAR 0459
ENCODING 1113
SWIDTH 981 0
DWIDTH 45 0
BBX 43 25 0 0
BITMAP
01FFFFC00000
01FFFFC00000
01FFFFC00000
01FFFFC00000
01F81FC00000
01F81FC00000
01F01FC00000
03F01FC00000
03F01FC00000
03F01FC00000
03F01FFFF800
03F01FFFFE00
03F01FFFFF80
03E01FFFFFC0
07E01FC03FC0
07E01FC00FC0
07E01FC00FE0
07E01FC00FE0
0FC01FC00FE0
0FC01FC00FC0
1FC01FC03FC0
FF801FFFFF80
FF801FFFFF80
FF001FFFFE00
FE001FFFF800
ENDCHAR
STARTCHAR 045A
ENCODING 1114
SWIDTH 916 0
DWIDTH 42 0
BBX 37 25 3 0
BITMAP
FE03F80000
FE03F80000
FE03F80000
FE03F80000
FE03F80000
FE03F80000
FE03F80000
FE03F80000
FE03F80000
FE03F80000
FFFFFFFE00
FFFFFFFFC0
FFFFFFFFE0
FFFFFFFFF0
FE03F80FF0
FE03F803F8
FE03F803F8
FE03F803F8
FE03F803F8
FE03F803F8
FE03F80FF0
FE03FFFFF0
FE03FFFFE0
FE03FFFF80
FE03FFFE00
ENDCHAR
STARTCHAR 045B
ENCODING 1115
SWIDTH 610 0
DWIDTH 28 0
BBX 25 33 0 0
BITMAP
1FC00000
1FC00000
1FC00000
FFFF0000
FFFF0000
FFFF0000
FFFF0000
1FC00000
1FC00000
1FC3F000
1FCFFC00
1F9FFE00
1FBFFF00
1FBFFF00
1FF87F80
1FE03F80
1FE03F80
1FC01F80
1FC01F80
1FC01F80
1FC01F80
1FC01F80
1FC01F80
1FC01F80
1FC01F80
1FC01F80
1FC01F80
1FC01F80
1FC01F80
1FC01F80
1FC01F80
1FC01F80
1FC01F80
ENDCHAR
STARTCHAR 045C
ENCODING 1116
SWIDTH 501 0
DWIDTH 23 0
BBX 20 35 3 0
BITMAP
001F80
003F80
007E00
00FC00
00F800
01F000
03C000
000000
000000
000000
FE07F0
FE07E0
FE0FE0
FE0FC0
FE0F80
FE1F80
FE1F00
FE3F00
FE7E00
FE7E00
FEFC00
FFF800
FFF800
FFFC00
FEFC00
FE7E00
FE7E00
FE3F00
FE3F80
FE1F80
FE1FC0
FE0FC0
FE0FE0
FE07E0
FE07F0
ENDCHAR
STARTCHAR 045E
ENCODING 1118
SWIDTH 567 0
DWIDTH 26 0
BBX 24 45 1 -10
BITMAP
1F00F8
1F00F8
1F01F0
1F01F0
0FC3F0
0FFFE0
07FFC0
00FF00
000000
000000
FC003F
FE007F
FE007E
7E007E
7E00FE
3F00FC
3F00FC
3F00FC
1F81F8
1F81F8
1F81F8
0FC3F0
0FC3F0
07C3E0
07E3E0
07E7E0
03E7C0
03F7C0
01FFC0
01FF80
01FF80
00FF80
00FF00
007F00
007E00
007E00
00FE00
00FC00
01FC00
03F800
7FF800
7FF000
7FE000
7FC000
7F0000
ENDCHAR
STARTCHAR 045F
ENCODING 1119
SWIDTH 610 0
DWIDTH 28 0
BBX 22 34 3 -9
BITMAP
FE01FC
FE01FC
FE01FC
FE01FC
FE01FC
FE01FC
FE01FC
FE01FC
FE01FC
FE01FC
FE01FC
FE01FC
FE01FC
FE01FC
FE01FC
FE01FC
FE01FC
FE01FC
FE01FC
FE01FC
FE01FC
FFFFFC
FFFFFC
FFFFFC
FFFFFC
00FC00
00FC00
00FC00
00FC00
00FC00
00FC00
00FC00
00FC00
00FC00
ENDCHAR
STARTCHAR 0490
ENCODING 1168
SWIDTH 480 0
DWIDTH 22 0
BBX 18 41 3 0
BITMAP
0007C0
0007C0
0007C0
0007C0
0007C0
0007C0
0007C0
0007C0
0007C0
FFFFC0
FFFFC0
FFFFC0
FFFFC0
FFFFC0
FE0000
FE0000
FE0000
FE0000
FE0000
FE0000
FE0000
FE0000
FE0000
FE0000
FE0000
FE0000
FE0000
FE0000
FE0000
FE0000
FE0000
FE0000
FE0000
FE0000
FE0000
FE0000
FE0000
FE0000
FE0000
FE0000
FE0000
ENDCHAR
STARTCHAR 0491
ENCODING 1169
SWIDTH 458 0
DWIDTH 21 0
BBX 16 33 3 0
BITMAP
003F
003F
003F
003F
003F
003F
003F
003F
FFFF
FFFF
FFFF
FFFF
FE00
FE00
FE00
FE00
FE00
FE00
FE00
FE00
FE00
FE00
FE00
FE00
FE00
FE00
FE00
FE00
FE00
FE00
FE00
FE00
FE00
ENDCHAR
STARTCHAR 1E80
ENCODING 7808
SWIDTH 938 0
DWIDTH 43 0
BBX 43 42 0 0
BITMAP
0001F8000000
0000FC000000
00007E000000
00003F000000
00001F800000
000007C00000
000003C00000
000000000000
000000000000
000000000000
FE003FC007E0
FE003FC00FE0
7E007FC00FE0
7F007FC00FC0
7F007FE00FC0
7F007FE01FC0
3F007FE01FC0
3F00FFE01F80
3F80FBE01F80
3F80FBF01F80
1F80FBF03F80
1F81F9F03F00
1FC1F9F03F00
1FC1F1F83F00
0FC1F1F83F00
0FC1F1F87E00
0FC3F0F87E00
07E3E0FC7E00
07E3E0FC7E00
07E3E0FCFC00
07E7E07CFC00
03E7E07CFC00
03F7C07EFC00
03F7C07EF800
03F7C03FF800
01FFC03FF800
01FF803FF800
01FF803FF000
01FF803FF000
00FF801FF000
00FF001FF000
00FF001FE000
ENDCHAR
STARTCHAR 1E81
ENCODING 7809
SWIDTH 785 0
DWIDTH 36 0
BBX 36 34 0 0
BITMAP
003F800000
001FC00000
000FE00000
0003E00000
0001F00000
0000F80000
00007C0000
0000000000
0000000000
FC03F803F0
FC03FC03F0
FC03FC07E0
7E03FC07E0
7E07FC07E0
7E07FE07C0
7E07FE07C0
3E07BE0FC0
3F0F9E0FC0
3F0F9F0F80
1F0F9F0F80
1F0F1F0F80
1F1F0F1F80
1F9F0F9F00
0F9F0F9F00
0F9E0F9F00
0FBE07BF00
0FBE07BE00
07FE07FE00
07FC07FE00
07FC03FE00
07FC03FC00
03F803FC00
03F803FC00
03F801FC00
ENDCHAR
STARTCHAR 1E82
ENCODING 7810
SWIDTH 938 0
DWIDTH 43 0
BBX 43 42 0 0
BITMAP
000000FC0000
000001FC0000
000003F80000
000007E00000
000007C00000
00000F800000
00001E000000
000000000000
000000000000
000000000000
FE003FC007E0
FE003FC00FE0
7E007FC00FE0
7F007FC00FC0
7F007FE00FC0
7F007FE01FC0
3F007FE01FC0
3F00FFE01F80
3F80FBE01F80
3F80FBF01F80
1F80FBF03F80
1F81F9F03F00
1FC1F9F03F00
1FC1F1F83F00
0FC1F1F83F00
0FC1F1F87E00
0FC3F0F87E00
07E3E0FC7E00
07E3E0FC7E00
07E3E0FCFC00
07E7E07CFC00
03E7E07CFC00
03F7C07EFC00
03F7C07EF800
03F7C03FF800
01FFC03FF800
01FF803FF800
01FF803FF000
01FF803FF000
00FF801FF000
00FF001FF000
00FF001FE000
ENDCHAR
STARTCHAR 1E83
ENCODING 7811
SWIDTH 785 0
DWIDTH 36 0
BBX 36 34 0 0
BITMAP
00001F8000
00003F8000
00007E0000
0000FC0000
0000F80000
0001F00000
0003C00000
0000000000
0000000000
FC03F803F0
FC03FC03F0
FC03FC07E0
7E03FC07E0
7E07FC07E0
7E07FE07C0
7E07FE07C0
3E07BE0FC0
3F0F9E0FC0
3F0F9F0F80
1F0F9F0F80
1F0F1F0F80
1F1F0F1F80
1F9F0F9F00
0F9F0F9F00
0F9E0F9F00
0FBE07BF00
0FBE07BE00
07FE07FE00
07FC07FE00
07FC03FE00
07FC03FC00
03F803FC00
03F803FC00
03F801FC00
ENDCHAR
STARTCHAR 1E84
ENCODING 7812
SWIDTH 938 0
DWIDTH 43 0
BBX 43 40 0 0
BITMAP
0003E0780000
0003E0780000
0003E0780000
0003E0780000
0003E0780000
000000000000
000000000000
000000000000
FE003FC007E0
FE003FC00FE0
7E007FC00FE0
7F007FC00FC0
7F007FE00FC0
7F007FE01FC0
3F007FE01FC0
3F00FFE01F80
3F80FBE01F80
3F80FBF01F80
1F80FBF03F80
1F81F9F03F00
1FC1F9F03F00
1FC1F1F83F00
0FC1F1F83F00
0FC1F1F87E00
0FC3F0F87E00
07E3E0FC7E00
07E3E0FC7E00
07E3E0FCFC00
07E7E07CFC00
03E7E07CFC00
03F7C07EFC00
03F7C07EF800
03F7C03FF800
01FFC03FF800
01FF803FF800
01FF803FF000
01FF803FF000
00FF801FF000
00FF001FF000
00FF001FE000
ENDCHAR
STARTCHAR 1E85
ENCODING 7813
SWIDTH 785 0
DWIDTH 36 0
BBX 36 33 0 0
BITMAP
003E0F8000
003E0F8000
003E0F8000
003E0F8000
003E0F8000
0000000000
0000000000
0000000000
FC03F803F0
FC03FC03F0
FC03FC07E0
7E03FC07E0
7E07FC07E0
7E07FE07C0
7E07FE07C0
3E07BE0FC0
3F0F9E0FC0
3F0F9F0F80
1F0F9F0F80
1F0F1F0F80
1F1F0F1F80
1F9F0F9F00
0F9F0F9F00
0F9E0F9F00
0FBE07BF00
0FBE07BE00
07FE07FE00
07FC07FE00
07FC03FE00
07FC03FC00
03F803FC00
03F803FC00
03F801FC00
ENDCHAR
STARTCHAR 1EF2
ENCODING 7922
SWIDTH 676 0
DWIDTH 31 0
BBX 29 42 1 0
BITMAP
00FC0000
007E0000
003F0000
001F8000
000FC000
0003E000
0001E000
00000000
00000000
00000000
FE0003F8
7F0007F0
7F0007E0
3F800FE0
3F800FC0
1FC01FC0
0FC03F80
0FE03F80
07E07F00
07F07E00
03F0FE00
01F8FC00
01F9FC00
00FDF800
00FFF000
007FF000
003FE000
003FE000
001FC000
001FC000
001FC000
001FC000
001FC000
001FC000
001FC000
001FC000
001FC000
001FC000
001FC000
001FC000
001FC000
001FC000
ENDCHAR
STARTCHAR 1EF3
ENCODING 7923
SWIDTH 567 0
DWIDTH 26 0
BBX 24 44 1 -10
BITMAP
1FC000
0FE000
07F000
01F000
00F800
007C00
003E00
000000
000000
FC003F
FE007F
FE007E
7E007E
7E00FE
3F00FC
3F00FC
3F00FC
1F81F8
1F81F8
1F81F8
0FC3F0
0FC3F0
07C3E0
07E3E0
07E7E0
03E7C0
03F7C0
01FFC0
01FF80
01FF80
00FF80
00FF00
007F00
007E00
007E00
00FE00
00FC00
01FC00
03F800
7FF800
7FF000
7FE000
7FC000
7F0000
ENDCHAR
STARTCHAR 2010
ENCODING 8208
SWIDTH 327 0
DWIDTH 15 0
BBX 11 5 2 9
BITMAP
FFE0
FFE0
FFE0
FFE0
FFE0
ENDCHAR
STARTCHAR 2011
ENCODING 8209
SWIDTH 327 0
DWIDTH 15 0
BBX 11 5 2 9
BITMAP
FFE0
FFE0
FFE0
FFE0
FFE0
ENDCHAR
STARTCHAR 2013
ENCODING 8211
SWIDTH 567 0
DWIDTH 26 0
BBX 23 5 1 10
BITMAP
FFFFFE
FFFFFE
FFFFFE
FFFFFE
FFFFFE
ENDCHAR
STARTCHAR 2014
ENCODING 8212
SWIDTH 1003 0
DWIDTH 46 0
BBX 46 5 0 10
BITMAP
FFFFFFFFFFFC
FFFFFFFFFFFC
FFFFFFFFFFFC
FFFFFFFFFFFC
FFFFFFFFFFFC
ENDCHAR
STARTCHAR 2015
ENCODING 8213
SWIDTH 1003 0
DWIDTH 46 0
BBX 46 5 0 10
BITMAP
FFFFFFFFFFFC
FFFFFFFFFFFC
FFFFFFFFFFFC
FFFFFFFFFFFC
FFFFFFFFFFFC
ENDCHAR
STARTCHAR 2017
ENCODING 8215
SWIDTH 545 0
DWIDTH 25 0
BBX 26 9 0 -13
BITMAP
FFFFFFC0
FFFFFFC0
FFFFFFC0
00000000
00000000
00000000
FFFFFFC0
FFFFFFC0
FFFFFFC0
ENDCHAR
STARTCHAR 2018
ENCODING 8216
SWIDTH 283 0
DWIDTH 13 0
BBX 7 13 3 19
BITMAP
3C
3C
78
78
70
F0
F0
FE
FE
FE
FE
FE
FE
ENDCHAR
STARTCHAR 2019
ENCODING 8217
SWIDTH 283 0
DWIDTH 13 0
BBX 7 13 3 19
BITMAP
FE
FE
FE
FE
FE
FE
1E
1C
1C
3C
3C
78
F8
ENDCHAR
STARTCHAR 201A
ENCODING 8218
SWIDTH 283 0
DWIDTH 13 0
BBX 7 13 3 -7
BITMAP
FE
FE
FE
FE
FE
FE
1E
1C
1C
3C
3C
78
F8
ENDCHAR
STARTCHAR 201B
ENCODING 8219
SWIDTH 283 0
DWIDTH 13 0
BBX 7 13 3 19
BITMAP
FE
FE
FE
FE
FE
FE
F0
F0
70
78
78
3C
3C
ENDCHAR
STARTCHAR 201C
ENCODING 8220
SWIDTH 501 0
DWIDTH 23 0
BBX 17 13 3 19
BITMAP
3E0F00
3C0F00
781E00
781C00
703C00
703C00
F03C00
FE3F80
FE3F80
FE3F80
FE3F80
FE3F80
FE3F80
ENDCHAR
STARTCHAR 201D
ENCODING 8221
SWIDTH 501 0
DWIDTH 23 0
BBX 17 13 3 19
BITMAP
FE3F80
FE3F80
FE3F80
FE3F80
FE3F80
FE3F80
1E0700
1E0700
1E0700
1C0F00
3C0F00
781E00
783C00
ENDCHAR
STARTCHAR 201E
ENCODING 8222
SWIDTH 501 0
DWIDTH 23 0
BBX 17 13 3 -7
BITMAP
FE3F80
FE3F80
FE3F80
FE3F80
FE3F80
FE3F80
1E0700
1E0700
1E0700
1C0F00
3C0F00
781E00
783C00
ENDCHAR
STARTCHAR 2020
ENCODING 8224
SWIDTH 567 0
DWIDTH 26 0
BBX 20 36 3 -3
BITMAP
01F800
01F800
01F000
01F000
01F000
01F000
01F000
01F000
FCF3F0
FFFFF0
FFFFF0
FFFFF0
FCF7F0
00F000
00F000
00F000
00F000
00F000
00F000
00F000
00F000
00F000
00F000
00F000
00F000
00F000
00F000
00F000
00F000
00F000
00F000
00F000
00F000
00F000
00F000
00F000
ENDCHAR
STARTCHAR 2021
ENCODING 8225
SWIDTH 567 0
DWIDTH 26 0
BBX 20 36 3 -3
BITMAP
01F000
01F000
01F000
00F000
00F000
00F000
00F000
00F000
FCF3F0
FFFFF0
FFFFF0
FFFFF0
FCF7F0
00F000
00F000
00F000
00E000
00E000
00E000
00E000
00F000
00F000
00F000
FCF7E0
FFFFE0
FFFFE0
FFFFE0
FCF3E0
00F000
00F000
00F000
00F000
01F000
01F000
01F000
01F000
ENDCHAR
STARTCHAR 2022
ENCODING 8226
SWIDTH 349 0
DWIDTH 16 0
BBX 14 13 1 9
BITMAP
0FC0
1FE0
3FF0
7FF8
7FF8
7FFC
FFFC
7FFC
7FF8
7FF8
3FF0
1FE0
07C0
ENDCHAR
STARTCHAR 2026
ENCODING 8230
SWIDTH 1003 0
DWIDTH 46 0
BBX 36 7 5 0
BITMAP
FE01F807F0
FE01F807F0
FE01F807F0
FE01F807F0
FE01F807F0
FE01F807F0
FE01F807F0
ENDCHAR
STARTCHAR 2030
ENCODING 8240
SWIDTH 1003 0
DWIDTH 46 0
BBX 44 32 1 0
BITMAP
1F8007C00000
3FE007800000
7FF00F000000
7FF01F000000
F8F01E000000
F0783E000000
F0783C000000
F0787C000000
F07878000000
F078F0000000
F079F0000000
F8F1E0000000
7FF3E0000000
7FF3C0000000
3FE7C0000000
0F8780000000
000F0FC01F00
001F3FE07FC0
001E7FF0FFE0
003E7FF0FFE0
003C78F8F1F0
007CF079E0F0
0078F079E0F0
00F0F079E0F0
01F0F079E0F0
01E0F079E0F0
03E0F079E0F0
03C078F8F1F0
07C07FF0FFE0
07803FF0FFE0
0F003FE07FC0
1F000F801F00
ENDCHAR
STARTCHAR 2032
ENCODING 8242
SWIDTH 240 0
DWIDTH 11 0
BBX 8 11 2 21
BITMAP
7F
7F
7E
7E
7E
7C
FC
FC
F8
F8
F8
ENDCHAR
STARTCHAR 2033
ENCODING 8243
SWIDTH 480 0
DWIDTH 22 0
BBX 19 11 2 21
BITMAP
7F0FE0
7F0FE0
7E0FC0
7E0FC0
7E0FC0
7C0F80
FC1F80
FC1F80
F81F00
F81F00
F81F00
ENDCHAR
STARTCHAR 2039
ENCODING 8249
SWIDTH 327 0
DWIDTH 15 0
BBX 11 17 2 4
BITMAP
07E0
07E0
0FC0
1F80
3F00
3F00
7E00
FC00
F800
FC00
7E00
3F00
3F00
1F80
0FC0
07E0
07E0
ENDCHAR
STARTCHAR 203A
ENCODING 8250
SWIDTH 327 0
DWIDTH 15 0
BBX 11 17 2 4
BITMAP
FC00
7E00
7E00
3F00
1F80
0FC0
0FC0
07E0
03E0
07E0
0FC0
0FC0
1F80
3F00
7E00
7E00
FC00
ENDCHAR
STARTCHAR 203C
ENCODING 8252
SWIDTH 610 0
DWIDTH 28 0
BBX 20 32 4 0
BITMAP
FE07F0
FE07F0
FE07F0
FE07F0
FE07F0
7E03F0
7E03F0
7E03F0
7E03F0
7E03F0
7E03F0
7E03F0
7E03F0
7E03F0
7C03E0
7C03E0
7C03E0
7C03E0
7C03E0
7C03E0
7C03E0
7C03E0
000000
000000
000000
000000
FE07F0
FE07F0
FE07F0
FE07F0
FE07F0
FE07F0
ENDCHAR
STARTCHAR 203E
ENCODING 8254
SWIDTH 327 0
DWIDTH 15 0
BBX 21 5 -3 31
BITMAP
FFFFF8
FFFFF8
FFFFF8
FFFFF8
FFFFF8
ENDCHAR
STARTCHAR 2044
ENCODING 8260
SWIDTH 174 0
DWIDTH 8 0
BBX 24 32 -8 0
BITMAP
00001F
00001E
00003E
00007C
000078
0000F8
0000F0
0001E0
0003E0
0003C0
0007C0
000F80
000F00
001F00
001E00
003C00
007C00
007800
00F800
01F000
01E000
03E000
07C000
078000
0F8000
0F0000
1F0000
3E0000
3C0000
7C0000
F80000
F00000
ENDCHAR
STARTCHAR 207F
ENCODING 8319
SWIDTH 392 0
DWIDTH 18 0
BBX 14 15 2 12
BITMAP
F1F0
F7F8
F7FC
7C7C
783C
783C
783C
783C
783C
783C
783C
783C
783C
783C
783C
ENDCHAR
STARTCHAR 20A3
ENCODING 8355
SWIDTH 567 0
DWIDTH 26 0
BBX 25 32 0 0
BITMAP
1FFFFF80
1FFFFF80
1FFFFF80
1FFFFF80
1FFFFF80
1F800000
1F800000
1F800000
1F800000
1F800000
1F800000
1F800000
1F800000
1F800000
1FFFFF00
1FFFFF00
1FFFFF00
1FFFFF00
1FFFFF00
1F800000
1F800000
1F800000
1F800000
FFFF8000
FFFF8000
FFFF8000
FFFF8000
FFFF8000
1F800000
1F800000
1F800000
1F800000
ENDCHAR
STARTCHAR 20A4
ENCODING 8356
SWIDTH 567 0
DWIDTH 26 0
BBX 25 32 0 0
BITMAP
003FC000
00FFF000
01FFF800
03FFFC00
07F0FC00
07E07E00
07E07E00
07C03000
0FC00000
0FC00000
0FC00000
FFFF8000
FFFF8000
FFFF8000
0FC00000
0FC00000
0FC00000
FFFF8000
FFFF8000
FFFF8000
07C00000
07C00000
0FC00000
0FC00E00
0F801F80
1F001F80
3E007F00
7FFFFF00
7FFFFE00
7FFFFC00
7FFFF800
7FFFE000
ENDCHAR
STARTCHAR 20A7
ENCODING 8359
SWIDTH 1090 0
DWIDTH 50 0
BBX 45 32 4 0
BITMAP
FFE000000000
FFFC00000000
FFFE00000000
FFFF00000000
F83F80000000
F80FC0000000
F80FC0000000
F807C0000000
F807C7000000
F807C7000000
F807C7000000
F807CF000000
F80FCF000000
F80FFFF07F00
F83FFFF1FFC0
FFFF7FF3FFE0
FFFE7FF7FFF0
FFFC1F07C1F0
FFF01F07C0F0
F8001F07C000
F8001F07FE00
F8001F03FFC0
F8001F01FFE0
F8001F003FF0
F8001F0003F0
F8001F0000F8
F8001F0F00F8
F8001F8F81F8
F8000FFFFFF0
F8000FF7FFF0
F80007F3FFE0
F80003E0FF00
ENDCHAR
STARTCHAR 20AC
ENCODING 8364
SWIDTH 567 0
DWIDTH 26 0
BBX 25 32 0 0
BITMAP
001FC000
00FFF800
01FFFC00
03FFFE00
07FFFE00
07F07F00
0FE03F00
0FC03F80
0FC00000
1FC00000
1FC00000
7FFF8000
7FFF8000
FFFF0000
1F800000
1F800000
1F800000
7FFF8000
7FFF8000
FFFF8000
1FC00000
1FC00000
0FC00000
0FC03F80
0FE03F80
0FE03F00
07F87F00
07FFFE00
03FFFE00
01FFFC00
007FF800
001FC000
ENDCHAR
STARTCHAR 2105
ENCODING 8453
SWIDTH 894 0
DWIDTH 41 0
BBX 39 32 1 0
BITMAP
07E0001F00
1FF8003E00
3FFC003C00
3FFE007C00
7E3E00F800
7C1F00F000
780001F000
F80003E000
F80003E000
F80007C000
F800078000
F8000F8000
F8001F1FC0
781F1E3FF0
7C1E3E7FF8
7E3E7CFFF8
3FFE79F8FC
3FFCF9F07C
1FF9F1F07C
07E1E1F03C
0003E1F03C
0007C1E03E
000781E03E
000F81F03C
000F01F03C
001F01F07C
003E01F07C
003C01F8FC
007C00FFF8
00F8007FF0
00F0003FE0
01F0001FC0
ENDCHAR
STARTCHAR 2113
ENCODING 8467
SWIDTH 480 0
DWIDTH 22 0
BBX 20 32 1 0
BITMAP
00FE00
03FFC0
07FFE0
0FFFE0
1FC3F0
1FC3F0
1F83F0
1F83F0
1F83F0
1F83E0
1F83E0
1F87C0
1F8FC0
1FBF80
1FFF00
1FFE00
3FF800
FFE000
FF8000
FF8000
DF8000
1F8000
1F8000
1F80E0
1F80E0
1FC1E0
1FC3C0
1FFFC0
0FFF80
0FFF80
07FE00
01F800
ENDCHAR
STARTCHAR 2116
ENCODING 8470
SWIDTH 1112 0
DWIDTH 51 0
BBX 46 32 3 0
BITMAP
FE0003E00000
FF0003E00000
FF0003E00000
FF8003E00000
FFC003E00000
FFC003E00000
FFE003E00000
FFE003E00000
FBF003E00000
F9F803E00000
F9F803E01F80
F8FC03E07FE0
FCFC03E0FFF0
FC7E03E0FFF8
FC3F03E1F8F8
FC3F03E1F07C
FC1F83E1F07C
FC1F83E1F07C
FC0FC3E1F07C
FC07E3E1F07C
FC07E3E1F07C
FC03F3E1F8F8
FC01FBE0FFF8
FC01FBE07FF0
FC00FFE03FE0
FC00FFE01F80
FC007FE00000
FC003FE00000
FC003FE1FFFC
FC001FE1FFFC
FC001FE1FFFC
FC000FE1FFFC
ENDCHAR
STARTCHAR 2122
ENCODING 8482
SWIDTH 1003 0
DWIDTH 46 0
BBX 37 15 3 17
BITMAP
FFFE7E00F8
FFFE7E01F8
FFFE7F01F8
07807F03F8
07807F83B8
07807B87B8
07807B8738
07807BCF38
078079CF38
078079EE38
078078FE38
078078FC38
0780787C38
0780787838
0780787838
ENDCHAR
STARTCHAR 2126
ENCODING 8486
SWIDTH 763 0
DWIDTH 35 0
BBX 31 32 2 0
BITMAP
001FF000
00FFFE00
03FFFF80
07FFFFE0
0FFFFFF0
1FF81FF0
3FE007F8
3F8003FC
7F8001FC
7F0001FC
7F0000FE
7E0000FE
7E0000FE
7E0000FE
7E0000FE
7E0000FE
7E0000FE
7E0000FC
7F0000FC
3F0001FC
3F8001F8
1F8003F8
1FC007F0
0FF00FE0
07F83FC0
01FC7F80
00FC7E00
FFFC7FFE
FFFC7FFE
FFFC7FFE
FFFC7FFE
FFFC7FFE
ENDCHAR
STARTCHAR 212E
ENCODING 8494
SWIDTH 610 0
DWIDTH 28 0
BBX 24 25 2 0
BITMAP
00FE00
03FFC0
0F81E0
1E0070
380038
38001C
78001C
78001E
F8001E
F8001E
F8001F
FFFFFF
FFFFFF
F80000
F80000
F80000
780000
780000
78000C
38000C
380018
1E0070
0F81E0
03FFC0
00FF00
ENDCHAR
STARTCHAR 215B
ENCODING 8539
SWIDTH 829 0
DWIDTH 38 0
BBX 33 32 3 0
BITMAP
1F0000F800
7F0000F000
FF0001F000
EF0003E000
8F0003C000
0F0007C000
0F00078000
0F000F0000
0F001F0000
0F001E0000
0F003E0000
0F007C0000
0F00780000
FFF0F80000
FFF0F00000
FFF1E00000
0003E1FC00
0003C7FF00
0007C7FF00
000F8F8F80
000F0F8780
001F078F00
003E03FF00
003C01FC00
007C07FF00
00780F8F80
00F80F0780
01F00F0780
01E00F8F80
03E007FF80
07C007FF00
078001FC00
ENDCHAR
STARTCHAR 215C
ENCODING 8540
SWIDTH 829 0
DWIDTH 38 0
BBX 34 32 2 0
BITMAP
0FC000F800
3FF000F000
7FF801F000
78F803E000
F87803C000
00F807C000
07F0078000
07C00F0000
07F01F0000
00F81E0000
00783E0000
F0787C0000
F8F8780000
7FF8F80000
3FF0F00000
1FC1E00000
0003E0FE00
0003C3FF80
0007C3FF80
000F87C7C0
000F07C3C0
001F03C780
003E01FF80
003C00FE00
007C03FF80
007807C7C0
00F80783C0
01F00783C0
01E007C7C0
03E003FFC0
07C003FF80
078000FE00
ENDCHAR
STARTCHAR 215D
ENCODING 8541
SWIDTH 829 0
DWIDTH 38 0
BBX 34 32 2 0
BITMAP
7FF000F800
7FF000F000
7FF001F000
780003E000
780003C000
7BC007C000
7FF0078000
7FF80F0000
78F81F0000
00781E0000
00783E0000
F8787C0000
78F8780000
7FF0F80000
3FF0F00000
0FC1E00000
0003E0FE00
0003C3FF80
0007C3FF80
000F87C7C0
000F07C3C0
001F03C780
003E01FF80
003C00FE00
007C03FF80
007807C7C0
00F80783C0
01F00783C0
01E007C7C0
03E003FFC0
07C003FF80
078000FE00
ENDCHAR
STARTCHAR 215E
ENCODING 8542
SWIDTH 829 0
DWIDTH 38 0
BBX 32 32 4 0
BITMAP
FFF803E0
FFF803C0
FFF807C0
00700F80
00F00F00
01E01F00
03C01E00
03C03C00
07807C00
07807800
0F00F800
0F01F000
1F01E000
1F03E000
1E03C000
1E078000
000F83F8
000F0FFE
001F0FFE
003E1F1F
003C1F0F
007C0F1E
00F807FE
00F003F8
01F00FFE
01E01F1F
03E01E0F
07C01E0F
07801F1F
0F800FFF
1F000FFE
1E0003F8
ENDCHAR
STARTCHAR 2190
ENCODING 8592
SWIDTH 1003 0
DWIDTH 46 0
BBX 28 10 9 3
BITMAP
03000000
06000000
0C000000
3C000000
7FFFFFF0
FFFFFFF0
3C000000
0C000000
06000000
03000000
ENDCHAR
STARTCHAR 2191
ENCODING 8593
SWIDTH 501 0
DWIDTH 23 0
BBX 11 27 6 -1
BITMAP
0400
0E00
0E00
1F00
3F80
75C0
E4E0
8420
0400
0400
0400
0400
0400
0400
0400
0400
0400
0400
0400
0400
0400
0400
0400
0400
0400
0400
0400
ENDCHAR
STARTCHAR 2192
ENCODING 8594
SWIDTH 1003 0
DWIDTH 46 0
BBX 27 10 9 3
BITMAP
00000C00
00000600
00000700
000003C0
FFFFFFE0
FFFFFFE0
000003C0
00000300
00000600
00000C00
ENDCHAR
STARTCHAR 2193
ENCODING 8595
SWIDTH 501 0
DWIDTH 23 0
BBX 11 27 6 -1
BITMAP
0400
0400
0400
0400
0400
0400
0400
0400
0400
0400
0400
0400
0400
0400
0400
0400
0400
0400
0400
8420
E4E0
75C0
3F80
1F00
0E00
0E00
0400
ENDCHAR
STARTCHAR 2194
ENCODING 8596
SWIDTH 1003 0
DWIDTH 46 0
BBX 27 10 9 3
BITMAP
03000C00
06000600
0C000700
3C0003C0
7FFFFFE0
FFFFFFE0
3C0003C0
0C000300
06000600
03000C00
ENDCHAR
STARTCHAR 2195
ENCODING 8597
SWIDTH 501 0
DWIDTH 23 0
BBX 11 27 6 -1
BITMAP
0400
0E00
0E00
1F00
3F80
75C0
E4E0
8420
0400
0400
0400
0400
0400
0400
0400
0400
0400
0400
0400
8420
E4E0
75C0
3F80
1F00
0E00
0E00
0400
ENDCHAR
STARTCHAR 21A8
ENCODING 8616
SWIDTH 501 0
DWIDTH 23 0
BBX 11 30 6 -4
BITMAP
0400
0E00
0E00
1F00
3F80
75C0
E4E0
8420
0400
0400
0400
0400
0400
0400
0400
0400
0400
0400
0400
8420
E4E0
75C0
3F80
1F00
0E00
0E00
0400
0000
FFE0
FFE0
ENDCHAR
STARTCHAR 2202
ENCODING 8706
SWIDTH 501 0
DWIDTH 23 0
BBX 20 33 1 0
BITMAP
00FC00
01FF00
03FF80
03FFC0
030FE0
0407E0
0003E0
0003F0
0001F0
0001F0
0001F0
01F1F0
07FDF0
0FFDF0
1FFFF0
1F8FF0
3F07F0
3E03F0
7E03F0
7C03F0
7C03E0
FC03E0
FC03E0
FC07E0
FC07C0
FC0FC0
FC0F80
7C1F80
7E3F00
7FFE00
3FFC00
1FF800
07E000
ENDCHAR
STARTCHAR 2206
ENCODING 8710
SWIDTH 610 0
DWIDTH 28 0
BBX 26 32 1 0
BITMAP
007F8000
00FFC000
00FFC000
00FFC000
01FFE000
01FFE000
01FBE000
03F3F000
03F3F000
03F3F000
07E1F800
07E1F800
07E1F800
0FE0FC00
0FC0FC00
0FC0FC00
1FC0FE00
1F807E00
1F807E00
3F807F00
3F003F00
3F003F00
7F003F80
7F001F80
7E001F80
FE001FC0
FE001FC0
FFFFFFC0
FFFFFFC0
FFFFFFC0
FFFFFFC0
FFFFFFC0
ENDCHAR
STARTCHAR 220F
ENCODING 8719
SWIDTH 829 0
DWIDTH 38 0
BBX 28 42 5 -10
BITMAP
FFFFFFF0
FFFFFFF0
FFFFFFF0
FFFFFFF0
FFFFFFF0
FC0003F0
FC0003F0
FC0003F0
FC0003F0
FC0003F0
FC0003F0
FC0003F0
FC0003F0
FC0003F0
FC0003F0
FC0003F0
FC0003F0
FC0003F0
FC0003F0
FC0003F0
FC0003F0
FC0003F0
FC0003F0
FC0003F0
FC0003F0
FC0003F0
FC0003F0
FC0003F0
FC0003F0
FC0003F0
FC0003F0
FC0003F0
FC0003F0
FC0003F0
FC0003F0
FC0003F0
FC0003F0
FC0003F0
FC0003F0
FC0003F0
FC0003F0
FC0003F0
ENDCHAR
STARTCHAR 2211
ENCODING 8721
SWIDTH 720 0
DWIDTH 33 0
BBX 27 42 3 -10
BITMAP
FFFFFFC0
FFFFFFC0
FFFFFFC0
7FFFFFC0
7FFFFFC0
3F800000
1FC00000
0FE00000
0FE00000
07F00000
03F80000
01FC0000
01FE0000
00FE0000
007F0000
003F8000
001FC000
001FC000
000FE000
0007F000
0003F800
0007F000
000FE000
001FC000
001FC000
003F8000
007F0000
00FE0000
00FE0000
01FC0000
03F80000
07F00000
07F00000
0FE00000
1FC00000
3F800000
3F800000
7FFFFFE0
FFFFFFE0
FFFFFFE0
FFFFFFE0
FFFFFFE0
ENDCHAR
STARTCHAR 2212
ENCODING 8722
SWIDTH 589 0
DWIDTH 27 0
BBX 23 5 2 13
BITMAP
FFFFFE
FFFFFE
FFFFFE
FFFFFE
FFFFFE
ENDCHAR
STARTCHAR 2215
ENCODING 8725
SWIDTH 174 0
DWIDTH 8 0
BBX 24 32 -8 0
BITMAP
00001F
00001E
00003E
00007C
000078
0000F8
0000F0
0001E0
0003E0
0003C0
0007C0
000F80
000F00
001F00
001E00
003C00
007C00
007800
00F800
01F000
01E000
03E000
07C000
078000
0F8000
0F0000
1F0000
3E0000
3C0000
7C0000
F80000
F00000
ENDCHAR
STARTCHAR 2219
ENCODING 8729
SWIDTH 283 0
DWIDTH 13 0
BBX 7 7 3 12
BITMAP
FE
FE
FE
FE
FE
FE
FE
ENDCHAR
STARTCHAR 221A
ENCODING 8730
SWIDTH 545 0
DWIDTH 25 0
BBX 25 37 0 -1
BITMAP
00000780
00000780
00000F80
00000F00
00000F00
00000F00
00001E00
00001E00
00001E00
00003C00
00003C00
00003C00
00007800
00007800
00007800
0000F800
FE00F000
FF00F000
FF00F000
FF01E000
FF81E000
0F81E000
0783C000
07C3C000
03C3C000
03C78000
03E78000
01E78000
01EF0000
01FF0000
00FF0000
00FE0000
007E0000
007E0000
007E0000
003C0000
00200000
ENDCHAR
STARTCHAR 221E
ENCODING 8734
SWIDTH 720 0
DWIDTH 33 0
BBX 29 17 2 5
BITMAP
0FC00F00
1FE03FC0
3FF0FFE0
7FF8FFF0
FC7DF3F0
F83FE0F8
F01FC078
F00F8078
F00F8078
F00F8078
F01F8078
F83FC0F8
FC7DE1F0
7FF9FFF0
7FF0FFE0
1FE07FC0
0FC01F80
ENDCHAR
STARTCHAR 221F
ENCODING 8735
SWIDTH 981 0
DWIDTH 45 0
BBX 28 27 9 0
BITMAP
C0000000
C0000000
C0000000
C0000000
C0000000
C0000000
C0000000
C0000000
C0000000
C0000000
C0000000
C0000000
C0000000
C0000000
C0000000
C0000000
C0000000
C0000000
C0000000
C0000000
C0000000
C0000000
C0000000
C0000000
C0000000
FFFFFFF0
FFFFFFF0
ENDCHAR
STARTCHAR 2229
ENCODING 8745
SWIDTH 720 0
DWIDTH 33 0
BBX 21 23 6 0
BITMAP
01FC00
07FF00
0FFF80
1F07C0
3C01E0
3800E0
700070
600030
600038
E00038
E00038
E00018
E00018
E00018
E00018
E00018
E00018
E00018
E00018
E00018
E00018
E00018
E00018
ENDCHAR
STARTCHAR 222B
ENCODING 8747
SWIDTH 283 0
DWIDTH 13 0
BBX 19 43 -3 -10
BITMAP
000FE0
003FE0
00FFE0
00FFE0
01FFE0
01FC00
03F800
03F800
03F800
03F800
03F800
03F800
03F800
03F800
03F800
03F800
03F800
03F800
03F800
03F800
03F800
03F800
03F800
03F800
03F800
03F800
03F800
03F800
03F800
03F800
03F800
03F800
03F800
03F800
03F800
03F800
03F000
07F000
FFF000
FFE000
FFE000
FF8000
FE0000
ENDCHAR
STARTCHAR 2248
ENCODING 8776
SWIDTH 545 0
DWIDTH 25 0
BBX 23 18 1 6
BITMAP
3FC000
FFFC06
FFFFFE
FFFFFE
FFFFFE
E07FFE
8007F8
000000
000000
000000
000000
1FC000
FFFC06
FFFFFE
FFFFFE
FFFFFE
C07FFE
0003F8
ENDCHAR
STARTCHAR 2260
ENCODING 8800
SWIDTH 545 0
DWIDTH 25 0
BBX 24 29 1 1
BITMAP
0000F8
0001F0
0001F0
0003E0
0003E0
0007C0
FFFFFF
FFFFFF
FFFFFF
FFFFFF
FFFFFF
003E00
003E00
007C00
007C00
00F800
00F800
01F000
FFFFFF
FFFFFF
FFFFFF
FFFFFF
FFFFFF
0F8000
0F8000
1F0000
1F0000
3E0000
3E0000
ENDCHAR
STARTCHAR 2261
ENCODING 8801
SWIDTH 589 0
DWIDTH 27 0
BBX 23 20 2 5
BITMAP
FFFFFE
FFFFFE
FFFFFE
000000
000000
000000
000000
000000
FFFFFE
FFFFFE
FFFFFE
000000
000000
000000
000000
000000
000000
FFFFFE
FFFFFE
FFFFFE
ENDCHAR
STARTCHAR 2264
ENCODING 8804
SWIDTH 545 0
DWIDTH 25 0
BBX 23 29 1 0
BITMAP
000002
00001E
0000FE
0007FE
003FFE
01FFFC
0FFFE0
7FFF00
FFF800
FFC000
FE0000
F00000
FE0000
FFC000
FFF800
7FFF00
0FFFE0
01FFFC
003FFE
0007FE
0000FE
00001E
000002
000000
FFFFFE
FFFFFE
FFFFFE
FFFFFE
FFFFFE
ENDCHAR
STARTCHAR 2265
ENCODING 8805
SWIDTH 545 0
DWIDTH 25 0
BBX 23 29 1 0
BITMAP
C00000
F80000
FF0000
FFC000
FFF800
7FFF00
0FFFE0
01FFFC
003FFE
0007FE
0000FE
00001E
0000FE
0007FE
003FFE
01FFFC
0FFFE0
7FFF00
FFF800
FFC000
FE0000
F80000
C00000
000000
FFFFFE
FFFFFE
FFFFFE
FFFFFE
FFFFFE
ENDCHAR
STARTCHAR 2302
ENCODING 8962
SWIDTH 610 0
DWIDTH 28 0
BBX 20 26 4 0
BITMAP
004000
006000
00F000
01B800
039C00
070E00
0E0700
1C0380
380180
7000C0
600060
C00030
800030
800030
800030
800030
800030
800030
800030
800030
800030
800030
800030
800030
FFFFF0
FFFFF0
ENDCHAR
STARTCHAR 2310
ENCODING 8976
SWIDTH 589 0
DWIDTH 27 0
BBX 23 13 2 4
BITMAP
FFFFFE
FFFFFE
FFFFFE
FFFFFE
FFFFFE
F00000
F00000
F00000
F00000
F00000
F00000
F00000
F00000
ENDCHAR
STARTCHAR 2320
ENCODING 8992
SWIDTH 610 0
DWIDTH 28 0
BBX 10 52 12 -14
BITMAP
0780
1FC0
37C0
33C0
7180
7000
7000
F000
F000
F000
F000
F000
F000
F000
F000
F000
F000
F000
F000
F000
F000
F000
F000
F000
F000
F000
F000
F000
F000
F000
F000
F000
F000
F000
F000
F000
F000
F000
F000
F000
F000
F000
F000
F000
F000
F000
F000
F000
F000
F000
F000
F000
ENDCHAR
STARTCHAR 2321
ENCODING 8993
SWIDTH 610 0
DWIDTH 28 0
BBX 10 52 6 -14
BITMAP
03C0
03C0
03C0
03C0
03C0
03C0
03C0
03C0
03C0
03C0
03C0
03C0
03C0
03C0
03C0
03C0
03C0
03C0
03C0
03C0
03C0
03C0
03C0
03C0
03C0
03C0
03C0
03C0
03C0
03C0
03C0
03C0
03C0
03C0
03C0
03C0
03C0
03C0
03C0
03C0
03C0
03C0
03C0
03C0
0380
0380
0380
6380
F300
F300
FE00
7800
ENDCHAR
STARTCHAR 2500
ENCODING 9472
SWIDTH 720 0
DWIDTH 33 0
BBX 33 3 0 13
BITMAP
FFFFFFFF80
FFFFFFFF80
FFFFFFFF80
ENDCHAR
STARTCHAR 2502
ENCODING 9474
SWIDTH 632 0
DWIDTH 29 0
BBX 3 56 11 -14
BITMAP
E0
E0
E0
E0
E0
E0
E0
E0
E0
E0
E0
E0
E0
E0
E0
E0
E0
E0
E0
E0
E0
E0
E0
E0
E0
E0
E0
E0
E0
E0
E0
E0
E0
E0
E0
E0
E0
E0
E0
E0
E0
E0
E0
E0
E0
E0
E0
E0
E0
E0
E0
E0
E0
E0
E0
E0
ENDCHAR
STARTCHAR 250C
ENCODING 9484
SWIDTH 720 0
DWIDTH 33 0
BBX 18 30 15 -14
BITMAP
FFFFC0
FFFFC0
FFFFC0
E00000
E00000
E00000
E00000
E00000
E00000
E00000
E00000
E00000
E00000
E00000
E00000
E00000
E00000
E00000
E00000
E00000
E00000
E00000
E00000
E00000
E00000
E00000
E00000
E00000
E00000
E00000
ENDCHAR
STARTCHAR 2510
ENCODING 9488
SWIDTH 720 0
DWIDTH 33 0
BBX 18 30 0 -14
BITMAP
FFFFC0
FFFFC0
FFFFC0
0001C0
0001C0
0001C0
0001C0
0001C0
0001C0
0001C0
0001C0
0001C0
0001C0
0001C0
0001C0
0001C0
0001C0
0001C0
0001C0
0001C0
0001C0
0001C0
0001C0
0001C0
0001C0
0001C0
0001C0
0001C0
0001C0
0001C0
ENDCHAR
STARTCHAR 2514
ENCODING 9492
SWIDTH 720 0
DWIDTH 33 0
BBX 18 29 15 13
BITMAP
E00000
E00000
E00000
E00000
E00000
E00000
E00000
E00000
E00000
E00000
E00000
E00000
E00000
E00000
E00000
E00000
E00000
E00000
E00000
E00000
E00000
E00000
E00000
E00000
E00000
E00000
FFFFC0
FFFFC0
FFFFC0
ENDCHAR
STARTCHAR 2518
ENCODING 9496
SWIDTH 720 0
DWIDTH 33 0
BBX 18 29 0 13
BITMAP
0001C0
0001C0
0001C0
0001C0
0001C0
0001C0
0001C0
0001C0
0001C0
0001C0
0001C0
0001C0
0001C0
0001C0
0001C0
0001C0
0001C0
0001C0
0001C0
0001C0
0001C0
0001C0
0001C0
0001C0
0001C0
0001C0
FFFFC0
FFFFC0
FFFFC0
ENDCHAR
STARTCHAR 251C
ENCODING 9500
SWIDTH 720 0
DWIDTH 33 0
BBX 18 56 15 -14
BITMAP
E00000
E00000
E00000
E00000
E00000
E00000
E00000
E00000
E00000
E00000
E00000
E00000
E00000
E00000
E00000
E00000
E00000
E00000
E00000
E00000
E00000
E00000
E00000
E00000
E00000
E00000
FFFFC0
FFFFC0
FFFFC0
E00000
E00000
E00000
E00000
E00000
E00000
E00000
E00000
E00000
E00000
E00000
E00000
E00000
E00000
E00000
E00000
E00000
E00000
E00000
E00000
E00000
E00000
E00000
E00000
E00000
E00000
E00000
ENDCHAR
STARTCHAR 2524
ENCODING 9508
SWIDTH 720 0
DWIDTH 33 0
BBX 18 56 0 -14
BITMAP
0001C0
0001C0
0001C0
0001C0
0001C0
0001C0
0001C0
0001C0
0001C0
0001C0
0001C0
0001C0
0001C0
0001C0
0001C0
0001C0
0001C0
0001C0
0001C0
0001C0
0001C0
0001C0
0001C0
0001C0
0001C0
0001C0
FFFFC0
FFFFC0
FFFFC0
0001C0
0001C0
0001C0
0001C0
0001C0
0001C0
0001C0
0001C0
0001C0
0001C0
0001C0
0001C0
0001C0
0001C0
0001C0
0001C0
0001C0
0001C0
0001C0
0001C0
0001C0
0001C0
0001C0
0001C0
0001C0
0001C0
0001C0
ENDCHAR
STARTCHAR 252C
ENCODING 9516
SWIDTH 720 0
DWIDTH 33 0
BBX 33 30 0 -14
BITMAP
FFFFFFFF80
FFFFFFFF80
FFFFFFFF80
0001C00000
0001C00000
0001C00000
0001C00000
0001C00000
0001C00000
0001C00000
0001C00000
0001C00000
0001C00000
0001C00000
0001C00000
0001C00000
0001C00000
0001C00000
0001C00000
0001C00000
0001C00000
0001C00000
0001C00000
0001C00000
0001C00000
0001C00000
0001C00000
0001C00000
0001C00000
0001C00000
ENDCHAR
STARTCHAR 2534
ENCODING 9524
SWIDTH 720 0
DWIDTH 33 0
BBX 33 29 0 13
BITMAP
0001C00000
0001C00000
0001C00000
0001C00000
0001C00000
0001C00000
0001C00000
0001C00000
0001C00000
0001C00000
0001C00000
0001C00000
0001C00000
0001C00000
0001C00000
0001C00000
0001C00000
0001C00000
0001C00000
0001C00000
0001C00000
0001C00000
0001C00000
0001C00000
0001C00000
0001C00000
FFFFFFFF80
FFFFFFFF80
FFFFFFFF80
ENDCHAR
STARTCHAR 253C
ENCODING 9532
SWIDTH 720 0
DWIDTH 33 0
BBX 33 56 0 -14
BITMAP
0001C00000
0001C00000
0001C00000
0001C00000
0001C00000
0001C00000
0001C00000
0001C00000
0001C00000
0001C00000
0001C00000
0001C00000
0001C00000
0001C00000
0001C00000
0001C00000
0001C00000
0001C00000
0001C00000
0001C00000
0001C00000
0001C00000
0001C00000
0001C00000
0001C00000
0001C00000
FFFFFFFF80
FFFFFFFF80
FFFFFFFF80
0001C00000
0001C00000
0001C00000
0001C00000
0001C00000
0001C00000
0001C00000
0001C00000
0001C00000
0001C00000
0001C00000
0001C00000
0001C00000
0001C00000
0001C00000
0001C00000
0001C00000
0001C00000
0001C00000
0001C00000
0001C00000
0001C00000
0001C00000
0001C00000
0001C00000
0001C00000
0001C00000
ENDCHAR
STARTCHAR 2550
ENCODING 9552
SWIDTH 720 0
DWIDTH 33 0
BBX 33 11 0 9
BITMAP
FFFFFFFF80
FFFFFFFF80
FFFFFFFF80
0000000000
0000000000
0000000000
0000000000
0000000000
FFFFFFFF80
FFFFFFFF80
FFFFFFFF80
ENDCHAR
STARTCHAR 2551
ENCODING 9553
SWIDTH 720 0
DWIDTH 33 0
BBX 11 56 11 -14
BITMAP
E0E0
E0E0
E0E0
E0E0
E0E0
E0E0
E0E0
E0E0
E0E0
E0E0
E0E0
E0E0
E0E0
E0E0
E0E0
E0E0
E0E0
E0E0
E0E0
E0E0
E0E0
E0E0
E0E0
E0E0
E0E0
E0E0
E0E0
E0E0
E0E0
E0E0
E0E0
E0E0
E0E0
E0E0
E0E0
E0E0
E0E0
E0E0
E0E0
E0E0
E0E0
E0E0
E0E0
E0E0
E0E0
E0E0
E0E0
E0E0
E0E0
E0E0
E0E0
E0E0
E0E0
E0E0
E0E0
E0E0
ENDCHAR
STARTCHAR 2552
ENCODING 9554
SWIDTH 720 0
DWIDTH 33 0
BBX 18 34 15 -14
BITMAP
FFFFC0
FFFFC0
FFFFC0
E00000
E00000
E00000
E00000
E00000
FFFFC0
FFFFC0
FFFFC0
E00000
E00000
E00000
E00000
E00000
E00000
E00000
E00000
E00000
E00000
E00000
E00000
E00000
E00000
E00000
E00000
E00000
E00000
E00000
E00000
E00000
E00000
E00000
ENDCHAR
STARTCHAR 2553
ENCODING 9555
SWIDTH 720 0
DWIDTH 33 0
BBX 22 30 11 -14
BITMAP
FFFFFC
FFFFFC
FFFFFC
E0E000
E0E000
E0E000
E0E000
E0E000
E0E000
E0E000
E0E000
E0E000
E0E000
E0E000
E0E000
E0E000
E0E000
E0E000
E0E000
E0E000
E0E000
E0E000
E0E000
E0E000
E0E000
E0E000
E0E000
E0E000
E0E000
E0E000
ENDCHAR
STARTCHAR 2554
ENCODING 9556
SWIDTH 720 0
DWIDTH 33 0
BBX 22 34 11 -14
BITMAP
FFFFFC
FFFFFC
FFFFFC
E00000
E00000
E00000
E00000
E00000
E0FFFC
E0FFFC
E0FFFC
E0E000
E0E000
E0E000
E0E000
E0E000
E0E000
E0E000
E0E000
E0E000
E0E000
E0E000
E0E000
E0E000
E0E000
E0E000
E0E000
E0E000
E0E000
E0E000
E0E000
E0E000
E0E000
E0E000
ENDCHAR
ENDFONT
